<svg width="168" height="56" viewBox="0 0 168 56" fill="none" xmlns="http://www.w3.org/2000/svg">
<path d="M129.283 29.8641L129.45 30.3352C135.76 28.0919 142.174 26.2342 148.694 24.762L148.731 24.7535L148.767 24.7395C149.807 24.3296 150.792 24.3487 151.753 24.7827L151.753 24.7828L151.764 24.7877L154.461 25.9247C143.516 27.4907 132.825 30.2548 122.386 34.2166L117.365 34.2684C117.364 34.2684 117.363 34.2684 117.362 34.2684C116.644 34.2689 116.007 34.45 115.483 34.843L115.466 34.8555L115.451 34.8693L114.976 35.2912L114.931 35.331L114.897 35.3803C114.696 35.6702 114.571 35.9918 114.571 36.3373C114.571 36.6855 114.698 37.0036 114.908 37.2833L114.914 37.291L114.92 37.2986C116.344 39.0513 118.101 40.3506 120.184 41.1911L120.183 41.1913L120.197 41.1961C121.028 41.5049 121.856 41.7077 122.68 41.8022C121.734 42.6589 120.911 43.655 120.209 44.7884L120.209 44.7884L120.203 44.7981C119.801 45.4813 119.62 46.2287 119.66 47.0278L119.661 47.0415L119.662 47.0551C119.744 47.8307 120.054 48.5118 120.584 49.0832L120.589 49.0888L120.595 49.0942C123.261 51.7965 126.453 53.6178 130.162 54.554L130.167 54.5552C132.313 55.0733 134.349 54.8711 136.253 53.9382C141.591 51.3373 147.114 49.4245 152.819 48.199L153.95 50.0987C154.978 51.9668 156.414 53.3711 158.255 54.2962C158.983 54.7347 159.745 54.8416 160.494 54.5476C161.278 54.3599 161.853 53.8419 162.219 53.0703L162.22 53.0692C163.086 51.228 163.679 49.2115 164.002 47.023L164.002 47.0222C164.27 45.1847 163.748 43.6024 162.441 42.3288C159.896 39.5949 157.039 37.1746 153.871 35.068L156.448 34.6849C157.84 34.5543 159.159 34.7539 160.413 35.282L160.413 35.282L160.418 35.2842C161.402 35.6852 162.36 35.9443 163.29 36.0559L163.29 36.0559L163.298 36.0568C163.884 36.1175 164.431 36.0389 164.917 35.7957C165.404 35.5525 165.795 35.1622 166.098 34.6565L166.098 34.6566L166.103 34.6491C166.405 34.125 166.56 33.5799 166.538 33.0218C166.516 32.4639 166.319 31.9311 165.977 31.4287L165.972 31.4213L165.967 31.4141C164.11 28.8817 161.898 26.8821 159.331 25.4227C159.813 24.6175 159.946 23.7362 159.728 22.8047C162.665 21.3648 164.753 19.0786 165.977 15.967L165.988 15.9368L165.996 15.9053C166.129 15.3753 166.075 14.8592 165.753 14.4294L165.753 14.4293L165.748 14.4224C165.411 13.9897 164.946 13.7677 164.4 13.7553C157.69 12.5189 151.283 10.376 145.177 7.32634C145.267 6.46595 145.064 5.66604 144.563 4.95043L144.556 4.94013L144.548 4.93019C143.511 3.59604 142.224 2.6421 140.694 2.08071C139.203 1.48576 137.637 1.31995 136.007 1.57931L135.985 1.58274L135.964 1.58803C135.615 1.67533 135.304 1.8313 135.06 2.07551C134.817 2.31807 134.667 2.62139 134.596 2.96189L134.326 3.99688C127.225 9.50001 120.506 15.559 114.17 22.1734C113.801 22.5037 113.595 22.932 113.651 23.433L113.651 23.433L113.652 23.4398C113.714 23.9366 114.053 24.2781 114.479 24.4976C115.926 25.4296 117.27 26.4466 118.509 27.5484L118.537 27.5734L118.569 27.5939C119.268 28.0482 120.012 28.2917 120.795 28.3101C121.428 29.1892 122.246 29.8308 123.245 30.2235C125.292 31.0418 127.368 31.0788 129.451 30.335L129.283 29.8641ZM129.283 29.8641C127.314 30.5672 125.363 30.5321 123.429 29.7586L155.427 25.7896L151.959 24.327C150.869 23.8348 149.744 23.8172 148.584 24.2743C142.044 25.7508 135.611 27.6141 129.283 29.8641ZM141.33 15.1683L141.341 15.1743L141.353 15.1798L144.487 16.6901C139.88 17.8674 135.275 19.251 130.67 20.8407C132.949 18.5028 135.32 16.2682 137.783 14.1371C139.113 14.2563 140.293 14.6025 141.33 15.1683ZM127.104 46.9028C127.897 44.0462 129.407 41.6141 131.637 39.5971C135.052 38.6781 139.164 37.7086 143.974 36.6886C145.263 38.1275 146.194 39.1906 146.775 39.8833C140.321 41.8328 133.764 44.1728 127.104 46.9028Z" fill="#1E1E1E" stroke="white"/>
<mask id="path-2-outside-1_243_244" maskUnits="userSpaceOnUse" x="55.9879" y="0.953918" width="55" height="55" fill="black">
<rect fill="white" x="55.9879" y="0.953918" width="55" height="55"/>
<path d="M78.4489 13.3583C80.1364 14.5536 81.5953 16.0478 82.8258 17.8407C83.0367 18.1923 83.1246 18.5087 83.0895 18.7899C83.0192 19.0712 82.8434 19.3173 82.5621 19.5282C81.1559 20.1962 80.066 21.2509 79.2926 22.6923C81.1559 22.8329 82.527 23.7294 83.4059 25.3817C83.6871 21.2685 83.5992 17.0849 83.1422 12.831C81.8063 13.1122 80.2418 13.288 78.4489 13.3583ZM64.5797 15.6259C65.2828 16.0126 65.5465 16.5927 65.3707 17.3661C65.195 18.2802 65.2653 19.1063 65.5817 19.8446C68.3239 17.8407 70.8727 15.8192 73.2282 13.7802C70.3805 14.2021 67.4977 14.8173 64.5797 15.6259ZM74.2828 37.7216C74.5641 40.1122 74.7047 42.5556 74.7047 45.0517L77.025 46.5282C76.0758 43.6103 75.6364 40.5692 75.7067 37.4052L74.2828 37.7216ZM64.4742 40.1474C65.0719 40.5692 65.5817 41.1493 66.0035 41.8876C66.2848 42.5204 66.3903 43.206 66.32 43.9442C66.1442 45.2099 65.775 46.8095 65.2125 48.7431L67.4801 49.8505C68.0426 46.2645 68.3239 42.661 68.3239 39.0399L64.4742 40.1474ZM88.2575 9.45596L88.4157 13.3583L93.0563 11.3017C94.2516 10.7743 95.3239 10.9325 96.2731 11.7763L96.3258 7.45205C93.9 7.90908 91.2106 8.57705 88.2575 9.45596ZM88.6793 18.3681L88.8375 21.3739L93.1617 19.2646C94.2164 18.8778 95.2184 18.9657 96.1676 19.5282V15.6259C93.5309 16.1532 91.0348 17.0673 88.6793 18.3681ZM89.1012 25.9091L89.2067 29.1786C90.7887 28.4052 92.3004 27.8427 93.7418 27.4911C94.691 27.3505 95.6051 27.4032 96.484 27.6493L96.2731 24.1161C95.2887 23.8349 94.2867 23.8876 93.2672 24.2743L89.1012 25.9091ZM71.5407 29.1259C72.525 30.0751 73.2809 31.0067 73.8082 31.9208L76.7614 31.1298C77.6403 30.8837 78.6246 30.8485 79.7145 31.0243C81.191 31.3407 82.3512 32.2021 83.195 33.6083C83.652 34.7333 83.6344 35.8407 83.1422 36.9306C82.6149 37.7743 81.8942 38.0204 80.9801 37.6688C80.3473 37.2821 79.6969 37.0888 79.0289 37.0888C80.8571 40.0067 82.1227 43.1181 82.8258 46.4228C84.3024 43.4696 85.4274 40.5341 86.2008 37.6161C84.6891 36.2099 83.775 34.5048 83.4586 32.5009C83.2477 30.7431 83.195 28.9501 83.3004 27.122C82.984 27.7196 82.527 28.1591 81.9293 28.4403C81.3317 28.6864 80.7164 28.7216 80.0836 28.5458L79.0817 28.1239C78.0973 27.7372 77.0953 27.6845 76.0758 27.9657L71.5407 29.1259ZM76.2867 14.2021C72.8063 16.7333 69.484 19.704 66.32 23.1142L67.0582 25.329L69.6422 24.4325C71.8571 21.3388 74.0719 17.9286 76.2867 14.2021ZM103.076 33.661C102.021 33.872 100.949 33.872 99.859 33.661C100.175 35.4892 100.14 37.3524 99.7535 39.2509C99.4371 40.8681 99.6481 42.3974 100.386 43.8388C101.441 45.6317 102.988 46.7743 105.027 47.2665C104.183 42.8368 103.533 38.3017 103.076 33.661ZM64.2633 10.7743C64.9313 8.98135 65.8102 7.24111 66.9 5.55361C66.443 5.13174 65.986 4.58682 65.5289 3.91885L65.4762 3.33877C65.3707 3.09268 65.441 2.88174 65.6871 2.70596C65.8278 2.45986 66.0387 2.33682 66.32 2.33682C70.3981 2.16103 73.7203 3.6376 76.2867 6.7665C77.2711 6.30947 78.361 6.27432 79.5563 6.66103C80.7516 7.29385 81.7887 7.96182 82.6676 8.66494C82.07 7.15322 81.859 5.55361 82.0348 3.86611C82.1403 3.54971 82.3336 3.28603 82.6149 3.0751C83.0016 2.93447 83.3532 2.89932 83.6696 2.96963C85.111 3.3915 86.2184 4.21768 86.9918 5.44814C89.945 4.42861 93.0211 3.62002 96.2203 3.02236L97.5387 2.28408C98.3121 1.86221 99.0328 1.84463 99.7008 2.23135C102.619 3.88369 105.132 6.09853 107.242 8.87588C107.664 9.43838 107.593 9.91299 107.031 10.2997C106.187 10.9677 105.713 11.9169 105.607 13.1474C104.904 18.7021 104.904 24.2567 105.607 29.8114C105.607 31.3231 104.992 32.4657 103.761 33.2392C104.148 37.9149 105.607 42.204 108.138 46.1063C108.771 47.1962 109.298 48.3212 109.72 49.4813C110.037 50.1845 110.002 50.87 109.615 51.538L108.877 52.6981C108.63 53.12 108.261 53.331 107.769 53.331C103.093 53.7177 98.8922 52.5751 95.1657 49.9032C93.8649 48.9892 93.1793 47.7235 93.109 46.1063C92.7926 41.9228 93.1442 37.704 94.1637 33.4501C92.2301 34.2587 90.4723 34.9267 88.8903 35.454C90.0153 36.5087 90.5778 37.8095 90.5778 39.3563C90.3317 44.1376 89.1012 48.7606 86.8864 53.2255C86.3239 53.9989 85.6207 54.122 84.777 53.5946C83.7223 52.6454 82.9313 51.4501 82.4039 50.0087C81.9117 50.9228 81.191 51.5731 80.2418 51.9599C79.5387 52.3466 78.8883 52.2411 78.2907 51.6435C77.6227 50.9755 77.1832 50.202 76.9723 49.3231C76.6559 48.0575 75.9176 47.1259 74.7575 46.5282L74.4938 50.1669C74.4938 51.081 74.1774 51.9423 73.5446 52.7509C73.0172 53.3485 72.3492 53.8056 71.5407 54.122C70.5563 54.4384 69.6071 54.3681 68.693 53.911C67.7086 53.3837 66.9352 52.6806 66.3727 51.8017C65.9508 51.0985 65.3531 50.5536 64.5797 50.1669L63.6832 51.9071C63.2965 52.786 62.6285 53.1728 61.6793 53.0673C60.2379 52.6806 59.2184 51.8368 58.6207 50.536C58.4449 50.079 58.3746 49.6395 58.4098 49.2177C58.691 48.0927 59.1656 47.0556 59.8336 46.1063C60.9938 44.3837 61.8199 42.4149 62.3121 40.2001C60.7301 39.7431 59.6578 38.7411 59.0953 37.1942C59.025 36.8075 59.1481 36.5614 59.4645 36.456C61.9254 35.5067 64.8082 34.5048 68.1129 33.4501L67.691 30.286L63.9469 31.4989C62.8922 31.8153 61.943 31.6396 61.0992 30.9716C60.2555 30.4794 59.5699 29.8466 59.0426 29.0731C58.7262 28.7567 58.6735 28.4579 58.8844 28.1767C58.9899 27.7899 59.2535 27.6493 59.6754 27.7548C60.3434 27.6845 60.9586 27.579 61.5211 27.4384L63.525 26.5419C62.2946 25.0302 61.152 23.413 60.0973 21.6903C59.5348 20.6708 59.5524 19.6864 60.15 18.7372C60.7828 17.6474 61.2574 16.6278 61.5739 15.6786C59.7809 15.2216 58.5856 14.1142 57.9879 12.3563L58.4625 12.0399C59.025 12.1806 59.5172 12.1981 59.9391 12.0927L64.2633 10.7743Z"/>
</mask>
<path d="M78.4489 13.3583C80.1364 14.5536 81.5953 16.0478 82.8258 17.8407C83.0367 18.1923 83.1246 18.5087 83.0895 18.7899C83.0192 19.0712 82.8434 19.3173 82.5621 19.5282C81.1559 20.1962 80.066 21.2509 79.2926 22.6923C81.1559 22.8329 82.527 23.7294 83.4059 25.3817C83.6871 21.2685 83.5992 17.0849 83.1422 12.831C81.8063 13.1122 80.2418 13.288 78.4489 13.3583ZM64.5797 15.6259C65.2828 16.0126 65.5465 16.5927 65.3707 17.3661C65.195 18.2802 65.2653 19.1063 65.5817 19.8446C68.3239 17.8407 70.8727 15.8192 73.2282 13.7802C70.3805 14.2021 67.4977 14.8173 64.5797 15.6259ZM74.2828 37.7216C74.5641 40.1122 74.7047 42.5556 74.7047 45.0517L77.025 46.5282C76.0758 43.6103 75.6364 40.5692 75.7067 37.4052L74.2828 37.7216ZM64.4742 40.1474C65.0719 40.5692 65.5817 41.1493 66.0035 41.8876C66.2848 42.5204 66.3903 43.206 66.32 43.9442C66.1442 45.2099 65.775 46.8095 65.2125 48.7431L67.4801 49.8505C68.0426 46.2645 68.3239 42.661 68.3239 39.0399L64.4742 40.1474ZM88.2575 9.45596L88.4157 13.3583L93.0563 11.3017C94.2516 10.7743 95.3239 10.9325 96.2731 11.7763L96.3258 7.45205C93.9 7.90908 91.2106 8.57705 88.2575 9.45596ZM88.6793 18.3681L88.8375 21.3739L93.1617 19.2646C94.2164 18.8778 95.2184 18.9657 96.1676 19.5282V15.6259C93.5309 16.1532 91.0348 17.0673 88.6793 18.3681ZM89.1012 25.9091L89.2067 29.1786C90.7887 28.4052 92.3004 27.8427 93.7418 27.4911C94.691 27.3505 95.6051 27.4032 96.484 27.6493L96.2731 24.1161C95.2887 23.8349 94.2867 23.8876 93.2672 24.2743L89.1012 25.9091ZM71.5407 29.1259C72.525 30.0751 73.2809 31.0067 73.8082 31.9208L76.7614 31.1298C77.6403 30.8837 78.6246 30.8485 79.7145 31.0243C81.191 31.3407 82.3512 32.2021 83.195 33.6083C83.652 34.7333 83.6344 35.8407 83.1422 36.9306C82.6149 37.7743 81.8942 38.0204 80.9801 37.6688C80.3473 37.2821 79.6969 37.0888 79.0289 37.0888C80.8571 40.0067 82.1227 43.1181 82.8258 46.4228C84.3024 43.4696 85.4274 40.5341 86.2008 37.6161C84.6891 36.2099 83.775 34.5048 83.4586 32.5009C83.2477 30.7431 83.195 28.9501 83.3004 27.122C82.984 27.7196 82.527 28.1591 81.9293 28.4403C81.3317 28.6864 80.7164 28.7216 80.0836 28.5458L79.0817 28.1239C78.0973 27.7372 77.0953 27.6845 76.0758 27.9657L71.5407 29.1259ZM76.2867 14.2021C72.8063 16.7333 69.484 19.704 66.32 23.1142L67.0582 25.329L69.6422 24.4325C71.8571 21.3388 74.0719 17.9286 76.2867 14.2021ZM103.076 33.661C102.021 33.872 100.949 33.872 99.859 33.661C100.175 35.4892 100.14 37.3524 99.7535 39.2509C99.4371 40.8681 99.6481 42.3974 100.386 43.8388C101.441 45.6317 102.988 46.7743 105.027 47.2665C104.183 42.8368 103.533 38.3017 103.076 33.661ZM64.2633 10.7743C64.9313 8.98135 65.8102 7.24111 66.9 5.55361C66.443 5.13174 65.986 4.58682 65.5289 3.91885L65.4762 3.33877C65.3707 3.09268 65.441 2.88174 65.6871 2.70596C65.8278 2.45986 66.0387 2.33682 66.32 2.33682C70.3981 2.16103 73.7203 3.6376 76.2867 6.7665C77.2711 6.30947 78.361 6.27432 79.5563 6.66103C80.7516 7.29385 81.7887 7.96182 82.6676 8.66494C82.07 7.15322 81.859 5.55361 82.0348 3.86611C82.1403 3.54971 82.3336 3.28603 82.6149 3.0751C83.0016 2.93447 83.3532 2.89932 83.6696 2.96963C85.111 3.3915 86.2184 4.21768 86.9918 5.44814C89.945 4.42861 93.0211 3.62002 96.2203 3.02236L97.5387 2.28408C98.3121 1.86221 99.0328 1.84463 99.7008 2.23135C102.619 3.88369 105.132 6.09853 107.242 8.87588C107.664 9.43838 107.593 9.91299 107.031 10.2997C106.187 10.9677 105.713 11.9169 105.607 13.1474C104.904 18.7021 104.904 24.2567 105.607 29.8114C105.607 31.3231 104.992 32.4657 103.761 33.2392C104.148 37.9149 105.607 42.204 108.138 46.1063C108.771 47.1962 109.298 48.3212 109.72 49.4813C110.037 50.1845 110.002 50.87 109.615 51.538L108.877 52.6981C108.63 53.12 108.261 53.331 107.769 53.331C103.093 53.7177 98.8922 52.5751 95.1657 49.9032C93.8649 48.9892 93.1793 47.7235 93.109 46.1063C92.7926 41.9228 93.1442 37.704 94.1637 33.4501C92.2301 34.2587 90.4723 34.9267 88.8903 35.454C90.0153 36.5087 90.5778 37.8095 90.5778 39.3563C90.3317 44.1376 89.1012 48.7606 86.8864 53.2255C86.3239 53.9989 85.6207 54.122 84.777 53.5946C83.7223 52.6454 82.9313 51.4501 82.4039 50.0087C81.9117 50.9228 81.191 51.5731 80.2418 51.9599C79.5387 52.3466 78.8883 52.2411 78.2907 51.6435C77.6227 50.9755 77.1832 50.202 76.9723 49.3231C76.6559 48.0575 75.9176 47.1259 74.7575 46.5282L74.4938 50.1669C74.4938 51.081 74.1774 51.9423 73.5446 52.7509C73.0172 53.3485 72.3492 53.8056 71.5407 54.122C70.5563 54.4384 69.6071 54.3681 68.693 53.911C67.7086 53.3837 66.9352 52.6806 66.3727 51.8017C65.9508 51.0985 65.3531 50.5536 64.5797 50.1669L63.6832 51.9071C63.2965 52.786 62.6285 53.1728 61.6793 53.0673C60.2379 52.6806 59.2184 51.8368 58.6207 50.536C58.4449 50.079 58.3746 49.6395 58.4098 49.2177C58.691 48.0927 59.1656 47.0556 59.8336 46.1063C60.9938 44.3837 61.8199 42.4149 62.3121 40.2001C60.7301 39.7431 59.6578 38.7411 59.0953 37.1942C59.025 36.8075 59.1481 36.5614 59.4645 36.456C61.9254 35.5067 64.8082 34.5048 68.1129 33.4501L67.691 30.286L63.9469 31.4989C62.8922 31.8153 61.943 31.6396 61.0992 30.9716C60.2555 30.4794 59.5699 29.8466 59.0426 29.0731C58.7262 28.7567 58.6735 28.4579 58.8844 28.1767C58.9899 27.7899 59.2535 27.6493 59.6754 27.7548C60.3434 27.6845 60.9586 27.579 61.5211 27.4384L63.525 26.5419C62.2946 25.0302 61.152 23.413 60.0973 21.6903C59.5348 20.6708 59.5524 19.6864 60.15 18.7372C60.7828 17.6474 61.2574 16.6278 61.5739 15.6786C59.7809 15.2216 58.5856 14.1142 57.9879 12.3563L58.4625 12.0399C59.025 12.1806 59.5172 12.1981 59.9391 12.0927L64.2633 10.7743Z" fill="#1E1E1E"/>
<path d="M78.4489 13.3583C80.1364 14.5536 81.5953 16.0478 82.8258 17.8407C83.0367 18.1923 83.1246 18.5087 83.0895 18.7899C83.0192 19.0712 82.8434 19.3173 82.5621 19.5282C81.1559 20.1962 80.066 21.2509 79.2926 22.6923C81.1559 22.8329 82.527 23.7294 83.4059 25.3817C83.6871 21.2685 83.5992 17.0849 83.1422 12.831C81.8063 13.1122 80.2418 13.288 78.4489 13.3583ZM64.5797 15.6259C65.2828 16.0126 65.5465 16.5927 65.3707 17.3661C65.195 18.2802 65.2653 19.1063 65.5817 19.8446C68.3239 17.8407 70.8727 15.8192 73.2282 13.7802C70.3805 14.2021 67.4977 14.8173 64.5797 15.6259ZM74.2828 37.7216C74.5641 40.1122 74.7047 42.5556 74.7047 45.0517L77.025 46.5282C76.0758 43.6103 75.6364 40.5692 75.7067 37.4052L74.2828 37.7216ZM64.4742 40.1474C65.0719 40.5692 65.5817 41.1493 66.0035 41.8876C66.2848 42.5204 66.3903 43.206 66.32 43.9442C66.1442 45.2099 65.775 46.8095 65.2125 48.7431L67.4801 49.8505C68.0426 46.2645 68.3239 42.661 68.3239 39.0399L64.4742 40.1474ZM88.2575 9.45596L88.4157 13.3583L93.0563 11.3017C94.2516 10.7743 95.3239 10.9325 96.2731 11.7763L96.3258 7.45205C93.9 7.90908 91.2106 8.57705 88.2575 9.45596ZM88.6793 18.3681L88.8375 21.3739L93.1617 19.2646C94.2164 18.8778 95.2184 18.9657 96.1676 19.5282V15.6259C93.5309 16.1532 91.0348 17.0673 88.6793 18.3681ZM89.1012 25.9091L89.2067 29.1786C90.7887 28.4052 92.3004 27.8427 93.7418 27.4911C94.691 27.3505 95.6051 27.4032 96.484 27.6493L96.2731 24.1161C95.2887 23.8349 94.2867 23.8876 93.2672 24.2743L89.1012 25.9091ZM71.5407 29.1259C72.525 30.0751 73.2809 31.0067 73.8082 31.9208L76.7614 31.1298C77.6403 30.8837 78.6246 30.8485 79.7145 31.0243C81.191 31.3407 82.3512 32.2021 83.195 33.6083C83.652 34.7333 83.6344 35.8407 83.1422 36.9306C82.6149 37.7743 81.8942 38.0204 80.9801 37.6688C80.3473 37.2821 79.6969 37.0888 79.0289 37.0888C80.8571 40.0067 82.1227 43.1181 82.8258 46.4228C84.3024 43.4696 85.4274 40.5341 86.2008 37.6161C84.6891 36.2099 83.775 34.5048 83.4586 32.5009C83.2477 30.7431 83.195 28.9501 83.3004 27.122C82.984 27.7196 82.527 28.1591 81.9293 28.4403C81.3317 28.6864 80.7164 28.7216 80.0836 28.5458L79.0817 28.1239C78.0973 27.7372 77.0953 27.6845 76.0758 27.9657L71.5407 29.1259ZM76.2867 14.2021C72.8063 16.7333 69.484 19.704 66.32 23.1142L67.0582 25.329L69.6422 24.4325C71.8571 21.3388 74.0719 17.9286 76.2867 14.2021ZM103.076 33.661C102.021 33.872 100.949 33.872 99.859 33.661C100.175 35.4892 100.14 37.3524 99.7535 39.2509C99.4371 40.8681 99.6481 42.3974 100.386 43.8388C101.441 45.6317 102.988 46.7743 105.027 47.2665C104.183 42.8368 103.533 38.3017 103.076 33.661ZM64.2633 10.7743C64.9313 8.98135 65.8102 7.24111 66.9 5.55361C66.443 5.13174 65.986 4.58682 65.5289 3.91885L65.4762 3.33877C65.3707 3.09268 65.441 2.88174 65.6871 2.70596C65.8278 2.45986 66.0387 2.33682 66.32 2.33682C70.3981 2.16103 73.7203 3.6376 76.2867 6.7665C77.2711 6.30947 78.361 6.27432 79.5563 6.66103C80.7516 7.29385 81.7887 7.96182 82.6676 8.66494C82.07 7.15322 81.859 5.55361 82.0348 3.86611C82.1403 3.54971 82.3336 3.28603 82.6149 3.0751C83.0016 2.93447 83.3532 2.89932 83.6696 2.96963C85.111 3.3915 86.2184 4.21768 86.9918 5.44814C89.945 4.42861 93.0211 3.62002 96.2203 3.02236L97.5387 2.28408C98.3121 1.86221 99.0328 1.84463 99.7008 2.23135C102.619 3.88369 105.132 6.09853 107.242 8.87588C107.664 9.43838 107.593 9.91299 107.031 10.2997C106.187 10.9677 105.713 11.9169 105.607 13.1474C104.904 18.7021 104.904 24.2567 105.607 29.8114C105.607 31.3231 104.992 32.4657 103.761 33.2392C104.148 37.9149 105.607 42.204 108.138 46.1063C108.771 47.1962 109.298 48.3212 109.72 49.4813C110.037 50.1845 110.002 50.87 109.615 51.538L108.877 52.6981C108.63 53.12 108.261 53.331 107.769 53.331C103.093 53.7177 98.8922 52.5751 95.1657 49.9032C93.8649 48.9892 93.1793 47.7235 93.109 46.1063C92.7926 41.9228 93.1442 37.704 94.1637 33.4501C92.2301 34.2587 90.4723 34.9267 88.8903 35.454C90.0153 36.5087 90.5778 37.8095 90.5778 39.3563C90.3317 44.1376 89.1012 48.7606 86.8864 53.2255C86.3239 53.9989 85.6207 54.122 84.777 53.5946C83.7223 52.6454 82.9313 51.4501 82.4039 50.0087C81.9117 50.9228 81.191 51.5731 80.2418 51.9599C79.5387 52.3466 78.8883 52.2411 78.2907 51.6435C77.6227 50.9755 77.1832 50.202 76.9723 49.3231C76.6559 48.0575 75.9176 47.1259 74.7575 46.5282L74.4938 50.1669C74.4938 51.081 74.1774 51.9423 73.5446 52.7509C73.0172 53.3485 72.3492 53.8056 71.5407 54.122C70.5563 54.4384 69.6071 54.3681 68.693 53.911C67.7086 53.3837 66.9352 52.6806 66.3727 51.8017C65.9508 51.0985 65.3531 50.5536 64.5797 50.1669L63.6832 51.9071C63.2965 52.786 62.6285 53.1728 61.6793 53.0673C60.2379 52.6806 59.2184 51.8368 58.6207 50.536C58.4449 50.079 58.3746 49.6395 58.4098 49.2177C58.691 48.0927 59.1656 47.0556 59.8336 46.1063C60.9938 44.3837 61.8199 42.4149 62.3121 40.2001C60.7301 39.7431 59.6578 38.7411 59.0953 37.1942C59.025 36.8075 59.1481 36.5614 59.4645 36.456C61.9254 35.5067 64.8082 34.5048 68.1129 33.4501L67.691 30.286L63.9469 31.4989C62.8922 31.8153 61.943 31.6396 61.0992 30.9716C60.2555 30.4794 59.5699 29.8466 59.0426 29.0731C58.7262 28.7567 58.6735 28.4579 58.8844 28.1767C58.9899 27.7899 59.2535 27.6493 59.6754 27.7548C60.3434 27.6845 60.9586 27.579 61.5211 27.4384L63.525 26.5419C62.2946 25.0302 61.152 23.413 60.0973 21.6903C59.5348 20.6708 59.5524 19.6864 60.15 18.7372C60.7828 17.6474 61.2574 16.6278 61.5739 15.6786C59.7809 15.2216 58.5856 14.1142 57.9879 12.3563L58.4625 12.0399C59.025 12.1806 59.5172 12.1981 59.9391 12.0927L64.2633 10.7743Z" stroke="white" stroke-width="2" mask="url(#path-2-outside-1_243_244)"/>
<mask id="path-3-outside-2_243_244" maskUnits="userSpaceOnUse" x="0.959778" y="-0.284912" width="54" height="56" fill="black">
<rect fill="white" x="0.959778" y="-0.284912" width="54" height="56"/>
<path d="M42.2225 26.6473L43.8572 27.5438C44.8416 26.7704 46.0369 25.7333 47.4432 24.4325L46.8631 24.2216C44.9295 25.2059 43.3826 26.0145 42.2225 26.6473ZM33.0994 27.7548L34.9979 26.8583L32.9412 24.4325L33.0994 27.7548ZM13.0604 32.87L15.2752 33.5555L16.5936 30.1805C15.1522 31.411 13.9744 32.3075 13.0604 32.87ZM14.2733 20.2665C15.8201 20.829 16.9451 21.8661 17.6483 23.3778L17.7537 22.2177C17.6483 21.6552 17.4373 21.2157 17.1209 20.8993C16.699 20.4423 16.5233 19.9501 16.5936 19.4227L14.2733 20.2665ZM35.8416 22.1649L38.9529 24.4325C39.5154 24.0106 40.5526 23.1669 42.0643 21.9013L40.1658 21.1102C38.619 21.286 37.1776 21.6376 35.8416 22.1649ZM33.2576 30.1278L33.6268 33.1337C35.3846 32.5712 37.1424 31.8505 38.9002 30.9716L36.7908 28.9149C35.8768 29.2665 34.699 29.6708 33.2576 30.1278ZM33.3104 44.2606C33.7674 45.2098 33.8553 46.1942 33.574 47.2138C35.1912 47.1083 36.8084 46.7743 38.4256 46.2118C37.5115 44.8407 36.7733 43.3114 36.2108 41.6239C35.1209 42.538 34.1541 43.4169 33.3104 44.2606ZM14.2733 11.3544C14.8358 12.5497 15.5389 13.5341 16.3826 14.3075C17.5779 13.5341 19.0369 12.5497 20.7596 11.3544L19.8104 10.036C17.9471 10.5634 16.1014 11.0028 14.2733 11.3544ZM33.1522 9.45594C33.4686 10.4052 33.4686 11.3895 33.1522 12.4091C34.91 11.5302 36.5623 10.9149 38.1092 10.5634C38.8475 10.3524 39.6385 10.4227 40.4822 10.7743L40.9041 8.29578C38.4432 8.85828 35.8592 9.245 33.1522 9.45594ZM32.994 16.6805L32.8885 19.6864C35.0682 18.4911 37.4061 17.5946 39.9022 16.997L40.0604 14.6239C37.494 14.9052 35.1385 15.5907 32.994 16.6805ZM8.26154 35.1376C10.3709 35.3485 12.076 36.245 13.3768 37.827C14.0799 38.6005 14.3963 39.497 14.326 40.5165L14.2733 42.4677C18.5272 44.8934 23.0799 46.5458 27.9315 47.4247C26.4901 45.6669 24.8553 43.4872 23.0272 40.8856C22.4295 40.077 22.201 39.163 22.3416 38.1434C21.4627 38.7059 20.4783 38.9872 19.3885 38.9872C18.8963 38.9872 18.4744 38.7411 18.1229 38.2489C16.4002 36.0341 14.2205 34.5223 11.5838 33.7138C10.5994 34.2059 9.492 34.6805 8.26154 35.1376ZM20.5486 17.3134C22.3768 17.6649 23.5721 18.7372 24.1346 20.5302C25.119 24.6083 25.4529 28.7919 25.1365 33.0809C24.9608 34.6981 24.3455 36.122 23.2908 37.3524C26.244 37.9501 28.9158 39.1981 31.3065 41.0966C31.4119 41.0263 32.2908 40.5516 33.9432 39.6727C35.8065 38.6884 36.6678 38.2313 36.5272 38.3016L35.4197 36.7196C34.7166 37.0009 33.8904 37.2997 32.9412 37.6161C31.6756 37.9677 30.5154 37.7743 29.4608 37.036C28.617 36.2626 27.9139 35.2958 27.3514 34.1356C26.9647 33.1864 26.8768 32.2548 27.0877 31.3407C27.7557 25.8563 28.2127 20.6005 28.4588 15.5731C27.2283 15.8544 26.0506 15.995 24.9256 15.995C23.3436 16.2059 21.8846 16.6454 20.5486 17.3134ZM13.6932 46.6337C13.3065 48.3915 12.7967 50.0614 12.1639 51.6434C11.8826 52.4169 11.3553 53.12 10.5818 53.7528C9.80841 54.3856 8.96466 54.4911 8.0506 54.0692C5.65997 53.1552 3.69122 51.661 2.14435 49.5868C1.89825 49.2704 1.89825 48.9364 2.14435 48.5848C4.1131 45.9481 5.67755 43.1708 6.83771 40.2528C7.04865 39.7255 7.10138 39.1454 6.99591 38.5126C6.85529 37.4227 6.83771 36.4559 6.94318 35.6122C5.92365 35.7177 4.95685 35.5946 4.04279 35.243C3.33966 34.9618 2.79474 34.4696 2.40802 33.7665C2.30255 33.4501 2.35529 33.1864 2.56622 32.9755C2.84747 32.7645 3.23419 32.5888 3.72638 32.4481C9.10529 31.1473 13.658 28.4755 17.3846 24.4325C14.0799 26.5067 10.494 28.0712 6.62677 29.1259C5.99396 29.3368 5.32599 29.3544 4.62286 29.1786C3.84943 29.0028 3.23419 28.6161 2.77716 28.0184C2.63654 27.7372 2.70685 27.5614 2.9881 27.4911C6.64435 25.8036 10.0193 23.6239 13.1131 20.952C11.0389 21.9364 9.08771 22.745 7.25958 23.3778C5.9588 23.87 4.62286 23.9227 3.25177 23.536C2.72443 23.3954 2.39044 23.0438 2.24982 22.4813L2.14435 22.1649C2.03888 21.8134 2.10919 21.5321 2.35529 21.3212C3.02325 20.7938 3.7088 20.4071 4.41193 20.161L6.15216 19.4755C5.8006 18.9481 5.27325 18.2802 4.57013 17.4716C3.65607 16.5575 3.23419 15.4501 3.3045 14.1493C3.3045 13.7626 3.48029 13.4462 3.83185 13.2001C4.18341 12.9891 4.55255 12.9716 4.93927 13.1473C7.15411 14.0966 8.82404 15.6434 9.94904 17.788L11.6365 16.997C10.5467 15.5204 10.0545 13.868 10.16 12.0399C9.03497 12.0751 7.94513 11.8993 6.89044 11.5126C5.97638 11.1962 5.25568 10.6864 4.72833 9.98328C4.62286 9.8075 4.60529 9.63172 4.6756 9.45594C4.71075 9.20985 4.8338 9.06922 5.04474 9.03406C9.3338 8.08485 13.4822 6.46766 17.4901 4.1825L17.9647 2.96961C17.9998 2.61805 18.1756 2.37195 18.492 2.23133C18.7733 2.05555 19.0545 2.02039 19.3358 2.12586C21.41 2.58289 23.1678 3.51453 24.6092 4.92078C25.699 5.87 26.4373 7.13563 26.824 8.71766C26.824 8.9286 26.7361 9.0868 26.5604 9.19227C26.4197 9.36805 26.244 9.43836 26.033 9.4032C24.8377 8.94617 23.66 8.87586 22.4998 9.19227C24.785 10.4227 26.7889 12.0399 28.5115 14.0438L28.4061 10.2997C28.3709 8.75281 28.0721 7.22352 27.5096 5.7118C27.369 5.1493 27.3162 4.69227 27.3514 4.3407C27.2811 3.98914 27.4217 3.76063 27.7733 3.65516C27.9842 3.44422 28.2479 3.42664 28.5643 3.60242C29.9354 4.16492 31.0604 5.07899 31.9393 6.34461C34.8572 5.25477 37.5643 4.4286 40.0604 3.8661C40.9041 3.76063 41.4842 3.35633 41.8006 2.6532C42.3983 1.73914 43.1717 1.49305 44.1209 1.91492C45.6326 2.68836 47.0389 3.67274 48.3397 4.86805C49.992 6.30945 51.1697 8.03211 51.8729 10.036C51.9783 10.3876 51.9432 10.7216 51.7674 11.038C51.2752 11.8114 50.5721 12.3036 49.658 12.5145C49.7635 14.413 49.5701 16.2235 49.0779 17.9462C48.7967 18.8602 48.2869 19.5458 47.5486 20.0028C49.3768 20.5302 50.783 21.5848 51.7674 23.1669C51.9432 23.5184 51.908 23.87 51.6619 24.2216C51.0291 24.8895 50.326 25.1356 49.5526 24.9598C48.5682 26.4013 47.4959 27.7548 46.3358 29.0204C48.7967 30.3212 50.8709 31.3407 52.5584 32.079C53.1209 32.3602 53.3494 32.8348 53.244 33.5028C52.7518 35.4716 51.574 36.8075 49.7108 37.5106C48.7615 37.8973 47.8826 37.8095 47.074 37.247C44.8943 35.8759 43.0311 34.5575 41.4842 33.2919C39.9373 34.3466 38.2498 35.3661 36.4217 36.3505C40.7108 37.0184 44.7713 38.161 48.6033 39.7782C49.658 40.2001 50.6424 40.8856 51.5565 41.8348C52.6111 42.8895 53.2791 44.1376 53.5604 45.579C53.7361 46.036 53.701 46.493 53.4549 46.9501C53.1385 47.7235 52.6815 48.3388 52.0838 48.7958C51.2752 49.3231 50.4666 49.3934 49.658 49.0067C48.7791 48.7606 48.0233 48.2333 47.3904 47.4247C45.4568 45.4911 43.3475 43.8036 41.0623 42.3622C40.1483 41.8348 39.2518 41.1493 38.3729 40.3055L37.1072 41.0438C38.8299 43.2587 40.9393 44.9989 43.4354 46.2645C44.3143 46.7216 45.0174 47.3016 45.5447 48.0048C45.7557 48.3915 45.949 48.7782 46.1248 49.1649C46.3709 49.9032 46.2654 50.5536 45.8084 51.1161C45.2459 52.1356 44.3494 52.8212 43.119 53.1727C40.2713 54.0868 37.2303 54.5438 33.9959 54.5438C31.1483 54.5438 28.3006 53.9989 25.4529 52.9091C21.3045 51.1864 17.3846 49.0946 13.6932 46.6337Z"/>
</mask>
<path d="M42.2225 26.6473L43.8572 27.5438C44.8416 26.7704 46.0369 25.7333 47.4432 24.4325L46.8631 24.2216C44.9295 25.2059 43.3826 26.0145 42.2225 26.6473ZM33.0994 27.7548L34.9979 26.8583L32.9412 24.4325L33.0994 27.7548ZM13.0604 32.87L15.2752 33.5555L16.5936 30.1805C15.1522 31.411 13.9744 32.3075 13.0604 32.87ZM14.2733 20.2665C15.8201 20.829 16.9451 21.8661 17.6483 23.3778L17.7537 22.2177C17.6483 21.6552 17.4373 21.2157 17.1209 20.8993C16.699 20.4423 16.5233 19.9501 16.5936 19.4227L14.2733 20.2665ZM35.8416 22.1649L38.9529 24.4325C39.5154 24.0106 40.5526 23.1669 42.0643 21.9013L40.1658 21.1102C38.619 21.286 37.1776 21.6376 35.8416 22.1649ZM33.2576 30.1278L33.6268 33.1337C35.3846 32.5712 37.1424 31.8505 38.9002 30.9716L36.7908 28.9149C35.8768 29.2665 34.699 29.6708 33.2576 30.1278ZM33.3104 44.2606C33.7674 45.2098 33.8553 46.1942 33.574 47.2138C35.1912 47.1083 36.8084 46.7743 38.4256 46.2118C37.5115 44.8407 36.7733 43.3114 36.2108 41.6239C35.1209 42.538 34.1541 43.4169 33.3104 44.2606ZM14.2733 11.3544C14.8358 12.5497 15.5389 13.5341 16.3826 14.3075C17.5779 13.5341 19.0369 12.5497 20.7596 11.3544L19.8104 10.036C17.9471 10.5634 16.1014 11.0028 14.2733 11.3544ZM33.1522 9.45594C33.4686 10.4052 33.4686 11.3895 33.1522 12.4091C34.91 11.5302 36.5623 10.9149 38.1092 10.5634C38.8475 10.3524 39.6385 10.4227 40.4822 10.7743L40.9041 8.29578C38.4432 8.85828 35.8592 9.245 33.1522 9.45594ZM32.994 16.6805L32.8885 19.6864C35.0682 18.4911 37.4061 17.5946 39.9022 16.997L40.0604 14.6239C37.494 14.9052 35.1385 15.5907 32.994 16.6805ZM8.26154 35.1376C10.3709 35.3485 12.076 36.245 13.3768 37.827C14.0799 38.6005 14.3963 39.497 14.326 40.5165L14.2733 42.4677C18.5272 44.8934 23.0799 46.5458 27.9315 47.4247C26.4901 45.6669 24.8553 43.4872 23.0272 40.8856C22.4295 40.077 22.201 39.163 22.3416 38.1434C21.4627 38.7059 20.4783 38.9872 19.3885 38.9872C18.8963 38.9872 18.4744 38.7411 18.1229 38.2489C16.4002 36.0341 14.2205 34.5223 11.5838 33.7138C10.5994 34.2059 9.492 34.6805 8.26154 35.1376ZM20.5486 17.3134C22.3768 17.6649 23.5721 18.7372 24.1346 20.5302C25.119 24.6083 25.4529 28.7919 25.1365 33.0809C24.9608 34.6981 24.3455 36.122 23.2908 37.3524C26.244 37.9501 28.9158 39.1981 31.3065 41.0966C31.4119 41.0263 32.2908 40.5516 33.9432 39.6727C35.8065 38.6884 36.6678 38.2313 36.5272 38.3016L35.4197 36.7196C34.7166 37.0009 33.8904 37.2997 32.9412 37.6161C31.6756 37.9677 30.5154 37.7743 29.4608 37.036C28.617 36.2626 27.9139 35.2958 27.3514 34.1356C26.9647 33.1864 26.8768 32.2548 27.0877 31.3407C27.7557 25.8563 28.2127 20.6005 28.4588 15.5731C27.2283 15.8544 26.0506 15.995 24.9256 15.995C23.3436 16.2059 21.8846 16.6454 20.5486 17.3134ZM13.6932 46.6337C13.3065 48.3915 12.7967 50.0614 12.1639 51.6434C11.8826 52.4169 11.3553 53.12 10.5818 53.7528C9.80841 54.3856 8.96466 54.4911 8.0506 54.0692C5.65997 53.1552 3.69122 51.661 2.14435 49.5868C1.89825 49.2704 1.89825 48.9364 2.14435 48.5848C4.1131 45.9481 5.67755 43.1708 6.83771 40.2528C7.04865 39.7255 7.10138 39.1454 6.99591 38.5126C6.85529 37.4227 6.83771 36.4559 6.94318 35.6122C5.92365 35.7177 4.95685 35.5946 4.04279 35.243C3.33966 34.9618 2.79474 34.4696 2.40802 33.7665C2.30255 33.4501 2.35529 33.1864 2.56622 32.9755C2.84747 32.7645 3.23419 32.5888 3.72638 32.4481C9.10529 31.1473 13.658 28.4755 17.3846 24.4325C14.0799 26.5067 10.494 28.0712 6.62677 29.1259C5.99396 29.3368 5.32599 29.3544 4.62286 29.1786C3.84943 29.0028 3.23419 28.6161 2.77716 28.0184C2.63654 27.7372 2.70685 27.5614 2.9881 27.4911C6.64435 25.8036 10.0193 23.6239 13.1131 20.952C11.0389 21.9364 9.08771 22.745 7.25958 23.3778C5.9588 23.87 4.62286 23.9227 3.25177 23.536C2.72443 23.3954 2.39044 23.0438 2.24982 22.4813L2.14435 22.1649C2.03888 21.8134 2.10919 21.5321 2.35529 21.3212C3.02325 20.7938 3.7088 20.4071 4.41193 20.161L6.15216 19.4755C5.8006 18.9481 5.27325 18.2802 4.57013 17.4716C3.65607 16.5575 3.23419 15.4501 3.3045 14.1493C3.3045 13.7626 3.48029 13.4462 3.83185 13.2001C4.18341 12.9891 4.55255 12.9716 4.93927 13.1473C7.15411 14.0966 8.82404 15.6434 9.94904 17.788L11.6365 16.997C10.5467 15.5204 10.0545 13.868 10.16 12.0399C9.03497 12.0751 7.94513 11.8993 6.89044 11.5126C5.97638 11.1962 5.25568 10.6864 4.72833 9.98328C4.62286 9.8075 4.60529 9.63172 4.6756 9.45594C4.71075 9.20985 4.8338 9.06922 5.04474 9.03406C9.3338 8.08485 13.4822 6.46766 17.4901 4.1825L17.9647 2.96961C17.9998 2.61805 18.1756 2.37195 18.492 2.23133C18.7733 2.05555 19.0545 2.02039 19.3358 2.12586C21.41 2.58289 23.1678 3.51453 24.6092 4.92078C25.699 5.87 26.4373 7.13563 26.824 8.71766C26.824 8.9286 26.7361 9.0868 26.5604 9.19227C26.4197 9.36805 26.244 9.43836 26.033 9.4032C24.8377 8.94617 23.66 8.87586 22.4998 9.19227C24.785 10.4227 26.7889 12.0399 28.5115 14.0438L28.4061 10.2997C28.3709 8.75281 28.0721 7.22352 27.5096 5.7118C27.369 5.1493 27.3162 4.69227 27.3514 4.3407C27.2811 3.98914 27.4217 3.76063 27.7733 3.65516C27.9842 3.44422 28.2479 3.42664 28.5643 3.60242C29.9354 4.16492 31.0604 5.07899 31.9393 6.34461C34.8572 5.25477 37.5643 4.4286 40.0604 3.8661C40.9041 3.76063 41.4842 3.35633 41.8006 2.6532C42.3983 1.73914 43.1717 1.49305 44.1209 1.91492C45.6326 2.68836 47.0389 3.67274 48.3397 4.86805C49.992 6.30945 51.1697 8.03211 51.8729 10.036C51.9783 10.3876 51.9432 10.7216 51.7674 11.038C51.2752 11.8114 50.5721 12.3036 49.658 12.5145C49.7635 14.413 49.5701 16.2235 49.0779 17.9462C48.7967 18.8602 48.2869 19.5458 47.5486 20.0028C49.3768 20.5302 50.783 21.5848 51.7674 23.1669C51.9432 23.5184 51.908 23.87 51.6619 24.2216C51.0291 24.8895 50.326 25.1356 49.5526 24.9598C48.5682 26.4013 47.4959 27.7548 46.3358 29.0204C48.7967 30.3212 50.8709 31.3407 52.5584 32.079C53.1209 32.3602 53.3494 32.8348 53.244 33.5028C52.7518 35.4716 51.574 36.8075 49.7108 37.5106C48.7615 37.8973 47.8826 37.8095 47.074 37.247C44.8943 35.8759 43.0311 34.5575 41.4842 33.2919C39.9373 34.3466 38.2498 35.3661 36.4217 36.3505C40.7108 37.0184 44.7713 38.161 48.6033 39.7782C49.658 40.2001 50.6424 40.8856 51.5565 41.8348C52.6111 42.8895 53.2791 44.1376 53.5604 45.579C53.7361 46.036 53.701 46.493 53.4549 46.9501C53.1385 47.7235 52.6815 48.3388 52.0838 48.7958C51.2752 49.3231 50.4666 49.3934 49.658 49.0067C48.7791 48.7606 48.0233 48.2333 47.3904 47.4247C45.4568 45.4911 43.3475 43.8036 41.0623 42.3622C40.1483 41.8348 39.2518 41.1493 38.3729 40.3055L37.1072 41.0438C38.8299 43.2587 40.9393 44.9989 43.4354 46.2645C44.3143 46.7216 45.0174 47.3016 45.5447 48.0048C45.7557 48.3915 45.949 48.7782 46.1248 49.1649C46.3709 49.9032 46.2654 50.5536 45.8084 51.1161C45.2459 52.1356 44.3494 52.8212 43.119 53.1727C40.2713 54.0868 37.2303 54.5438 33.9959 54.5438C31.1483 54.5438 28.3006 53.9989 25.4529 52.9091C21.3045 51.1864 17.3846 49.0946 13.6932 46.6337Z" fill="#1E1E1E"/>
<path d="M42.2225 26.6473L43.8572 27.5438C44.8416 26.7704 46.0369 25.7333 47.4432 24.4325L46.8631 24.2216C44.9295 25.2059 43.3826 26.0145 42.2225 26.6473ZM33.0994 27.7548L34.9979 26.8583L32.9412 24.4325L33.0994 27.7548ZM13.0604 32.87L15.2752 33.5555L16.5936 30.1805C15.1522 31.411 13.9744 32.3075 13.0604 32.87ZM14.2733 20.2665C15.8201 20.829 16.9451 21.8661 17.6483 23.3778L17.7537 22.2177C17.6483 21.6552 17.4373 21.2157 17.1209 20.8993C16.699 20.4423 16.5233 19.9501 16.5936 19.4227L14.2733 20.2665ZM35.8416 22.1649L38.9529 24.4325C39.5154 24.0106 40.5526 23.1669 42.0643 21.9013L40.1658 21.1102C38.619 21.286 37.1776 21.6376 35.8416 22.1649ZM33.2576 30.1278L33.6268 33.1337C35.3846 32.5712 37.1424 31.8505 38.9002 30.9716L36.7908 28.9149C35.8768 29.2665 34.699 29.6708 33.2576 30.1278ZM33.3104 44.2606C33.7674 45.2098 33.8553 46.1942 33.574 47.2138C35.1912 47.1083 36.8084 46.7743 38.4256 46.2118C37.5115 44.8407 36.7733 43.3114 36.2108 41.6239C35.1209 42.538 34.1541 43.4169 33.3104 44.2606ZM14.2733 11.3544C14.8358 12.5497 15.5389 13.5341 16.3826 14.3075C17.5779 13.5341 19.0369 12.5497 20.7596 11.3544L19.8104 10.036C17.9471 10.5634 16.1014 11.0028 14.2733 11.3544ZM33.1522 9.45594C33.4686 10.4052 33.4686 11.3895 33.1522 12.4091C34.91 11.5302 36.5623 10.9149 38.1092 10.5634C38.8475 10.3524 39.6385 10.4227 40.4822 10.7743L40.9041 8.29578C38.4432 8.85828 35.8592 9.245 33.1522 9.45594ZM32.994 16.6805L32.8885 19.6864C35.0682 18.4911 37.4061 17.5946 39.9022 16.997L40.0604 14.6239C37.494 14.9052 35.1385 15.5907 32.994 16.6805ZM8.26154 35.1376C10.3709 35.3485 12.076 36.245 13.3768 37.827C14.0799 38.6005 14.3963 39.497 14.326 40.5165L14.2733 42.4677C18.5272 44.8934 23.0799 46.5458 27.9315 47.4247C26.4901 45.6669 24.8553 43.4872 23.0272 40.8856C22.4295 40.077 22.201 39.163 22.3416 38.1434C21.4627 38.7059 20.4783 38.9872 19.3885 38.9872C18.8963 38.9872 18.4744 38.7411 18.1229 38.2489C16.4002 36.0341 14.2205 34.5223 11.5838 33.7138C10.5994 34.2059 9.492 34.6805 8.26154 35.1376ZM20.5486 17.3134C22.3768 17.6649 23.5721 18.7372 24.1346 20.5302C25.119 24.6083 25.4529 28.7919 25.1365 33.0809C24.9608 34.6981 24.3455 36.122 23.2908 37.3524C26.244 37.9501 28.9158 39.1981 31.3065 41.0966C31.4119 41.0263 32.2908 40.5516 33.9432 39.6727C35.8065 38.6884 36.6678 38.2313 36.5272 38.3016L35.4197 36.7196C34.7166 37.0009 33.8904 37.2997 32.9412 37.6161C31.6756 37.9677 30.5154 37.7743 29.4608 37.036C28.617 36.2626 27.9139 35.2958 27.3514 34.1356C26.9647 33.1864 26.8768 32.2548 27.0877 31.3407C27.7557 25.8563 28.2127 20.6005 28.4588 15.5731C27.2283 15.8544 26.0506 15.995 24.9256 15.995C23.3436 16.2059 21.8846 16.6454 20.5486 17.3134ZM13.6932 46.6337C13.3065 48.3915 12.7967 50.0614 12.1639 51.6434C11.8826 52.4169 11.3553 53.12 10.5818 53.7528C9.80841 54.3856 8.96466 54.4911 8.0506 54.0692C5.65997 53.1552 3.69122 51.661 2.14435 49.5868C1.89825 49.2704 1.89825 48.9364 2.14435 48.5848C4.1131 45.9481 5.67755 43.1708 6.83771 40.2528C7.04865 39.7255 7.10138 39.1454 6.99591 38.5126C6.85529 37.4227 6.83771 36.4559 6.94318 35.6122C5.92365 35.7177 4.95685 35.5946 4.04279 35.243C3.33966 34.9618 2.79474 34.4696 2.40802 33.7665C2.30255 33.4501 2.35529 33.1864 2.56622 32.9755C2.84747 32.7645 3.23419 32.5888 3.72638 32.4481C9.10529 31.1473 13.658 28.4755 17.3846 24.4325C14.0799 26.5067 10.494 28.0712 6.62677 29.1259C5.99396 29.3368 5.32599 29.3544 4.62286 29.1786C3.84943 29.0028 3.23419 28.6161 2.77716 28.0184C2.63654 27.7372 2.70685 27.5614 2.9881 27.4911C6.64435 25.8036 10.0193 23.6239 13.1131 20.952C11.0389 21.9364 9.08771 22.745 7.25958 23.3778C5.9588 23.87 4.62286 23.9227 3.25177 23.536C2.72443 23.3954 2.39044 23.0438 2.24982 22.4813L2.14435 22.1649C2.03888 21.8134 2.10919 21.5321 2.35529 21.3212C3.02325 20.7938 3.7088 20.4071 4.41193 20.161L6.15216 19.4755C5.8006 18.9481 5.27325 18.2802 4.57013 17.4716C3.65607 16.5575 3.23419 15.4501 3.3045 14.1493C3.3045 13.7626 3.48029 13.4462 3.83185 13.2001C4.18341 12.9891 4.55255 12.9716 4.93927 13.1473C7.15411 14.0966 8.82404 15.6434 9.94904 17.788L11.6365 16.997C10.5467 15.5204 10.0545 13.868 10.16 12.0399C9.03497 12.0751 7.94513 11.8993 6.89044 11.5126C5.97638 11.1962 5.25568 10.6864 4.72833 9.98328C4.62286 9.8075 4.60529 9.63172 4.6756 9.45594C4.71075 9.20985 4.8338 9.06922 5.04474 9.03406C9.3338 8.08485 13.4822 6.46766 17.4901 4.1825L17.9647 2.96961C17.9998 2.61805 18.1756 2.37195 18.492 2.23133C18.7733 2.05555 19.0545 2.02039 19.3358 2.12586C21.41 2.58289 23.1678 3.51453 24.6092 4.92078C25.699 5.87 26.4373 7.13563 26.824 8.71766C26.824 8.9286 26.7361 9.0868 26.5604 9.19227C26.4197 9.36805 26.244 9.43836 26.033 9.4032C24.8377 8.94617 23.66 8.87586 22.4998 9.19227C24.785 10.4227 26.7889 12.0399 28.5115 14.0438L28.4061 10.2997C28.3709 8.75281 28.0721 7.22352 27.5096 5.7118C27.369 5.1493 27.3162 4.69227 27.3514 4.3407C27.2811 3.98914 27.4217 3.76063 27.7733 3.65516C27.9842 3.44422 28.2479 3.42664 28.5643 3.60242C29.9354 4.16492 31.0604 5.07899 31.9393 6.34461C34.8572 5.25477 37.5643 4.4286 40.0604 3.8661C40.9041 3.76063 41.4842 3.35633 41.8006 2.6532C42.3983 1.73914 43.1717 1.49305 44.1209 1.91492C45.6326 2.68836 47.0389 3.67274 48.3397 4.86805C49.992 6.30945 51.1697 8.03211 51.8729 10.036C51.9783 10.3876 51.9432 10.7216 51.7674 11.038C51.2752 11.8114 50.5721 12.3036 49.658 12.5145C49.7635 14.413 49.5701 16.2235 49.0779 17.9462C48.7967 18.8602 48.2869 19.5458 47.5486 20.0028C49.3768 20.5302 50.783 21.5848 51.7674 23.1669C51.9432 23.5184 51.908 23.87 51.6619 24.2216C51.0291 24.8895 50.326 25.1356 49.5526 24.9598C48.5682 26.4013 47.4959 27.7548 46.3358 29.0204C48.7967 30.3212 50.8709 31.3407 52.5584 32.079C53.1209 32.3602 53.3494 32.8348 53.244 33.5028C52.7518 35.4716 51.574 36.8075 49.7108 37.5106C48.7615 37.8973 47.8826 37.8095 47.074 37.247C44.8943 35.8759 43.0311 34.5575 41.4842 33.2919C39.9373 34.3466 38.2498 35.3661 36.4217 36.3505C40.7108 37.0184 44.7713 38.161 48.6033 39.7782C49.658 40.2001 50.6424 40.8856 51.5565 41.8348C52.6111 42.8895 53.2791 44.1376 53.5604 45.579C53.7361 46.036 53.701 46.493 53.4549 46.9501C53.1385 47.7235 52.6815 48.3388 52.0838 48.7958C51.2752 49.3231 50.4666 49.3934 49.658 49.0067C48.7791 48.7606 48.0233 48.2333 47.3904 47.4247C45.4568 45.4911 43.3475 43.8036 41.0623 42.3622C40.1483 41.8348 39.2518 41.1493 38.3729 40.3055L37.1072 41.0438C38.8299 43.2587 40.9393 44.9989 43.4354 46.2645C44.3143 46.7216 45.0174 47.3016 45.5447 48.0048C45.7557 48.3915 45.949 48.7782 46.1248 49.1649C46.3709 49.9032 46.2654 50.5536 45.8084 51.1161C45.2459 52.1356 44.3494 52.8212 43.119 53.1727C40.2713 54.0868 37.2303 54.5438 33.9959 54.5438C31.1483 54.5438 28.3006 53.9989 25.4529 52.9091C21.3045 51.1864 17.3846 49.0946 13.6932 46.6337Z" stroke="white" stroke-width="2" mask="url(#path-3-outside-2_243_244)"/>
</svg>
