<svg width="314" height="67" viewBox="0 0 314 67" fill="none" xmlns="http://www.w3.org/2000/svg">
<mask id="path-1-outside-1_66_123" maskUnits="userSpaceOnUse" x="-0.493164" y="0.791992" width="314" height="66" fill="black">
<rect fill="white" x="-0.493164" y="0.791992" width="314" height="66"/>
<path d="M30.4028 31.248C30.4402 31.8453 30.5708 33.3573 30.7948 35.784C31.0562 38.1733 31.1868 40.1707 31.1868 41.776C31.1868 43.8667 30.9442 44.9867 30.4588 45.136C30.3095 45.1733 30.0668 45.192 29.7308 45.192C28.9095 45.192 27.8828 45.0053 26.6508 44.632C25.4562 44.2213 24.3735 43.7173 23.4028 43.12C22.4695 42.5227 21.9282 41.944 21.7788 41.384C21.6295 40.824 21.5548 38.472 21.5548 34.328C17.5228 34.8133 14.8722 35.112 13.6028 35.224C12.5948 38.1733 11.4375 41.4027 10.1308 44.912C9.12284 45.136 8.1895 45.248 7.33084 45.248C5.8375 45.248 4.56817 44.8933 3.52284 44.184C2.51484 43.4373 1.84284 42.3173 1.50684 40.824L2.62684 38.304C6.7335 29.1573 10.2802 21.4853 13.2668 15.288C16.2908 9.09066 18.2508 5.99199 19.1468 5.99199C19.8562 5.99199 20.8828 6.25333 22.2268 6.77599C23.6082 7.29866 24.8402 7.93332 25.9228 8.67999C27.0428 9.42666 27.6775 10.0987 27.8268 10.696C28.0882 11.7413 28.4428 13.9253 28.8908 17.248C29.3388 20.5707 29.6935 23.7813 29.9548 26.88L30.4028 31.248ZM21.3868 14.728C19.7442 18.6107 18.1202 22.7733 16.5148 27.216C18.2322 27.104 19.9308 26.936 21.6108 26.712C21.6108 21.56 21.5362 17.5653 21.3868 14.728Z"/>
<path d="M44.608 45.192C43.6 45.192 42.48 44.912 41.248 44.352C40.016 43.792 38.9707 43.12 38.112 42.336C37.2907 41.552 36.88 40.8613 36.88 40.264C36.88 39.592 37.104 38.584 37.552 37.24C38.0374 35.8587 38.728 34.0293 39.624 31.752L41.08 27.888L36.88 28.56C36.2454 28.224 35.7414 27.72 35.368 27.048C34.9947 26.376 34.808 25.648 34.808 24.864C34.808 24.1547 34.9387 23.4827 35.2 22.848C35.4987 22.176 35.928 21.616 36.488 21.168C37.384 21.2053 38.784 21.1867 40.688 21.112L42.536 21.056C41.9387 16.5013 41.64 13.0293 41.64 10.64C41.64 8.95999 41.7707 7.67199 42.032 6.77599C42.256 6.10399 42.8347 5.37599 43.768 4.59199C44.7387 3.80799 45.84 3.15466 47.072 2.63199C48.3414 2.07199 49.536 1.79199 50.656 1.79199C52.5974 1.79199 54.3894 2.20266 56.032 3.02399C57.712 3.80799 59.0374 4.85333 60.008 6.15999C60.9787 7.42933 61.464 8.71732 61.464 10.024C61.464 11.4427 60.96 12.6 59.952 13.496C58.944 14.3547 57.6374 14.784 56.032 14.784C55.4347 14.784 54.7067 14.6907 53.848 14.504C53.4374 11.816 52.4667 9.81866 50.936 8.51199C50.3387 10.8267 49.872 12.824 49.536 14.504C49.2374 16.184 49.0694 18.1813 49.032 20.496C50.9734 20.2347 53.456 19.7493 56.48 19.04C57.152 19.5253 57.656 20.1227 57.992 20.832C58.3654 21.504 58.552 22.232 58.552 23.016C58.552 24.2107 58.1227 25.3867 57.264 26.544C56.5174 26.6187 55.3974 26.6933 53.904 26.768L48.192 27.216C47.968 28.9333 47.8187 30.3333 47.744 31.416C47.2587 36.0453 46.792 39.4987 46.344 41.776C45.9334 44.0533 45.3547 45.192 44.608 45.192Z"/>
<path d="M73.9288 23.184C72.6968 28.8213 71.8942 33.4133 71.5208 36.96C73.9102 35.8027 75.8328 34.608 77.2888 33.376C78.9315 33.936 80.1448 34.72 80.9288 35.728C81.7502 36.6987 82.1608 37.8187 82.1608 39.088C82.1608 39.984 81.5262 40.9173 80.2568 41.888C78.9875 42.8213 77.4755 43.6053 75.7208 44.24C73.9662 44.8747 72.4728 45.192 71.2408 45.192C70.1582 45.192 68.9448 44.8747 67.6008 44.24C66.2942 43.568 65.1742 42.8027 64.2408 41.944C63.3075 41.048 62.8408 40.2827 62.8408 39.648C62.8408 39.1253 63.0275 38.0053 63.4008 36.288C63.8115 34.5333 64.1662 33.04 64.4648 31.808C64.8008 30.5387 65.0435 29.6053 65.1928 29.008L66.5368 23.632L63.1208 23.856C62.4862 23.5573 62.0008 23.0907 61.6648 22.456C61.3288 21.8213 61.1608 21.0933 61.1608 20.272C61.1608 18.7787 61.7022 17.5093 62.7848 16.464C64.1288 16.5387 65.7715 16.6133 67.7128 16.688C67.7128 14.2987 67.9742 11.6667 68.4968 8.79199C69.0195 5.87999 69.5982 4.42399 70.2328 4.42399C71.0168 4.42399 72.0062 4.75999 73.2008 5.43199C74.3955 6.10399 75.4408 6.88799 76.3368 7.78399C77.2328 8.67999 77.6808 9.46399 77.6808 10.136C77.6808 10.9947 77.5128 11.872 77.1768 12.768C76.8782 13.6267 76.3742 14.8213 75.6648 16.352C76.2995 16.2773 77.9048 16.016 80.4808 15.568L81.7688 15.344C82.4408 15.7173 82.9448 16.2587 83.2808 16.968C83.6542 17.6773 83.8408 18.4427 83.8408 19.264C83.8408 19.936 83.7102 20.5893 83.4488 21.224C83.1875 21.8587 82.7955 22.4 82.2728 22.848L73.9288 23.184Z"/>
<path d="M98.0981 45.192C96.3061 45.192 94.4394 44.6133 92.4981 43.456C90.5568 42.2613 88.9514 40.8053 87.6821 39.088C86.4128 37.3707 85.7781 35.7467 85.7781 34.216C85.7781 31.4907 86.4128 28.504 87.6821 25.256C88.9888 22.008 90.7808 19.264 93.0581 17.024C95.3354 14.7467 97.9114 13.608 100.786 13.608C102.839 13.608 104.687 14.056 106.33 14.952C108.01 15.848 109.317 16.968 110.25 18.312C111.183 19.656 111.65 20.9627 111.65 22.232C111.65 23.8 110.941 25.3493 109.522 26.88C108.103 28.3733 106.125 29.6987 103.586 30.856C101.047 31.976 98.1541 32.7787 94.9061 33.264C94.8688 33.712 94.8501 34.384 94.8501 35.28C94.8501 36.4 94.8874 37.24 94.9621 37.8C96.8288 37.6133 98.6768 37.1093 100.506 36.288C102.335 35.4667 104.333 34.3093 106.498 32.816C107.954 33.264 109.055 33.9733 109.802 34.944C110.549 35.9147 110.922 37.072 110.922 38.416C110.922 39.536 110.231 40.6373 108.85 41.72C107.506 42.7653 105.826 43.6053 103.81 44.24C101.794 44.8747 99.8901 45.192 98.0981 45.192ZM95.7461 29.064C98.0234 28.2427 99.9274 27.1973 101.458 25.928C102.989 24.6587 103.754 23.576 103.754 22.68C103.754 21.6347 103.026 20.9253 101.57 20.552C100.151 21.5973 98.9381 22.848 97.9301 24.304C96.9594 25.76 96.2314 27.3467 95.7461 29.064Z"/>
<path d="M124.112 45.192C123.104 45.192 122.003 44.8747 120.808 44.24C119.613 43.568 118.587 42.8027 117.728 41.944C116.869 41.048 116.44 40.3013 116.44 39.704C116.44 38.9947 116.589 38.08 116.888 36.96C117.187 35.8027 117.635 34.3093 118.232 32.48C118.829 30.576 119.277 29.064 119.576 27.944C119.875 26.7867 120.024 25.8533 120.024 25.144C120.024 24.8453 119.856 24.528 119.52 24.192C119.184 23.856 118.661 23.408 117.952 22.848C117.131 22.176 116.533 21.6533 116.16 21.28C115.787 20.9067 115.6 20.5333 115.6 20.16C115.6 19.376 115.973 18.4613 116.72 17.416C117.467 16.3707 118.344 15.4747 119.352 14.728C120.36 13.9813 121.219 13.608 121.928 13.608C122.712 13.608 123.608 13.9627 124.616 14.672C125.624 15.3813 126.501 16.2027 127.248 17.136C127.995 18.032 128.368 18.7227 128.368 19.208C128.368 20.6267 128.088 22.4933 127.528 24.808L128.2 25.144C129.059 23.7627 129.992 22.12 131 20.216C132.045 18.2747 132.68 17.08 132.904 16.632L133.968 14.616C136.544 14.5413 138.466 15.008 139.736 16.016C141.005 17.024 141.64 18.368 141.64 20.048C141.64 21.6907 141.098 23.3333 140.016 24.976C137.328 25.872 135.032 26.768 133.128 27.664C131.261 28.5227 129.376 29.5493 127.472 30.744C127.36 34.888 127.024 38.3413 126.464 41.104C125.941 43.8293 125.157 45.192 124.112 45.192Z"/>
<path d="M168.691 45.192C167.833 45.192 166.806 44.8747 165.611 44.24C164.454 43.6053 163.427 42.8587 162.531 42C161.673 41.1413 161.243 40.432 161.243 39.872C161.243 38.9013 162.158 33.9547 163.987 25.032C164.211 23.9867 164.566 22.2133 165.051 19.712C165.574 17.1733 165.929 15.344 166.115 14.224L164.043 14.56C162.886 13.4773 162.307 12.1147 162.307 10.472C162.307 9.31466 162.625 8.11999 163.259 6.88799C166.283 6.10399 169.345 5.71199 172.443 5.71199C175.729 5.71199 178.771 6.14133 181.571 6.99999C184.409 7.85866 186.705 9.18399 188.459 10.976C190.214 12.7307 191.091 14.9333 191.091 17.584C191.091 19.936 190.307 22.176 188.739 24.304C187.209 26.3947 184.969 28.1307 182.019 29.512C179.07 30.8933 175.598 31.7333 171.603 32.032C171.342 33.824 171.137 35.448 170.987 36.904C170.651 39.7413 170.334 41.832 170.035 43.176C169.737 44.52 169.289 45.192 168.691 45.192ZM172.443 25.088C175.691 24.4533 178.193 23.4827 179.947 22.176C181.739 20.832 182.635 19.3387 182.635 17.696C182.635 16.576 182.075 15.6427 180.955 14.896C179.873 14.112 178.398 13.72 176.531 13.72C175.859 13.72 175.131 13.776 174.347 13.888L173.451 19.152C172.929 22.1013 172.593 24.08 172.443 25.088Z"/>
<path d="M216.599 36.96C218.877 35.84 220.799 34.6453 222.367 33.376C224.01 33.936 225.223 34.72 226.007 35.728C226.829 36.6987 227.239 37.8187 227.239 39.088C227.239 39.984 226.605 40.9173 225.335 41.888C224.066 42.8213 222.554 43.6053 220.799 44.24C219.045 44.8747 217.551 45.192 216.319 45.192C215.461 45.192 214.471 44.8747 213.351 44.24C212.269 43.6053 211.317 42.8587 210.495 42C209.711 41.1413 209.319 40.4693 209.319 39.984C209.319 39.6107 209.469 39.1067 209.767 38.472C210.103 37.8373 210.458 37.184 210.831 36.512C211.205 35.84 211.447 35.392 211.559 35.168L210.159 34.384C208.181 37.632 206.277 40.2453 204.447 42.224C202.655 44.2027 200.882 45.192 199.127 45.192C197.933 45.192 196.663 44.6693 195.319 43.624C194.013 42.5787 192.893 41.3093 191.959 39.816C191.063 38.3227 190.615 36.9973 190.615 35.84C190.615 32.5173 191.306 29.12 192.687 25.648C194.069 22.176 195.991 19.3013 198.455 17.024C200.957 14.7467 203.775 13.608 206.911 13.608C208.031 13.608 209.17 14.112 210.327 15.12C211.485 16.128 212.231 17.1547 212.567 18.2C212.754 17.3787 213.015 16.6693 213.351 16.072C213.725 15.4373 214.117 15.12 214.527 15.12C215.498 15.12 216.562 15.4747 217.719 16.184C218.914 16.856 219.922 17.6587 220.743 18.592C221.565 19.488 221.975 20.1973 221.975 20.72C221.938 21.4293 221.639 22.6053 221.079 24.248C220.557 25.8907 219.698 28.392 218.503 31.752C217.794 33.5813 217.159 35.3173 216.599 36.96ZM199.407 37.408C202.431 35.5413 205.063 33.2453 207.303 30.52C209.543 27.7573 211.074 24.7147 211.895 21.392C210.887 20.944 209.935 20.72 209.039 20.72C207.285 20.72 205.717 21.504 204.335 23.072C202.954 24.64 201.853 26.6933 201.031 29.232C200.21 31.7707 199.669 34.496 199.407 37.408Z"/>
<path d="M239.01 45.192C238.002 45.192 236.901 44.8747 235.706 44.24C234.512 43.568 233.485 42.8027 232.626 41.944C231.768 41.048 231.338 40.3013 231.338 39.704C231.338 38.9947 231.488 38.08 231.786 36.96C232.085 35.8027 232.533 34.3093 233.13 32.48C233.728 30.576 234.176 29.064 234.474 27.944C234.773 26.7867 234.922 25.8533 234.922 25.144C234.922 24.8453 234.754 24.528 234.418 24.192C234.082 23.856 233.56 23.408 232.85 22.848C232.029 22.176 231.432 21.6533 231.058 21.28C230.685 20.9067 230.498 20.5333 230.498 20.16C230.498 19.376 230.872 18.4613 231.618 17.416C232.365 16.3707 233.242 15.4747 234.25 14.728C235.258 13.9813 236.117 13.608 236.826 13.608C237.61 13.608 238.506 13.9627 239.514 14.672C240.522 15.3813 241.4 16.2027 242.146 17.136C242.893 18.032 243.266 18.7227 243.266 19.208C243.266 20.6267 242.986 22.4933 242.426 24.808L243.098 25.144C243.957 23.7627 244.89 22.12 245.898 20.216C246.944 18.2747 247.578 17.08 247.802 16.632L248.866 14.616C251.442 14.5413 253.365 15.008 254.634 16.016C255.904 17.024 256.538 18.368 256.538 20.048C256.538 21.6907 255.997 23.3333 254.914 24.976C252.226 25.872 249.93 26.768 248.026 27.664C246.16 28.5227 244.274 29.5493 242.37 30.744C242.258 34.888 241.922 38.3413 241.362 41.104C240.84 43.8293 240.056 45.192 239.01 45.192Z"/>
<path d="M271.132 23.184C269.9 28.8213 269.097 33.4133 268.724 36.96C271.113 35.8027 273.036 34.608 274.492 33.376C276.135 33.936 277.348 34.72 278.132 35.728C278.953 36.6987 279.364 37.8187 279.364 39.088C279.364 39.984 278.729 40.9173 277.46 41.888C276.191 42.8213 274.679 43.6053 272.924 44.24C271.169 44.8747 269.676 45.192 268.444 45.192C267.361 45.192 266.148 44.8747 264.804 44.24C263.497 43.568 262.377 42.8027 261.444 41.944C260.511 41.048 260.044 40.2827 260.044 39.648C260.044 39.1253 260.231 38.0053 260.604 36.288C261.015 34.5333 261.369 33.04 261.668 31.808C262.004 30.5387 262.247 29.6053 262.396 29.008L263.74 23.632L260.324 23.856C259.689 23.5573 259.204 23.0907 258.868 22.456C258.532 21.8213 258.364 21.0933 258.364 20.272C258.364 18.7787 258.905 17.5093 259.988 16.464C261.332 16.5387 262.975 16.6133 264.916 16.688C264.916 14.2987 265.177 11.6667 265.7 8.79199C266.223 5.87999 266.801 4.42399 267.436 4.42399C268.22 4.42399 269.209 4.75999 270.404 5.43199C271.599 6.10399 272.644 6.88799 273.54 7.78399C274.436 8.67999 274.884 9.46399 274.884 10.136C274.884 10.9947 274.716 11.872 274.38 12.768C274.081 13.6267 273.577 14.8213 272.868 16.352C273.503 16.2773 275.108 16.016 277.684 15.568L278.972 15.344C279.644 15.7173 280.148 16.2587 280.484 16.968C280.857 17.6773 281.044 18.4427 281.044 19.264C281.044 19.936 280.913 20.5893 280.652 21.224C280.391 21.8587 279.999 22.4 279.476 22.848L271.132 23.184Z"/>
<path d="M303.309 36.232C300.995 38.0987 298.587 39.76 296.085 41.216C293.584 42.672 291.661 43.4 290.317 43.4C289.757 43.4 289.011 43.1013 288.077 42.504C287.181 41.8693 286.379 41.1227 285.669 40.264C284.997 39.4053 284.661 38.6213 284.661 37.912C284.661 37.24 284.811 36.3627 285.109 35.28C285.445 34.1973 285.968 32.6293 286.677 30.576C287.723 27.664 288.245 25.8533 288.245 25.144C288.245 24.8453 288.059 24.528 287.685 24.192C287.349 23.8187 286.827 23.3707 286.117 22.848C285.296 22.2133 284.68 21.7093 284.269 21.336C283.896 20.9627 283.709 20.5707 283.709 20.16C283.709 19.376 284.064 18.4613 284.773 17.416C285.52 16.3707 286.379 15.4747 287.349 14.728C288.357 13.9813 289.216 13.608 289.925 13.608C290.709 13.608 291.605 13.9627 292.613 14.672C293.659 15.3813 294.555 16.2027 295.301 17.136C296.085 18.032 296.477 18.7227 296.477 19.208C296.477 21.2987 296.179 23.8 295.581 26.712C295.021 29.5867 294.2 32.536 293.117 35.56C296.141 33.992 299.165 31.976 302.189 29.512C302.675 24.7333 303.141 21.1493 303.589 18.76C304.037 16.3333 304.672 15.12 305.493 15.12C306.053 15.12 306.893 15.512 308.013 16.296C309.171 17.0427 310.197 17.9013 311.093 18.872C312.027 19.8053 312.493 20.5333 312.493 21.056C312.493 21.84 311.915 25.4053 310.757 31.752C309.6 38.0613 308.387 44.128 307.117 49.952C305.848 55.8133 304.933 59.192 304.373 60.088C303.552 61.432 302.208 62.608 300.341 63.616C298.475 64.624 296.664 65.128 294.909 65.128C293.416 65.128 291.811 64.624 290.093 63.616C288.413 62.608 286.995 61.3573 285.837 59.864C284.717 58.408 284.157 57.064 284.157 55.832C284.157 54.1893 286.024 51.7813 289.757 48.608C293.491 45.472 298.344 41.8507 304.317 37.744L303.309 36.232ZM302.413 45.36C295.843 50.512 292.557 54.096 292.557 56.112C292.557 56.8213 292.931 57.4747 293.677 58.072C294.424 58.6693 295.357 59.0613 296.477 59.248C297.709 57.4933 298.736 55.5893 299.557 53.536C300.416 51.52 301.368 48.7947 302.413 45.36Z"/>
</mask>
<path d="M30.4028 31.248C30.4402 31.8453 30.5708 33.3573 30.7948 35.784C31.0562 38.1733 31.1868 40.1707 31.1868 41.776C31.1868 43.8667 30.9442 44.9867 30.4588 45.136C30.3095 45.1733 30.0668 45.192 29.7308 45.192C28.9095 45.192 27.8828 45.0053 26.6508 44.632C25.4562 44.2213 24.3735 43.7173 23.4028 43.12C22.4695 42.5227 21.9282 41.944 21.7788 41.384C21.6295 40.824 21.5548 38.472 21.5548 34.328C17.5228 34.8133 14.8722 35.112 13.6028 35.224C12.5948 38.1733 11.4375 41.4027 10.1308 44.912C9.12284 45.136 8.1895 45.248 7.33084 45.248C5.8375 45.248 4.56817 44.8933 3.52284 44.184C2.51484 43.4373 1.84284 42.3173 1.50684 40.824L2.62684 38.304C6.7335 29.1573 10.2802 21.4853 13.2668 15.288C16.2908 9.09066 18.2508 5.99199 19.1468 5.99199C19.8562 5.99199 20.8828 6.25333 22.2268 6.77599C23.6082 7.29866 24.8402 7.93332 25.9228 8.67999C27.0428 9.42666 27.6775 10.0987 27.8268 10.696C28.0882 11.7413 28.4428 13.9253 28.8908 17.248C29.3388 20.5707 29.6935 23.7813 29.9548 26.88L30.4028 31.248ZM21.3868 14.728C19.7442 18.6107 18.1202 22.7733 16.5148 27.216C18.2322 27.104 19.9308 26.936 21.6108 26.712C21.6108 21.56 21.5362 17.5653 21.3868 14.728Z" fill="#1E1E1E"/>
<path d="M44.608 45.192C43.6 45.192 42.48 44.912 41.248 44.352C40.016 43.792 38.9707 43.12 38.112 42.336C37.2907 41.552 36.88 40.8613 36.88 40.264C36.88 39.592 37.104 38.584 37.552 37.24C38.0374 35.8587 38.728 34.0293 39.624 31.752L41.08 27.888L36.88 28.56C36.2454 28.224 35.7414 27.72 35.368 27.048C34.9947 26.376 34.808 25.648 34.808 24.864C34.808 24.1547 34.9387 23.4827 35.2 22.848C35.4987 22.176 35.928 21.616 36.488 21.168C37.384 21.2053 38.784 21.1867 40.688 21.112L42.536 21.056C41.9387 16.5013 41.64 13.0293 41.64 10.64C41.64 8.95999 41.7707 7.67199 42.032 6.77599C42.256 6.10399 42.8347 5.37599 43.768 4.59199C44.7387 3.80799 45.84 3.15466 47.072 2.63199C48.3414 2.07199 49.536 1.79199 50.656 1.79199C52.5974 1.79199 54.3894 2.20266 56.032 3.02399C57.712 3.80799 59.0374 4.85333 60.008 6.15999C60.9787 7.42933 61.464 8.71732 61.464 10.024C61.464 11.4427 60.96 12.6 59.952 13.496C58.944 14.3547 57.6374 14.784 56.032 14.784C55.4347 14.784 54.7067 14.6907 53.848 14.504C53.4374 11.816 52.4667 9.81866 50.936 8.51199C50.3387 10.8267 49.872 12.824 49.536 14.504C49.2374 16.184 49.0694 18.1813 49.032 20.496C50.9734 20.2347 53.456 19.7493 56.48 19.04C57.152 19.5253 57.656 20.1227 57.992 20.832C58.3654 21.504 58.552 22.232 58.552 23.016C58.552 24.2107 58.1227 25.3867 57.264 26.544C56.5174 26.6187 55.3974 26.6933 53.904 26.768L48.192 27.216C47.968 28.9333 47.8187 30.3333 47.744 31.416C47.2587 36.0453 46.792 39.4987 46.344 41.776C45.9334 44.0533 45.3547 45.192 44.608 45.192Z" fill="#1E1E1E"/>
<path d="M73.9288 23.184C72.6968 28.8213 71.8942 33.4133 71.5208 36.96C73.9102 35.8027 75.8328 34.608 77.2888 33.376C78.9315 33.936 80.1448 34.72 80.9288 35.728C81.7502 36.6987 82.1608 37.8187 82.1608 39.088C82.1608 39.984 81.5262 40.9173 80.2568 41.888C78.9875 42.8213 77.4755 43.6053 75.7208 44.24C73.9662 44.8747 72.4728 45.192 71.2408 45.192C70.1582 45.192 68.9448 44.8747 67.6008 44.24C66.2942 43.568 65.1742 42.8027 64.2408 41.944C63.3075 41.048 62.8408 40.2827 62.8408 39.648C62.8408 39.1253 63.0275 38.0053 63.4008 36.288C63.8115 34.5333 64.1662 33.04 64.4648 31.808C64.8008 30.5387 65.0435 29.6053 65.1928 29.008L66.5368 23.632L63.1208 23.856C62.4862 23.5573 62.0008 23.0907 61.6648 22.456C61.3288 21.8213 61.1608 21.0933 61.1608 20.272C61.1608 18.7787 61.7022 17.5093 62.7848 16.464C64.1288 16.5387 65.7715 16.6133 67.7128 16.688C67.7128 14.2987 67.9742 11.6667 68.4968 8.79199C69.0195 5.87999 69.5982 4.42399 70.2328 4.42399C71.0168 4.42399 72.0062 4.75999 73.2008 5.43199C74.3955 6.10399 75.4408 6.88799 76.3368 7.78399C77.2328 8.67999 77.6808 9.46399 77.6808 10.136C77.6808 10.9947 77.5128 11.872 77.1768 12.768C76.8782 13.6267 76.3742 14.8213 75.6648 16.352C76.2995 16.2773 77.9048 16.016 80.4808 15.568L81.7688 15.344C82.4408 15.7173 82.9448 16.2587 83.2808 16.968C83.6542 17.6773 83.8408 18.4427 83.8408 19.264C83.8408 19.936 83.7102 20.5893 83.4488 21.224C83.1875 21.8587 82.7955 22.4 82.2728 22.848L73.9288 23.184Z" fill="#1E1E1E"/>
<path d="M98.0981 45.192C96.3061 45.192 94.4394 44.6133 92.4981 43.456C90.5568 42.2613 88.9514 40.8053 87.6821 39.088C86.4128 37.3707 85.7781 35.7467 85.7781 34.216C85.7781 31.4907 86.4128 28.504 87.6821 25.256C88.9888 22.008 90.7808 19.264 93.0581 17.024C95.3354 14.7467 97.9114 13.608 100.786 13.608C102.839 13.608 104.687 14.056 106.33 14.952C108.01 15.848 109.317 16.968 110.25 18.312C111.183 19.656 111.65 20.9627 111.65 22.232C111.65 23.8 110.941 25.3493 109.522 26.88C108.103 28.3733 106.125 29.6987 103.586 30.856C101.047 31.976 98.1541 32.7787 94.9061 33.264C94.8688 33.712 94.8501 34.384 94.8501 35.28C94.8501 36.4 94.8874 37.24 94.9621 37.8C96.8288 37.6133 98.6768 37.1093 100.506 36.288C102.335 35.4667 104.333 34.3093 106.498 32.816C107.954 33.264 109.055 33.9733 109.802 34.944C110.549 35.9147 110.922 37.072 110.922 38.416C110.922 39.536 110.231 40.6373 108.85 41.72C107.506 42.7653 105.826 43.6053 103.81 44.24C101.794 44.8747 99.8901 45.192 98.0981 45.192ZM95.7461 29.064C98.0234 28.2427 99.9274 27.1973 101.458 25.928C102.989 24.6587 103.754 23.576 103.754 22.68C103.754 21.6347 103.026 20.9253 101.57 20.552C100.151 21.5973 98.9381 22.848 97.9301 24.304C96.9594 25.76 96.2314 27.3467 95.7461 29.064Z" fill="#1E1E1E"/>
<path d="M124.112 45.192C123.104 45.192 122.003 44.8747 120.808 44.24C119.613 43.568 118.587 42.8027 117.728 41.944C116.869 41.048 116.44 40.3013 116.44 39.704C116.44 38.9947 116.589 38.08 116.888 36.96C117.187 35.8027 117.635 34.3093 118.232 32.48C118.829 30.576 119.277 29.064 119.576 27.944C119.875 26.7867 120.024 25.8533 120.024 25.144C120.024 24.8453 119.856 24.528 119.52 24.192C119.184 23.856 118.661 23.408 117.952 22.848C117.131 22.176 116.533 21.6533 116.16 21.28C115.787 20.9067 115.6 20.5333 115.6 20.16C115.6 19.376 115.973 18.4613 116.72 17.416C117.467 16.3707 118.344 15.4747 119.352 14.728C120.36 13.9813 121.219 13.608 121.928 13.608C122.712 13.608 123.608 13.9627 124.616 14.672C125.624 15.3813 126.501 16.2027 127.248 17.136C127.995 18.032 128.368 18.7227 128.368 19.208C128.368 20.6267 128.088 22.4933 127.528 24.808L128.2 25.144C129.059 23.7627 129.992 22.12 131 20.216C132.045 18.2747 132.68 17.08 132.904 16.632L133.968 14.616C136.544 14.5413 138.466 15.008 139.736 16.016C141.005 17.024 141.64 18.368 141.64 20.048C141.64 21.6907 141.098 23.3333 140.016 24.976C137.328 25.872 135.032 26.768 133.128 27.664C131.261 28.5227 129.376 29.5493 127.472 30.744C127.36 34.888 127.024 38.3413 126.464 41.104C125.941 43.8293 125.157 45.192 124.112 45.192Z" fill="#1E1E1E"/>
<path d="M168.691 45.192C167.833 45.192 166.806 44.8747 165.611 44.24C164.454 43.6053 163.427 42.8587 162.531 42C161.673 41.1413 161.243 40.432 161.243 39.872C161.243 38.9013 162.158 33.9547 163.987 25.032C164.211 23.9867 164.566 22.2133 165.051 19.712C165.574 17.1733 165.929 15.344 166.115 14.224L164.043 14.56C162.886 13.4773 162.307 12.1147 162.307 10.472C162.307 9.31466 162.625 8.11999 163.259 6.88799C166.283 6.10399 169.345 5.71199 172.443 5.71199C175.729 5.71199 178.771 6.14133 181.571 6.99999C184.409 7.85866 186.705 9.18399 188.459 10.976C190.214 12.7307 191.091 14.9333 191.091 17.584C191.091 19.936 190.307 22.176 188.739 24.304C187.209 26.3947 184.969 28.1307 182.019 29.512C179.07 30.8933 175.598 31.7333 171.603 32.032C171.342 33.824 171.137 35.448 170.987 36.904C170.651 39.7413 170.334 41.832 170.035 43.176C169.737 44.52 169.289 45.192 168.691 45.192ZM172.443 25.088C175.691 24.4533 178.193 23.4827 179.947 22.176C181.739 20.832 182.635 19.3387 182.635 17.696C182.635 16.576 182.075 15.6427 180.955 14.896C179.873 14.112 178.398 13.72 176.531 13.72C175.859 13.72 175.131 13.776 174.347 13.888L173.451 19.152C172.929 22.1013 172.593 24.08 172.443 25.088Z" fill="#1E1E1E"/>
<path d="M216.599 36.96C218.877 35.84 220.799 34.6453 222.367 33.376C224.01 33.936 225.223 34.72 226.007 35.728C226.829 36.6987 227.239 37.8187 227.239 39.088C227.239 39.984 226.605 40.9173 225.335 41.888C224.066 42.8213 222.554 43.6053 220.799 44.24C219.045 44.8747 217.551 45.192 216.319 45.192C215.461 45.192 214.471 44.8747 213.351 44.24C212.269 43.6053 211.317 42.8587 210.495 42C209.711 41.1413 209.319 40.4693 209.319 39.984C209.319 39.6107 209.469 39.1067 209.767 38.472C210.103 37.8373 210.458 37.184 210.831 36.512C211.205 35.84 211.447 35.392 211.559 35.168L210.159 34.384C208.181 37.632 206.277 40.2453 204.447 42.224C202.655 44.2027 200.882 45.192 199.127 45.192C197.933 45.192 196.663 44.6693 195.319 43.624C194.013 42.5787 192.893 41.3093 191.959 39.816C191.063 38.3227 190.615 36.9973 190.615 35.84C190.615 32.5173 191.306 29.12 192.687 25.648C194.069 22.176 195.991 19.3013 198.455 17.024C200.957 14.7467 203.775 13.608 206.911 13.608C208.031 13.608 209.17 14.112 210.327 15.12C211.485 16.128 212.231 17.1547 212.567 18.2C212.754 17.3787 213.015 16.6693 213.351 16.072C213.725 15.4373 214.117 15.12 214.527 15.12C215.498 15.12 216.562 15.4747 217.719 16.184C218.914 16.856 219.922 17.6587 220.743 18.592C221.565 19.488 221.975 20.1973 221.975 20.72C221.938 21.4293 221.639 22.6053 221.079 24.248C220.557 25.8907 219.698 28.392 218.503 31.752C217.794 33.5813 217.159 35.3173 216.599 36.96ZM199.407 37.408C202.431 35.5413 205.063 33.2453 207.303 30.52C209.543 27.7573 211.074 24.7147 211.895 21.392C210.887 20.944 209.935 20.72 209.039 20.72C207.285 20.72 205.717 21.504 204.335 23.072C202.954 24.64 201.853 26.6933 201.031 29.232C200.21 31.7707 199.669 34.496 199.407 37.408Z" fill="#1E1E1E"/>
<path d="M239.01 45.192C238.002 45.192 236.901 44.8747 235.706 44.24C234.512 43.568 233.485 42.8027 232.626 41.944C231.768 41.048 231.338 40.3013 231.338 39.704C231.338 38.9947 231.488 38.08 231.786 36.96C232.085 35.8027 232.533 34.3093 233.13 32.48C233.728 30.576 234.176 29.064 234.474 27.944C234.773 26.7867 234.922 25.8533 234.922 25.144C234.922 24.8453 234.754 24.528 234.418 24.192C234.082 23.856 233.56 23.408 232.85 22.848C232.029 22.176 231.432 21.6533 231.058 21.28C230.685 20.9067 230.498 20.5333 230.498 20.16C230.498 19.376 230.872 18.4613 231.618 17.416C232.365 16.3707 233.242 15.4747 234.25 14.728C235.258 13.9813 236.117 13.608 236.826 13.608C237.61 13.608 238.506 13.9627 239.514 14.672C240.522 15.3813 241.4 16.2027 242.146 17.136C242.893 18.032 243.266 18.7227 243.266 19.208C243.266 20.6267 242.986 22.4933 242.426 24.808L243.098 25.144C243.957 23.7627 244.89 22.12 245.898 20.216C246.944 18.2747 247.578 17.08 247.802 16.632L248.866 14.616C251.442 14.5413 253.365 15.008 254.634 16.016C255.904 17.024 256.538 18.368 256.538 20.048C256.538 21.6907 255.997 23.3333 254.914 24.976C252.226 25.872 249.93 26.768 248.026 27.664C246.16 28.5227 244.274 29.5493 242.37 30.744C242.258 34.888 241.922 38.3413 241.362 41.104C240.84 43.8293 240.056 45.192 239.01 45.192Z" fill="#1E1E1E"/>
<path d="M271.132 23.184C269.9 28.8213 269.097 33.4133 268.724 36.96C271.113 35.8027 273.036 34.608 274.492 33.376C276.135 33.936 277.348 34.72 278.132 35.728C278.953 36.6987 279.364 37.8187 279.364 39.088C279.364 39.984 278.729 40.9173 277.46 41.888C276.191 42.8213 274.679 43.6053 272.924 44.24C271.169 44.8747 269.676 45.192 268.444 45.192C267.361 45.192 266.148 44.8747 264.804 44.24C263.497 43.568 262.377 42.8027 261.444 41.944C260.511 41.048 260.044 40.2827 260.044 39.648C260.044 39.1253 260.231 38.0053 260.604 36.288C261.015 34.5333 261.369 33.04 261.668 31.808C262.004 30.5387 262.247 29.6053 262.396 29.008L263.74 23.632L260.324 23.856C259.689 23.5573 259.204 23.0907 258.868 22.456C258.532 21.8213 258.364 21.0933 258.364 20.272C258.364 18.7787 258.905 17.5093 259.988 16.464C261.332 16.5387 262.975 16.6133 264.916 16.688C264.916 14.2987 265.177 11.6667 265.7 8.79199C266.223 5.87999 266.801 4.42399 267.436 4.42399C268.22 4.42399 269.209 4.75999 270.404 5.43199C271.599 6.10399 272.644 6.88799 273.54 7.78399C274.436 8.67999 274.884 9.46399 274.884 10.136C274.884 10.9947 274.716 11.872 274.38 12.768C274.081 13.6267 273.577 14.8213 272.868 16.352C273.503 16.2773 275.108 16.016 277.684 15.568L278.972 15.344C279.644 15.7173 280.148 16.2587 280.484 16.968C280.857 17.6773 281.044 18.4427 281.044 19.264C281.044 19.936 280.913 20.5893 280.652 21.224C280.391 21.8587 279.999 22.4 279.476 22.848L271.132 23.184Z" fill="#1E1E1E"/>
<path d="M303.309 36.232C300.995 38.0987 298.587 39.76 296.085 41.216C293.584 42.672 291.661 43.4 290.317 43.4C289.757 43.4 289.011 43.1013 288.077 42.504C287.181 41.8693 286.379 41.1227 285.669 40.264C284.997 39.4053 284.661 38.6213 284.661 37.912C284.661 37.24 284.811 36.3627 285.109 35.28C285.445 34.1973 285.968 32.6293 286.677 30.576C287.723 27.664 288.245 25.8533 288.245 25.144C288.245 24.8453 288.059 24.528 287.685 24.192C287.349 23.8187 286.827 23.3707 286.117 22.848C285.296 22.2133 284.68 21.7093 284.269 21.336C283.896 20.9627 283.709 20.5707 283.709 20.16C283.709 19.376 284.064 18.4613 284.773 17.416C285.52 16.3707 286.379 15.4747 287.349 14.728C288.357 13.9813 289.216 13.608 289.925 13.608C290.709 13.608 291.605 13.9627 292.613 14.672C293.659 15.3813 294.555 16.2027 295.301 17.136C296.085 18.032 296.477 18.7227 296.477 19.208C296.477 21.2987 296.179 23.8 295.581 26.712C295.021 29.5867 294.2 32.536 293.117 35.56C296.141 33.992 299.165 31.976 302.189 29.512C302.675 24.7333 303.141 21.1493 303.589 18.76C304.037 16.3333 304.672 15.12 305.493 15.12C306.053 15.12 306.893 15.512 308.013 16.296C309.171 17.0427 310.197 17.9013 311.093 18.872C312.027 19.8053 312.493 20.5333 312.493 21.056C312.493 21.84 311.915 25.4053 310.757 31.752C309.6 38.0613 308.387 44.128 307.117 49.952C305.848 55.8133 304.933 59.192 304.373 60.088C303.552 61.432 302.208 62.608 300.341 63.616C298.475 64.624 296.664 65.128 294.909 65.128C293.416 65.128 291.811 64.624 290.093 63.616C288.413 62.608 286.995 61.3573 285.837 59.864C284.717 58.408 284.157 57.064 284.157 55.832C284.157 54.1893 286.024 51.7813 289.757 48.608C293.491 45.472 298.344 41.8507 304.317 37.744L303.309 36.232ZM302.413 45.36C295.843 50.512 292.557 54.096 292.557 56.112C292.557 56.8213 292.931 57.4747 293.677 58.072C294.424 58.6693 295.357 59.0613 296.477 59.248C297.709 57.4933 298.736 55.5893 299.557 53.536C300.416 51.52 301.368 48.7947 302.413 45.36Z" fill="#1E1E1E"/>
<path d="M30.4028 31.248C30.4402 31.8453 30.5708 33.3573 30.7948 35.784C31.0562 38.1733 31.1868 40.1707 31.1868 41.776C31.1868 43.8667 30.9442 44.9867 30.4588 45.136C30.3095 45.1733 30.0668 45.192 29.7308 45.192C28.9095 45.192 27.8828 45.0053 26.6508 44.632C25.4562 44.2213 24.3735 43.7173 23.4028 43.12C22.4695 42.5227 21.9282 41.944 21.7788 41.384C21.6295 40.824 21.5548 38.472 21.5548 34.328C17.5228 34.8133 14.8722 35.112 13.6028 35.224C12.5948 38.1733 11.4375 41.4027 10.1308 44.912C9.12284 45.136 8.1895 45.248 7.33084 45.248C5.8375 45.248 4.56817 44.8933 3.52284 44.184C2.51484 43.4373 1.84284 42.3173 1.50684 40.824L2.62684 38.304C6.7335 29.1573 10.2802 21.4853 13.2668 15.288C16.2908 9.09066 18.2508 5.99199 19.1468 5.99199C19.8562 5.99199 20.8828 6.25333 22.2268 6.77599C23.6082 7.29866 24.8402 7.93332 25.9228 8.67999C27.0428 9.42666 27.6775 10.0987 27.8268 10.696C28.0882 11.7413 28.4428 13.9253 28.8908 17.248C29.3388 20.5707 29.6935 23.7813 29.9548 26.88L30.4028 31.248ZM21.3868 14.728C19.7442 18.6107 18.1202 22.7733 16.5148 27.216C18.2322 27.104 19.9308 26.936 21.6108 26.712C21.6108 21.56 21.5362 17.5653 21.3868 14.728Z" stroke="white" stroke-width="2" mask="url(#path-1-outside-1_66_123)"/>
<path d="M44.608 45.192C43.6 45.192 42.48 44.912 41.248 44.352C40.016 43.792 38.9707 43.12 38.112 42.336C37.2907 41.552 36.88 40.8613 36.88 40.264C36.88 39.592 37.104 38.584 37.552 37.24C38.0374 35.8587 38.728 34.0293 39.624 31.752L41.08 27.888L36.88 28.56C36.2454 28.224 35.7414 27.72 35.368 27.048C34.9947 26.376 34.808 25.648 34.808 24.864C34.808 24.1547 34.9387 23.4827 35.2 22.848C35.4987 22.176 35.928 21.616 36.488 21.168C37.384 21.2053 38.784 21.1867 40.688 21.112L42.536 21.056C41.9387 16.5013 41.64 13.0293 41.64 10.64C41.64 8.95999 41.7707 7.67199 42.032 6.77599C42.256 6.10399 42.8347 5.37599 43.768 4.59199C44.7387 3.80799 45.84 3.15466 47.072 2.63199C48.3414 2.07199 49.536 1.79199 50.656 1.79199C52.5974 1.79199 54.3894 2.20266 56.032 3.02399C57.712 3.80799 59.0374 4.85333 60.008 6.15999C60.9787 7.42933 61.464 8.71732 61.464 10.024C61.464 11.4427 60.96 12.6 59.952 13.496C58.944 14.3547 57.6374 14.784 56.032 14.784C55.4347 14.784 54.7067 14.6907 53.848 14.504C53.4374 11.816 52.4667 9.81866 50.936 8.51199C50.3387 10.8267 49.872 12.824 49.536 14.504C49.2374 16.184 49.0694 18.1813 49.032 20.496C50.9734 20.2347 53.456 19.7493 56.48 19.04C57.152 19.5253 57.656 20.1227 57.992 20.832C58.3654 21.504 58.552 22.232 58.552 23.016C58.552 24.2107 58.1227 25.3867 57.264 26.544C56.5174 26.6187 55.3974 26.6933 53.904 26.768L48.192 27.216C47.968 28.9333 47.8187 30.3333 47.744 31.416C47.2587 36.0453 46.792 39.4987 46.344 41.776C45.9334 44.0533 45.3547 45.192 44.608 45.192Z" stroke="white" stroke-width="2" mask="url(#path-1-outside-1_66_123)"/>
<path d="M73.9288 23.184C72.6968 28.8213 71.8942 33.4133 71.5208 36.96C73.9102 35.8027 75.8328 34.608 77.2888 33.376C78.9315 33.936 80.1448 34.72 80.9288 35.728C81.7502 36.6987 82.1608 37.8187 82.1608 39.088C82.1608 39.984 81.5262 40.9173 80.2568 41.888C78.9875 42.8213 77.4755 43.6053 75.7208 44.24C73.9662 44.8747 72.4728 45.192 71.2408 45.192C70.1582 45.192 68.9448 44.8747 67.6008 44.24C66.2942 43.568 65.1742 42.8027 64.2408 41.944C63.3075 41.048 62.8408 40.2827 62.8408 39.648C62.8408 39.1253 63.0275 38.0053 63.4008 36.288C63.8115 34.5333 64.1662 33.04 64.4648 31.808C64.8008 30.5387 65.0435 29.6053 65.1928 29.008L66.5368 23.632L63.1208 23.856C62.4862 23.5573 62.0008 23.0907 61.6648 22.456C61.3288 21.8213 61.1608 21.0933 61.1608 20.272C61.1608 18.7787 61.7022 17.5093 62.7848 16.464C64.1288 16.5387 65.7715 16.6133 67.7128 16.688C67.7128 14.2987 67.9742 11.6667 68.4968 8.79199C69.0195 5.87999 69.5982 4.42399 70.2328 4.42399C71.0168 4.42399 72.0062 4.75999 73.2008 5.43199C74.3955 6.10399 75.4408 6.88799 76.3368 7.78399C77.2328 8.67999 77.6808 9.46399 77.6808 10.136C77.6808 10.9947 77.5128 11.872 77.1768 12.768C76.8782 13.6267 76.3742 14.8213 75.6648 16.352C76.2995 16.2773 77.9048 16.016 80.4808 15.568L81.7688 15.344C82.4408 15.7173 82.9448 16.2587 83.2808 16.968C83.6542 17.6773 83.8408 18.4427 83.8408 19.264C83.8408 19.936 83.7102 20.5893 83.4488 21.224C83.1875 21.8587 82.7955 22.4 82.2728 22.848L73.9288 23.184Z" stroke="white" stroke-width="2" mask="url(#path-1-outside-1_66_123)"/>
<path d="M98.0981 45.192C96.3061 45.192 94.4394 44.6133 92.4981 43.456C90.5568 42.2613 88.9514 40.8053 87.6821 39.088C86.4128 37.3707 85.7781 35.7467 85.7781 34.216C85.7781 31.4907 86.4128 28.504 87.6821 25.256C88.9888 22.008 90.7808 19.264 93.0581 17.024C95.3354 14.7467 97.9114 13.608 100.786 13.608C102.839 13.608 104.687 14.056 106.33 14.952C108.01 15.848 109.317 16.968 110.25 18.312C111.183 19.656 111.65 20.9627 111.65 22.232C111.65 23.8 110.941 25.3493 109.522 26.88C108.103 28.3733 106.125 29.6987 103.586 30.856C101.047 31.976 98.1541 32.7787 94.9061 33.264C94.8688 33.712 94.8501 34.384 94.8501 35.28C94.8501 36.4 94.8874 37.24 94.9621 37.8C96.8288 37.6133 98.6768 37.1093 100.506 36.288C102.335 35.4667 104.333 34.3093 106.498 32.816C107.954 33.264 109.055 33.9733 109.802 34.944C110.549 35.9147 110.922 37.072 110.922 38.416C110.922 39.536 110.231 40.6373 108.85 41.72C107.506 42.7653 105.826 43.6053 103.81 44.24C101.794 44.8747 99.8901 45.192 98.0981 45.192ZM95.7461 29.064C98.0234 28.2427 99.9274 27.1973 101.458 25.928C102.989 24.6587 103.754 23.576 103.754 22.68C103.754 21.6347 103.026 20.9253 101.57 20.552C100.151 21.5973 98.9381 22.848 97.9301 24.304C96.9594 25.76 96.2314 27.3467 95.7461 29.064Z" stroke="white" stroke-width="2" mask="url(#path-1-outside-1_66_123)"/>
<path d="M124.112 45.192C123.104 45.192 122.003 44.8747 120.808 44.24C119.613 43.568 118.587 42.8027 117.728 41.944C116.869 41.048 116.44 40.3013 116.44 39.704C116.44 38.9947 116.589 38.08 116.888 36.96C117.187 35.8027 117.635 34.3093 118.232 32.48C118.829 30.576 119.277 29.064 119.576 27.944C119.875 26.7867 120.024 25.8533 120.024 25.144C120.024 24.8453 119.856 24.528 119.52 24.192C119.184 23.856 118.661 23.408 117.952 22.848C117.131 22.176 116.533 21.6533 116.16 21.28C115.787 20.9067 115.6 20.5333 115.6 20.16C115.6 19.376 115.973 18.4613 116.72 17.416C117.467 16.3707 118.344 15.4747 119.352 14.728C120.36 13.9813 121.219 13.608 121.928 13.608C122.712 13.608 123.608 13.9627 124.616 14.672C125.624 15.3813 126.501 16.2027 127.248 17.136C127.995 18.032 128.368 18.7227 128.368 19.208C128.368 20.6267 128.088 22.4933 127.528 24.808L128.2 25.144C129.059 23.7627 129.992 22.12 131 20.216C132.045 18.2747 132.68 17.08 132.904 16.632L133.968 14.616C136.544 14.5413 138.466 15.008 139.736 16.016C141.005 17.024 141.64 18.368 141.64 20.048C141.64 21.6907 141.098 23.3333 140.016 24.976C137.328 25.872 135.032 26.768 133.128 27.664C131.261 28.5227 129.376 29.5493 127.472 30.744C127.36 34.888 127.024 38.3413 126.464 41.104C125.941 43.8293 125.157 45.192 124.112 45.192Z" stroke="white" stroke-width="2" mask="url(#path-1-outside-1_66_123)"/>
<path d="M168.691 45.192C167.833 45.192 166.806 44.8747 165.611 44.24C164.454 43.6053 163.427 42.8587 162.531 42C161.673 41.1413 161.243 40.432 161.243 39.872C161.243 38.9013 162.158 33.9547 163.987 25.032C164.211 23.9867 164.566 22.2133 165.051 19.712C165.574 17.1733 165.929 15.344 166.115 14.224L164.043 14.56C162.886 13.4773 162.307 12.1147 162.307 10.472C162.307 9.31466 162.625 8.11999 163.259 6.88799C166.283 6.10399 169.345 5.71199 172.443 5.71199C175.729 5.71199 178.771 6.14133 181.571 6.99999C184.409 7.85866 186.705 9.18399 188.459 10.976C190.214 12.7307 191.091 14.9333 191.091 17.584C191.091 19.936 190.307 22.176 188.739 24.304C187.209 26.3947 184.969 28.1307 182.019 29.512C179.07 30.8933 175.598 31.7333 171.603 32.032C171.342 33.824 171.137 35.448 170.987 36.904C170.651 39.7413 170.334 41.832 170.035 43.176C169.737 44.52 169.289 45.192 168.691 45.192ZM172.443 25.088C175.691 24.4533 178.193 23.4827 179.947 22.176C181.739 20.832 182.635 19.3387 182.635 17.696C182.635 16.576 182.075 15.6427 180.955 14.896C179.873 14.112 178.398 13.72 176.531 13.72C175.859 13.72 175.131 13.776 174.347 13.888L173.451 19.152C172.929 22.1013 172.593 24.08 172.443 25.088Z" stroke="white" stroke-width="2" mask="url(#path-1-outside-1_66_123)"/>
<path d="M216.599 36.96C218.877 35.84 220.799 34.6453 222.367 33.376C224.01 33.936 225.223 34.72 226.007 35.728C226.829 36.6987 227.239 37.8187 227.239 39.088C227.239 39.984 226.605 40.9173 225.335 41.888C224.066 42.8213 222.554 43.6053 220.799 44.24C219.045 44.8747 217.551 45.192 216.319 45.192C215.461 45.192 214.471 44.8747 213.351 44.24C212.269 43.6053 211.317 42.8587 210.495 42C209.711 41.1413 209.319 40.4693 209.319 39.984C209.319 39.6107 209.469 39.1067 209.767 38.472C210.103 37.8373 210.458 37.184 210.831 36.512C211.205 35.84 211.447 35.392 211.559 35.168L210.159 34.384C208.181 37.632 206.277 40.2453 204.447 42.224C202.655 44.2027 200.882 45.192 199.127 45.192C197.933 45.192 196.663 44.6693 195.319 43.624C194.013 42.5787 192.893 41.3093 191.959 39.816C191.063 38.3227 190.615 36.9973 190.615 35.84C190.615 32.5173 191.306 29.12 192.687 25.648C194.069 22.176 195.991 19.3013 198.455 17.024C200.957 14.7467 203.775 13.608 206.911 13.608C208.031 13.608 209.17 14.112 210.327 15.12C211.485 16.128 212.231 17.1547 212.567 18.2C212.754 17.3787 213.015 16.6693 213.351 16.072C213.725 15.4373 214.117 15.12 214.527 15.12C215.498 15.12 216.562 15.4747 217.719 16.184C218.914 16.856 219.922 17.6587 220.743 18.592C221.565 19.488 221.975 20.1973 221.975 20.72C221.938 21.4293 221.639 22.6053 221.079 24.248C220.557 25.8907 219.698 28.392 218.503 31.752C217.794 33.5813 217.159 35.3173 216.599 36.96ZM199.407 37.408C202.431 35.5413 205.063 33.2453 207.303 30.52C209.543 27.7573 211.074 24.7147 211.895 21.392C210.887 20.944 209.935 20.72 209.039 20.72C207.285 20.72 205.717 21.504 204.335 23.072C202.954 24.64 201.853 26.6933 201.031 29.232C200.21 31.7707 199.669 34.496 199.407 37.408Z" stroke="white" stroke-width="2" mask="url(#path-1-outside-1_66_123)"/>
<path d="M239.01 45.192C238.002 45.192 236.901 44.8747 235.706 44.24C234.512 43.568 233.485 42.8027 232.626 41.944C231.768 41.048 231.338 40.3013 231.338 39.704C231.338 38.9947 231.488 38.08 231.786 36.96C232.085 35.8027 232.533 34.3093 233.13 32.48C233.728 30.576 234.176 29.064 234.474 27.944C234.773 26.7867 234.922 25.8533 234.922 25.144C234.922 24.8453 234.754 24.528 234.418 24.192C234.082 23.856 233.56 23.408 232.85 22.848C232.029 22.176 231.432 21.6533 231.058 21.28C230.685 20.9067 230.498 20.5333 230.498 20.16C230.498 19.376 230.872 18.4613 231.618 17.416C232.365 16.3707 233.242 15.4747 234.25 14.728C235.258 13.9813 236.117 13.608 236.826 13.608C237.61 13.608 238.506 13.9627 239.514 14.672C240.522 15.3813 241.4 16.2027 242.146 17.136C242.893 18.032 243.266 18.7227 243.266 19.208C243.266 20.6267 242.986 22.4933 242.426 24.808L243.098 25.144C243.957 23.7627 244.89 22.12 245.898 20.216C246.944 18.2747 247.578 17.08 247.802 16.632L248.866 14.616C251.442 14.5413 253.365 15.008 254.634 16.016C255.904 17.024 256.538 18.368 256.538 20.048C256.538 21.6907 255.997 23.3333 254.914 24.976C252.226 25.872 249.93 26.768 248.026 27.664C246.16 28.5227 244.274 29.5493 242.37 30.744C242.258 34.888 241.922 38.3413 241.362 41.104C240.84 43.8293 240.056 45.192 239.01 45.192Z" stroke="white" stroke-width="2" mask="url(#path-1-outside-1_66_123)"/>
<path d="M271.132 23.184C269.9 28.8213 269.097 33.4133 268.724 36.96C271.113 35.8027 273.036 34.608 274.492 33.376C276.135 33.936 277.348 34.72 278.132 35.728C278.953 36.6987 279.364 37.8187 279.364 39.088C279.364 39.984 278.729 40.9173 277.46 41.888C276.191 42.8213 274.679 43.6053 272.924 44.24C271.169 44.8747 269.676 45.192 268.444 45.192C267.361 45.192 266.148 44.8747 264.804 44.24C263.497 43.568 262.377 42.8027 261.444 41.944C260.511 41.048 260.044 40.2827 260.044 39.648C260.044 39.1253 260.231 38.0053 260.604 36.288C261.015 34.5333 261.369 33.04 261.668 31.808C262.004 30.5387 262.247 29.6053 262.396 29.008L263.74 23.632L260.324 23.856C259.689 23.5573 259.204 23.0907 258.868 22.456C258.532 21.8213 258.364 21.0933 258.364 20.272C258.364 18.7787 258.905 17.5093 259.988 16.464C261.332 16.5387 262.975 16.6133 264.916 16.688C264.916 14.2987 265.177 11.6667 265.7 8.79199C266.223 5.87999 266.801 4.42399 267.436 4.42399C268.22 4.42399 269.209 4.75999 270.404 5.43199C271.599 6.10399 272.644 6.88799 273.54 7.78399C274.436 8.67999 274.884 9.46399 274.884 10.136C274.884 10.9947 274.716 11.872 274.38 12.768C274.081 13.6267 273.577 14.8213 272.868 16.352C273.503 16.2773 275.108 16.016 277.684 15.568L278.972 15.344C279.644 15.7173 280.148 16.2587 280.484 16.968C280.857 17.6773 281.044 18.4427 281.044 19.264C281.044 19.936 280.913 20.5893 280.652 21.224C280.391 21.8587 279.999 22.4 279.476 22.848L271.132 23.184Z" stroke="white" stroke-width="2" mask="url(#path-1-outside-1_66_123)"/>
<path d="M303.309 36.232C300.995 38.0987 298.587 39.76 296.085 41.216C293.584 42.672 291.661 43.4 290.317 43.4C289.757 43.4 289.011 43.1013 288.077 42.504C287.181 41.8693 286.379 41.1227 285.669 40.264C284.997 39.4053 284.661 38.6213 284.661 37.912C284.661 37.24 284.811 36.3627 285.109 35.28C285.445 34.1973 285.968 32.6293 286.677 30.576C287.723 27.664 288.245 25.8533 288.245 25.144C288.245 24.8453 288.059 24.528 287.685 24.192C287.349 23.8187 286.827 23.3707 286.117 22.848C285.296 22.2133 284.68 21.7093 284.269 21.336C283.896 20.9627 283.709 20.5707 283.709 20.16C283.709 19.376 284.064 18.4613 284.773 17.416C285.52 16.3707 286.379 15.4747 287.349 14.728C288.357 13.9813 289.216 13.608 289.925 13.608C290.709 13.608 291.605 13.9627 292.613 14.672C293.659 15.3813 294.555 16.2027 295.301 17.136C296.085 18.032 296.477 18.7227 296.477 19.208C296.477 21.2987 296.179 23.8 295.581 26.712C295.021 29.5867 294.2 32.536 293.117 35.56C296.141 33.992 299.165 31.976 302.189 29.512C302.675 24.7333 303.141 21.1493 303.589 18.76C304.037 16.3333 304.672 15.12 305.493 15.12C306.053 15.12 306.893 15.512 308.013 16.296C309.171 17.0427 310.197 17.9013 311.093 18.872C312.027 19.8053 312.493 20.5333 312.493 21.056C312.493 21.84 311.915 25.4053 310.757 31.752C309.6 38.0613 308.387 44.128 307.117 49.952C305.848 55.8133 304.933 59.192 304.373 60.088C303.552 61.432 302.208 62.608 300.341 63.616C298.475 64.624 296.664 65.128 294.909 65.128C293.416 65.128 291.811 64.624 290.093 63.616C288.413 62.608 286.995 61.3573 285.837 59.864C284.717 58.408 284.157 57.064 284.157 55.832C284.157 54.1893 286.024 51.7813 289.757 48.608C293.491 45.472 298.344 41.8507 304.317 37.744L303.309 36.232ZM302.413 45.36C295.843 50.512 292.557 54.096 292.557 56.112C292.557 56.8213 292.931 57.4747 293.677 58.072C294.424 58.6693 295.357 59.0613 296.477 59.248C297.709 57.4933 298.736 55.5893 299.557 53.536C300.416 51.52 301.368 48.7947 302.413 45.36Z" stroke="white" stroke-width="2" mask="url(#path-1-outside-1_66_123)"/>
</svg>
