<svg width="95" height="101" viewBox="0 0 95 101" fill="none" xmlns="http://www.w3.org/2000/svg">
<path d="M5.30621 50.3469C5.30618 46.8462 7.15489 43.47 10.2152 40.2034C13.2705 36.9421 17.474 33.8539 22.0492 30.9333C25.8035 28.5367 29.7864 26.2662 33.5664 24.1113C34.3911 23.6412 35.2061 23.1766 36.007 22.7173C40.3118 20.249 44.2221 17.9291 46.9776 15.7632C49.8894 17.9495 53.8807 20.1266 58.2158 22.4062C58.919 22.776 59.6316 23.1487 60.3508 23.5248C64.2318 25.5543 68.3038 27.6837 72.1212 30.0013C76.6472 32.7492 80.7801 35.7413 83.7816 39.1072C86.7792 42.4688 88.6195 46.1693 88.6356 50.3491C88.6518 54.526 86.8821 58.0085 83.9678 61.0581C81.0447 64.117 76.9929 66.7144 72.5095 69.0979C69.3823 70.7604 66.0723 72.3053 62.8098 73.828C61.3927 74.4895 59.9846 75.1467 58.6042 75.8076C54.1973 77.9175 50.0765 80.0637 46.9557 82.4767C44.2009 80.5684 40.2904 78.5253 35.9867 76.3277C35.4812 76.0695 34.97 75.8091 34.4542 75.5464C30.41 73.4864 26.0875 71.2847 22.0335 68.9113C17.4597 66.2335 13.2593 63.355 10.2074 60.2443C7.15169 57.1299 5.30625 53.844 5.30621 50.3469Z" fill="#0057FF" stroke="black"/>
<path d="M18.8011 50.3469C18.801 43.1706 23.1061 36.6967 28.8814 30.8648C33.1747 26.5295 38.2119 22.6135 42.7731 19.0674C44.2373 17.9291 45.6524 16.829 46.9782 15.7653C48.7281 17.1044 50.5789 18.4358 52.4627 19.791C56.8073 22.9165 61.3279 26.1685 65.1937 29.9334C70.8042 35.3972 74.9224 41.8451 74.9552 50.3489C74.988 58.8418 71.0886 64.4337 65.5814 69.1579C62.8201 71.5267 59.6665 73.6664 56.4079 75.8411C56.1634 76.0042 55.9184 76.1676 55.6729 76.3312C52.7506 78.2791 49.7649 80.2692 46.9564 82.4746C45.742 81.6161 44.4529 80.731 43.1199 79.8158C38.4633 76.6187 33.2718 73.0544 28.8661 68.9743C23.0979 63.6324 18.8012 57.5146 18.8011 50.3469Z" fill="#0057FF" stroke="black"/>
<path d="M33.2072 50.7212C33.2072 43.4305 35.0401 37.8916 37.7265 32.5329C39.0734 29.8463 40.6327 27.2088 42.2892 24.4097L42.3176 24.3617C43.8398 21.7896 45.4408 19.0844 47.0162 16.1021C48.8745 18.9304 50.7258 21.3987 52.4748 23.7306C58.2947 31.4905 62.9824 37.7406 63.0325 50.7232C63.0656 59.2898 60.5072 64.5406 57.1805 69.0197C55.9665 70.6543 54.6571 72.1776 53.3217 73.7312C52.8111 74.3253 52.2966 74.9238 51.7823 75.5346C50.1158 77.5137 48.4678 79.603 47.0223 82.0285C45.8774 79.5939 44.5194 77.3679 43.1158 75.2168C42.5776 74.392 42.0351 73.5815 41.4952 72.775C40.4543 71.2202 39.4232 69.6798 38.4515 68.0789C35.519 63.2472 33.2073 57.9836 33.2072 50.7212Z" fill="#0057FF" stroke="black"/>
<rect x="33.2202" y="15.1406" width="28.8058" height="7.36653" fill="#0057FF" stroke="black"/>
<rect x="38.1879" y="82.0728" width="18.8705" height="7.36653" fill="#0057FF" stroke="black"/>
<rect x="33.2202" y="75.7979" width="28.8058" height="7.36653" fill="#0057FF" stroke="black"/>
<rect x="43.1555" y="89.3935" width="8.93526" height="7.36653" fill="#0057FF" stroke="black"/>
</svg>
