<svg width="498" height="297" viewBox="0 0 498 297" fill="none" xmlns="http://www.w3.org/2000/svg">
<path d="M74.8 30.4H164.4V45.5H74.8V30.4ZM127.6 36.5C133.3 58.7 145.5 77 166.9 85.3C163.3 88.5 158.4 94.9 156.1 99.1C132.4 88.2 120.6 67.7 112.9 39.9L127.6 36.5ZM111 4.5H127C126.5 37.4 126.3 78 83.8 99.1C81.5 95.1 77.1 89.9 72.8 86.7C112.9 68.5 110.6 33.3 111 4.5Z" fill="#1E1E1E"/>
<path d="M178.8 16.3L187.2 6C192.5 8.9 201.1 13.6 205.4 16.5L196.5 28C192.7 24.9 184.3 19.8 178.8 16.3ZM172.6 44.1L180.4 33.3C185.8 35.8 195 40.1 199.5 42.8L191.4 54.9C187.3 52 178.5 47.2 172.6 44.1ZM176.2 88.6C181.5 81.2 189 69.1 195.1 57.4L205.8 67.1C200.5 77.6 194.5 88.4 188.4 98.4L176.2 88.6ZM205.7 12.3H262.9V26.9H205.7V12.3ZM199.8 79.2H266.9V93.8H199.8V79.2ZM225.4 17.3H241.3V87.5H225.4V17.3Z" fill="#1E1E1E"/>
<path d="M275.6 8.7H363.9V22.6H275.6V8.7ZM294 55.2H349V68.6H294V55.2ZM295.3 28.9H357.9V75H343.1V42.3H295.3V28.9ZM284.6 28.9H299.4V50.9C299.4 65.9 296.7 87.5 282.2 100C280 97.1 274 91.6 270.8 89.7C283.5 78.9 284.6 62.9 284.6 50.7V28.9Z" fill="#1E1E1E"/>
<path d="M44.2851 210.6C39.5518 207.867 35.3518 204.467 31.6851 200.4C28.0184 196.333 25.0518 191.7 22.7851 186.5L22.3851 190.7C21.7184 197.167 21.0518 202 20.3851 205.2C19.7851 208.4 18.9184 210 17.7851 210C16.2518 210 14.4184 209.433 12.2851 208.3C10.2184 207.167 8.38511 205.833 6.78511 204.3C5.25177 202.767 4.48511 201.5 4.48511 200.5C4.48511 198.767 6.11844 189.933 9.38511 174C9.78511 172.133 10.4184 168.967 11.2851 164.5C12.2184 159.967 12.8518 156.7 13.1851 154.7L9.48511 155.3C7.41844 153.367 6.38511 150.933 6.38511 148C6.38511 145.933 6.95177 143.8 8.08511 141.6C13.4851 140.2 18.9518 139.5 24.4851 139.5C30.3518 139.5 35.7851 140.267 40.7851 141.8C45.8518 143.333 49.9518 145.7 53.0851 148.9C56.2184 152.033 57.7851 155.967 57.7851 160.7C57.7851 166.233 55.6184 171 51.2851 175C46.9518 178.933 40.5851 181.567 32.1851 182.9C35.5184 186.033 38.8518 188.567 42.1851 190.5C45.5851 192.367 49.8518 194.167 54.9851 195.9C55.2518 196.967 55.3851 198.133 55.3851 199.4C55.3851 202.467 54.4518 205 52.5851 207C50.7184 209 47.9518 210.2 44.2851 210.6ZM24.6851 173.2C29.9518 172.667 34.2518 171.267 37.5851 169C40.9851 166.733 42.6851 164.033 42.6851 160.9C42.6851 158.9 41.6851 157.233 39.6851 155.9C37.7518 154.5 35.1184 153.8 31.7851 153.8C30.5851 153.8 29.2851 153.9 27.8851 154.1C26.8184 160.233 26.3184 163.167 26.3851 162.9C25.7851 166.167 25.2184 169.6 24.6851 173.2Z" fill="#1E1E1E"/>
<path d="M75.732 210C73.9987 210 72.0986 209.367 70.032 208.1C68.032 206.767 66.332 205.267 64.932 203.6C63.532 201.867 62.832 200.467 62.832 199.4C62.832 198.333 63.132 196.8 63.732 194.8C64.3986 192.8 65.0653 190.8 65.732 188.8C66.4653 186.8 66.932 185.533 67.132 185C67.9987 182.667 68.7653 180.467 69.432 178.4C70.1653 176.333 70.532 174.933 70.532 174.2C70.532 173.667 70.1986 173.1 69.532 172.5C68.932 171.833 67.9986 171.033 66.732 170.1C65.2653 168.967 64.1653 168.067 63.432 167.4C62.7653 166.733 62.432 166.033 62.432 165.3C62.432 163.9 63.0653 162.267 64.332 160.4C65.6653 158.533 67.1987 156.933 68.932 155.6C70.732 154.267 72.2653 153.6 73.532 153.6C74.932 153.6 76.532 154.233 78.332 155.5C80.1987 156.767 81.7987 158.233 83.132 159.9C84.532 161.5 85.232 162.733 85.232 163.6C85.232 167.733 84.532 172.7 83.132 178.5C81.732 184.3 79.932 190.067 77.732 195.8C82.132 192.133 86.0653 188.067 89.532 183.6C92.9987 179.133 95.432 175.133 96.832 171.6C96.9653 167.267 97.4653 163.633 98.332 160.7C99.2653 157.767 100.332 156.3 101.532 156.3C103.265 156.3 105.165 156.933 107.232 158.2C109.365 159.4 111.165 160.833 112.632 162.5C114.099 164.1 114.832 165.367 114.832 166.3C114.765 167.7 114.132 170.333 112.932 174.2C111.732 178 110.065 182.9 107.932 188.9C106.665 192.633 105.932 194.767 105.732 195.3C107.665 194.433 109.399 193.533 110.932 192.6C112.532 191.6 114.199 190.367 115.932 188.9C118.865 189.9 121.032 191.3 122.432 193.1C123.899 194.833 124.632 196.833 124.632 199.1C124.632 200.7 123.499 202.367 121.232 204.1C118.965 205.767 116.265 207.167 113.132 208.3C109.999 209.433 107.332 210 105.132 210C103.732 210 102.065 209.433 100.132 208.3C98.1987 207.1 96.4653 205.767 94.932 204.3C93.4653 202.767 92.732 201.633 92.732 200.9C92.732 200.167 92.9653 199.267 93.432 198.2C93.9653 197.133 94.532 196 95.132 194.8C95.7987 193.533 96.2987 192.633 96.632 192.1L94.132 190.7C90.4653 197.433 87.2987 202.333 84.632 205.4C82.032 208.467 79.0653 210 75.732 210Z" fill="#1E1E1E"/>
<path d="M160.901 157C164.567 157.067 167.867 157.767 170.801 159.1C173.734 160.433 176.034 162.267 177.701 164.6C179.434 166.933 180.301 169.567 180.301 172.5C180.301 177.567 178.801 183.067 175.801 189C172.801 194.867 168.767 199.833 163.701 203.9C158.701 207.967 153.367 210 147.701 210C144.767 210 141.867 209 139.001 207C136.134 205 133.767 202.633 131.901 199.9C130.034 197.167 129.101 194.867 129.101 193C129.101 188.6 130.567 181.3 133.501 171.1C134.767 166.9 135.934 161.1 137.001 153.7C138.067 146.3 138.634 140.9 138.701 137.5C138.767 136.1 139.234 134.933 140.101 134C141.034 133 142.134 132.5 143.401 132.5C145.201 132.5 147.201 133.2 149.401 134.6C151.667 135.933 153.567 137.533 155.101 139.4C156.701 141.2 157.501 142.733 157.501 144C157.434 147.2 155.934 152.6 153.001 160.2L160.901 157ZM147.701 197.4C150.101 197.4 152.534 196 155.001 193.2C157.534 190.4 159.601 187.067 161.201 183.2C162.867 179.333 163.701 176 163.701 173.2C163.701 172.467 163.101 171.7 161.901 170.9C160.701 170.1 159.267 169.433 157.601 168.9C156.001 168.3 154.567 168 153.301 168C152.567 168 151.967 168.133 151.501 168.4C150.434 169 149.401 170.567 148.401 173.1C147.401 175.567 146.567 178.433 145.901 181.7C145.301 184.967 145.001 187.933 145.001 190.6C145.001 192.667 145.201 194.333 145.601 195.6C146.067 196.8 146.767 197.4 147.701 197.4Z" fill="#1E1E1E"/>
<path d="M220.381 194C216.248 197.333 211.948 200.3 207.481 202.9C203.015 205.5 199.581 206.8 197.181 206.8C196.181 206.8 194.848 206.267 193.181 205.2C191.581 204.067 190.148 202.733 188.881 201.2C187.681 199.667 187.081 198.267 187.081 197C187.081 195.8 187.348 194.233 187.881 192.3C188.481 190.367 189.415 187.567 190.681 183.9C192.548 178.7 193.481 175.467 193.481 174.2C193.481 173.667 193.148 173.1 192.481 172.5C191.881 171.833 190.948 171.033 189.681 170.1C188.215 168.967 187.115 168.067 186.381 167.4C185.715 166.733 185.381 166.033 185.381 165.3C185.381 163.9 186.015 162.267 187.281 160.4C188.615 158.533 190.148 156.933 191.881 155.6C193.681 154.267 195.215 153.6 196.481 153.6C197.881 153.6 199.481 154.233 201.281 155.5C203.148 156.767 204.748 158.233 206.081 159.9C207.481 161.5 208.181 162.733 208.181 163.6C208.181 167.333 207.648 171.8 206.581 177C205.581 182.133 204.115 187.4 202.181 192.8C207.581 190 212.981 186.4 218.381 182C219.248 173.467 220.081 167.067 220.881 162.8C221.681 158.467 222.815 156.3 224.281 156.3C225.281 156.3 226.781 157 228.781 158.4C230.848 159.733 232.681 161.267 234.281 163C235.948 164.667 236.781 165.967 236.781 166.9C236.781 168.3 235.748 174.667 233.681 186C231.615 197.267 229.448 208.1 227.181 218.5C224.915 228.967 223.281 235 222.281 236.6C220.815 239 218.415 241.1 215.081 242.9C211.748 244.7 208.515 245.6 205.381 245.6C202.715 245.6 199.848 244.7 196.781 242.9C193.781 241.1 191.248 238.867 189.181 236.2C187.181 233.6 186.181 231.2 186.181 229C186.181 226.067 189.515 221.767 196.181 216.1C202.848 210.5 211.515 204.033 222.181 196.7L220.381 194ZM218.781 210.3C207.048 219.5 201.181 225.9 201.181 229.5C201.181 230.767 201.848 231.933 203.181 233C204.515 234.067 206.181 234.767 208.181 235.1C210.381 231.967 212.215 228.567 213.681 224.9C215.215 221.3 216.915 216.433 218.781 210.3Z" fill="#1E1E1E"/>
<path d="M248.715 202.6C266.915 202.1 294.615 201.1 319.415 200.1L318.915 213.4C294.815 214.8 268.715 216 250.615 216.8L248.715 202.6ZM248.415 173.5H331.715V187H248.415V173.5ZM266.615 154.2H313.015V167.5H266.615V154.2ZM271.215 182.4L287.915 186.9C283.215 196.2 278.015 205.9 273.815 212.2L261.115 208C264.915 200.9 269.115 190.5 271.215 182.4ZM296.715 192.5L309.615 185.8C318.415 193.4 327.515 203.7 332.115 211.3L318.515 219.5C314.515 211.9 305.115 200.5 296.715 192.5ZM289.815 138.6C281.715 149.6 266.615 161.9 250.215 169.5C248.515 166 244.615 160.4 241.615 157.3C258.715 150.1 274.315 136 281.515 124.7H296.915C307.615 139.4 322.615 149.9 338.515 155.1C334.915 158.8 331.715 164 329.115 168.4C314.315 161.6 297.915 149.5 289.815 138.6Z" fill="#1E1E1E"/>
<path d="M398.815 135.8H412.715V160.6H398.815V135.8ZM387.115 172.5H399.615V208.5C399.615 213.7 398.615 216.3 395.115 217.9C391.615 219.4 387.115 219.5 381.015 219.5C380.515 216.5 379.015 212.3 377.615 209.4C380.615 209.6 384.515 209.6 385.515 209.6C386.715 209.5 387.115 209.2 387.115 208.1V172.5ZM416.015 124.5L428.715 127.4C425.915 131.3 423.415 134.7 421.415 137.2L411.515 134.3C413.115 131.4 415.115 127.4 416.015 124.5ZM385.615 127.9L395.715 124.4C397.815 127.2 400.215 131.1 401.115 133.7L390.415 137.5C389.715 134.9 387.615 130.9 385.615 127.9ZM417.415 172.8L425.615 167.2C429.215 169.7 433.415 173.5 435.415 176.4L426.715 182.5C425.015 179.6 420.915 175.6 417.415 172.8ZM374.715 195.2C382.915 194.7 394.515 193.9 406.115 192.9L406.315 203.1C395.715 204.2 384.715 205.3 375.915 206.1L374.715 195.2ZM400.215 166.6L407.315 174.9C398.915 177.1 387.815 178.3 378.715 178.6C378.415 176.3 377.115 172.6 376.015 170.3C384.415 169.7 394.215 168.4 400.215 166.6ZM378.615 133.3H434.015V142.8H378.615V133.3ZM381.715 145H430.815V153.7H381.715V145ZM375.715 156.1H436.115V166.3H375.715V156.1ZM375.515 180.9H435.915V191.2H375.515V180.9ZM405.915 168.2H417.915C417.315 193.1 420.715 208.7 427.115 208.7C428.615 208.7 429.515 205.9 429.815 200.9C432.115 203.1 435.415 204.8 437.915 205.9C436.315 215.9 432.715 219.8 425.815 219.8C409.315 219.8 406.215 196.7 405.915 168.2ZM423.415 191.8L433.015 196.6C426.415 206.1 415.115 214 404.915 218.2C403.515 216.1 400.415 212.6 398.215 210.7C407.715 207 417.915 200.2 423.415 191.8ZM346.415 155.4H373.515V166.2H346.415V155.4ZM347.015 127.4H373.215V138.2H347.015V127.4ZM346.415 169.2H373.515V180H346.415V169.2ZM342.215 141.1H376.015V152.4H342.215V141.1ZM353.015 183.3H373.315V214.2H353.015V203H361.815V194.5H353.015V183.3ZM346.015 183.3H357.215V218H346.015V183.3Z" fill="#1E1E1E"/>
<path fill-rule="evenodd" clip-rule="evenodd" d="M70.8 26.4H106.526C106.851 20.8861 106.898 15.3249 106.945 9.81242C106.96 8.01682 106.976 6.22639 107 4.44445L107.055 0.5H131.061L130.999 4.56078C130.992 5.03775 130.985 5.51703 130.978 5.99853C130.881 12.4787 130.779 19.3606 130.321 26.4H168.4V43.0835L179.088 28.2847L182.08 29.6701C187.398 32.132 196.831 36.5337 201.558 39.37L205.162 41.5325L197.001 53.7241L210.744 66.1827L209.371 68.9024C208.316 70.9928 207.233 73.0948 206.128 75.2H221.4V30.9H201.7V27.8165L197.151 33.6937L193.971 31.0995C191.144 28.7932 185.486 25.2363 180.411 22.0466C179.1 21.2221 177.827 20.4221 176.652 19.6746L172.856 17.2589L186.202 0.894413L189.404 2.64627C192.787 4.49738 197.556 7.10668 201.7 9.52466V8.3H266.9V30.9H245.3V75.2H270.9V84.0754C279.6 74.6806 280.6 61.8351 280.6 50.7V26.6H271.6V4.7H367.9V26.6H361.9V79H339.1V72.6H301.287C298.936 83.6395 294.161 94.9702 284.812 103.03L281.587 105.81L279.013 102.418C278.138 101.264 276.304 99.3593 274.186 97.4363C273.031 96.3871 271.895 95.4275 270.9 94.6515V97.8H195.8V93.8139C194.481 96.0671 193.15 98.2939 191.815 100.483L189.444 104.369L170.744 89.3481L172.948 86.2709C177.655 79.6988 184.198 69.241 189.872 58.7191L189.09 58.1657C185.246 55.4469 176.695 50.7702 170.739 47.641L168.4 46.4118V49.5H136.25C142.716 64.2154 153.078 75.6488 168.346 81.5707L174.452 83.9388L169.557 88.2896C166.347 91.1437 161.72 97.1652 159.608 101.021L157.817 104.292L154.429 102.734C138.525 95.4196 127.76 84.0431 120.012 69.5513C113.436 82.4859 102.813 94.1264 85.5787 102.683L82.2081 104.356L80.3323 101.094C78.2842 97.532 74.2401 92.7578 70.4119 89.9089L64.9716 85.8603L71.1468 83.0576C89.5897 74.687 98.319 62.7035 102.617 49.5H70.8V26.4ZM107.903 45.5C107.576 46.8426 107.213 48.1767 106.81 49.5C102.64 63.194 94.1592 75.7392 76.7918 84.7612C75.5102 85.427 74.1802 86.0736 72.8 86.7C73.921 87.5342 75.0487 88.5044 76.1443 89.5538C79.2514 92.5297 82.0996 96.1428 83.8 99.1C101.287 90.4182 111.613 78.4351 117.744 65.0454C118.507 63.3808 119.204 61.6944 119.843 59.9899C120.581 61.6916 121.349 63.3532 122.152 64.9738C129.693 80.1944 140.228 91.8001 156.1 99.1C157.795 96.004 160.904 91.7124 163.863 88.3885C164.918 87.2033 165.954 86.1411 166.9 85.3C165.528 84.7679 164.194 84.1947 162.897 83.582C148.074 76.5798 138.096 64.4194 131.903 49.5C131.358 48.1875 130.843 46.8536 130.355 45.5H164.4V30.4H125.998C126.114 29.0649 126.215 27.7311 126.304 26.4C126.707 20.329 126.844 14.3148 126.938 8.5C126.955 7.47924 126.97 6.46463 126.985 5.45693C126.99 5.13725 126.995 4.81826 127 4.5H111C110.976 6.24987 110.961 8.02337 110.947 9.81524C110.903 15.2242 110.858 20.8005 110.533 26.4C110.456 27.7327 110.363 29.0667 110.25 30.4H74.8V45.5H107.903ZM193.626 51.5741L199.5 42.8C198.523 42.2139 197.325 41.5523 195.992 40.8501C191.185 38.3179 184.628 35.2573 180.4 33.3L172.6 44.1C173.704 44.6799 174.909 45.3193 176.166 45.9946C180.744 48.4545 186.009 51.3909 189.555 53.6651C190.24 54.1041 190.861 54.5185 191.4 54.9L193.626 51.5751L193.626 51.5741ZM193.163 61.0432C187.47 71.5564 180.951 81.9666 176.2 88.6L188.4 98.4C189.097 97.258 189.792 96.1055 190.485 94.9442C192.277 91.9429 194.053 88.8828 195.8 85.7922C197.035 83.6067 198.255 81.406 199.455 79.2C199.57 78.9881 199.685 78.7761 199.8 78.5641C200.407 77.4434 201.009 76.3216 201.604 75.2C203.042 72.4926 204.444 69.7865 205.8 67.1L195.1 57.4C194.468 58.612 193.821 59.8283 193.163 61.0432ZM199.8 93.8H266.9V79.2H241.3V26.9H262.9V12.3H205.7V26.9H225.4V79.2H199.8V93.8ZM274.126 92.1071C276.289 93.8631 278.679 96.0821 280.439 97.9577C281.147 98.7114 281.752 99.4096 282.2 100C283.225 99.116 284.192 98.1866 285.102 97.2171C291.547 90.3566 295.197 81.4949 297.193 72.6C297.492 71.2652 297.755 69.9296 297.984 68.6H343.1V75H357.9V28.9H284.6V50.7C284.6 61.8686 283.678 76.2218 273.779 86.8547C272.893 87.8061 271.935 88.7277 270.9 89.6146C270.867 89.6431 270.833 89.6716 270.8 89.7C270.833 89.7196 270.866 89.7396 270.9 89.76C271.81 90.3114 272.933 91.1389 274.126 92.1071ZM299.4 51.2C299.396 52.4892 299.373 53.8258 299.324 55.2H343.1V42.3H299.4V50.9C299.4 50.9997 299.4 51.0997 299.4 51.2ZM303.4 46.3V50.9C303.4 50.9996 303.4 51.0996 303.4 51.2H339.1V46.3H303.4ZM201.7 14.1711C197.252 11.4998 191.395 8.29552 187.361 6.0882L187.2 6L178.8 16.3C179.848 16.9669 181.001 17.6919 182.208 18.4501C182.266 18.4864 182.324 18.5227 182.382 18.5592C186.788 21.3275 191.867 24.519 195.125 26.936C195.63 27.3107 196.092 27.6669 196.5 28L205.4 16.5C204.45 15.8594 203.291 15.1311 202.003 14.3536C201.903 14.2931 201.802 14.2322 201.7 14.1711ZM43.418 214.718L42.2848 214.064C37.1882 211.121 32.6609 207.456 28.7144 203.079C27.5561 201.794 26.4633 200.458 25.436 199.071C25.0668 201.826 24.6918 204.133 24.3091 205.977C23.9833 207.703 23.5258 209.369 22.8023 210.705C22.1221 211.961 20.5725 214 17.7851 214C15.326 214 12.8198 213.113 10.4085 211.832L10.385 211.82L10.3618 211.807C8.00725 210.516 5.88612 208.979 4.01749 207.188L3.98677 207.159L3.95668 207.128C3.05731 206.229 2.24563 205.275 1.63811 204.271C1.04644 203.294 0.485107 202 0.485107 200.5C0.485107 199.706 0.643064 198.521 0.838304 197.258C1.05114 195.881 1.36539 194.073 1.77678 191.848C2.60047 187.393 3.83152 181.172 5.46661 173.197L5.47018 173.179L5.4739 173.162C5.86493 171.337 6.49175 168.204 7.35834 163.738L7.36268 163.716L7.36728 163.693C7.68196 162.165 7.96103 160.788 8.20497 159.56L8.18673 159.563L6.75248 158.221C3.84458 155.501 2.38511 151.995 2.38511 148C2.38511 145.182 3.16123 142.424 4.52921 139.768L5.34882 138.177L7.08126 137.728C12.8064 136.244 18.6103 135.5 24.4851 135.5C30.6989 135.5 36.5298 136.312 41.951 137.974C47.5339 139.664 52.2494 142.335 55.9288 146.087C59.0837 149.248 60.9486 153.077 61.5605 157.418C62.9995 155.521 64.6432 153.853 66.4931 152.43L66.5219 152.407L66.5511 152.386C68.5713 150.889 70.9666 149.6 73.532 149.6C76.0939 149.6 78.4957 150.729 80.6057 152.209C82.7482 153.666 84.6208 155.373 86.1999 157.332C86.9758 158.224 87.6667 159.136 88.1857 160.051C88.6834 160.927 89.232 162.166 89.232 163.6C89.232 168.155 88.4648 173.454 87.0203 179.439C86.9176 179.864 86.8128 180.289 86.706 180.714C89.6398 176.883 91.6525 173.564 92.8601 170.741C93.0325 166.499 93.5553 162.75 94.4959 159.567L94.5077 159.527L94.5203 159.487C95.0396 157.855 95.696 156.286 96.597 155.047C97.4832 153.829 99.0977 152.3 101.532 152.3C104.217 152.3 106.82 153.267 109.258 154.75C111.704 156.135 113.836 157.821 115.608 159.827C116.442 160.74 117.187 161.683 117.744 162.646C118.281 163.573 118.832 164.838 118.832 166.3V166.395L118.827 166.49C118.733 168.479 117.93 171.59 116.752 175.386L116.749 175.395L116.746 175.405C115.828 178.312 114.647 181.834 113.207 185.966C113.254 185.926 113.301 185.886 113.348 185.846L115.078 184.383L117.223 185.114C120.445 186.212 123.235 187.846 125.239 190.212C125.688 185.271 127.221 178.464 129.657 169.994L129.664 169.97L129.671 169.945C130.854 166.023 131.987 160.448 133.042 153.129C134.106 145.747 134.64 140.556 134.702 137.422L134.703 137.366L134.705 137.31C134.812 135.068 135.595 132.974 137.17 131.278L137.177 131.271C138.799 129.533 140.93 128.5 143.401 128.5C146.209 128.5 148.937 129.574 151.489 131.188C154.075 132.718 156.308 134.584 158.142 136.8C159.861 138.746 161.501 141.216 161.501 144V144.042L161.5 144.083C161.451 146.44 160.814 149.5 159.7 153.171L160.156 152.986L160.973 153.001C165.111 153.076 168.961 153.87 172.456 155.459C175.936 157.041 178.813 159.287 180.934 162.245C181.175 162.57 181.402 162.9 181.617 163.236C182.022 161.436 182.907 159.723 183.971 158.154L183.998 158.114L184.026 158.075C185.577 155.904 187.382 154.014 189.442 152.43L189.471 152.407L189.5 152.386C191.52 150.889 193.916 149.6 196.481 149.6C199.043 149.6 201.445 150.729 203.555 152.209C205.697 153.666 207.57 155.373 209.149 157.332C209.925 158.225 210.616 159.136 211.135 160.051C211.633 160.927 212.181 162.166 212.181 163.6C212.181 167.685 211.601 172.429 210.504 177.785C210.105 179.831 209.635 181.894 209.096 183.973C210.916 182.723 212.742 181.375 214.574 179.927C215.382 172.187 216.172 166.214 216.948 162.07C217.373 159.773 217.943 157.684 218.787 156.071C219.557 154.599 221.242 152.3 224.281 152.3C225.628 152.3 226.872 152.745 227.848 153.2C228.862 153.674 229.925 154.322 231.013 155.08C233.303 156.564 235.358 158.279 237.166 160.228C238.086 161.153 238.906 162.103 239.524 163.066C240.111 163.982 240.781 165.317 240.781 166.9C240.781 168.003 240.447 170.332 239.955 173.366C239.432 176.587 238.651 181.042 237.616 186.718L237.616 186.722C235.542 198.027 233.367 208.902 231.091 219.347C229.951 224.607 228.96 228.808 228.117 231.92C227.697 233.474 227.301 234.801 226.931 235.873C226.592 236.858 226.186 237.893 225.686 238.7C223.744 241.871 220.723 244.399 216.982 246.42C213.186 248.469 209.303 249.6 205.381 249.6C201.803 249.6 198.239 248.394 194.756 246.35L194.74 246.34L194.723 246.33C191.314 244.284 188.401 241.724 186.02 238.65L186.015 238.645L186.011 238.639C183.725 235.668 182.181 232.422 182.181 229C182.181 226.157 183.714 223.454 185.52 221.124C187.426 218.666 190.157 215.971 193.591 213.052L193.6 213.045L193.608 213.037C194.498 212.29 195.421 211.529 196.378 210.754C194.452 210.535 192.596 209.575 191.025 208.569L190.946 208.518L190.869 208.464C188.977 207.124 187.285 205.549 185.797 203.748L185.764 203.707L185.731 203.665C184.26 201.786 183.081 199.528 183.081 197C183.081 195.281 183.451 193.318 184.025 191.236L184.042 191.175L184.061 191.114C184.68 189.119 185.63 186.271 186.9 182.594L186.908 182.571L186.916 182.549C187.837 179.985 188.505 177.966 188.938 176.466C189.123 175.825 189.246 175.34 189.328 174.986C188.952 174.61 188.31 174.058 187.308 173.32L187.272 173.293L187.235 173.265C186.033 172.336 185.02 171.521 184.225 170.833C184.276 171.382 184.301 171.937 184.301 172.5C184.301 178.358 182.568 184.48 179.37 190.805L179.366 190.813L179.362 190.821C176.111 197.179 171.723 202.587 166.215 207.011C160.608 211.569 154.408 214 147.701 214C143.802 214 140.119 212.657 136.712 210.281C133.47 208.019 130.753 205.311 128.598 202.156C128.468 201.966 128.341 201.776 128.216 201.585C127.411 203.943 125.553 205.831 123.662 207.277L123.632 207.3L123.602 207.323C120.975 209.254 117.922 210.821 114.493 212.062C111.124 213.28 107.97 214 105.132 214C102.715 214 100.323 213.049 98.1091 211.751L98.0655 211.725L98.0225 211.699C95.8706 210.363 93.9146 208.862 92.1671 207.191L92.1029 207.129L92.0414 207.065C91.3334 206.325 90.6865 205.575 90.1639 204.829C89.3036 206.019 88.4712 207.079 87.6664 208.006C84.4811 211.755 80.4746 214 75.732 214C73.023 214 70.3979 213.016 67.9417 211.51L67.8767 211.471L67.8132 211.428C65.53 209.906 63.5372 208.159 61.8692 206.173L61.8444 206.143L61.8202 206.113C60.8191 204.874 59.7842 203.378 59.2337 201.734C58.8315 204.748 57.6203 207.467 55.5093 209.729C52.7911 212.642 49.0043 214.109 44.7189 214.576L43.418 214.718ZM59.1733 196.473C59.3589 195.568 59.6099 194.62 59.9007 193.651L59.9181 193.593L61.956 187.479L61.9765 187.423C62.7053 185.435 63.1767 184.156 63.3842 183.602C64.2327 181.317 64.9792 179.175 65.6252 177.172L65.6429 177.117L65.6623 177.062C65.9749 176.181 66.197 175.484 66.3432 174.951C65.9632 174.576 65.3302 174.036 64.3592 173.32L64.3224 173.293L64.2862 173.265C62.7941 172.112 61.5941 171.135 60.7413 170.36L60.6709 170.296L60.6036 170.228C60.4018 170.027 60.2061 169.811 60.0203 169.583C58.7124 172.659 56.6905 175.454 53.9982 177.939L53.9859 177.951L53.9735 177.962C50.5423 181.076 46.1697 183.381 40.995 184.984C42.0548 185.732 43.107 186.409 44.1514 187.016C47.2762 188.727 51.296 190.432 56.2648 192.11L58.3356 192.809L58.8657 194.93C58.9922 195.436 59.0942 195.95 59.1733 196.473ZM36.0421 186.258C34.7564 185.228 33.4708 184.109 32.1851 182.9C33.9007 182.628 35.5314 182.301 37.0774 181.92C43.1009 180.437 47.8368 178.13 51.2851 175C55.6184 171 57.7851 166.233 57.7851 160.7C57.7851 155.967 56.2184 152.033 53.0851 148.9C49.9518 145.7 45.8518 143.333 40.7851 141.8C35.7851 140.267 30.3518 139.5 24.4851 139.5C18.9518 139.5 13.4851 140.2 8.08511 141.6C6.95177 143.8 6.38511 145.933 6.38511 148C6.38511 150.74 7.28668 153.044 9.08981 154.911C9.21709 155.043 9.34885 155.173 9.48511 155.3L13.1851 154.7C13.0108 155.746 12.7544 157.138 12.416 158.877C12.1073 160.463 11.7303 162.337 11.2851 164.5C10.4184 168.967 9.78511 172.133 9.38511 174C6.11844 189.933 4.48511 198.767 4.48511 200.5C4.48511 201.5 5.25177 202.767 6.78511 204.3C8.38511 205.833 10.2184 207.167 12.2851 208.3C14.4184 209.433 16.2518 210 17.7851 210C18.9184 210 19.7851 208.4 20.3851 205.2C20.937 202.551 21.4889 198.783 22.0408 193.895C22.1555 192.878 22.2703 191.813 22.3851 190.7L22.7851 186.5C23.4525 188.031 24.1807 189.513 24.9695 190.946C24.9734 190.953 24.9774 190.96 24.9814 190.968C25.3615 191.657 25.7557 192.336 26.1639 193.003C27.783 195.648 29.6234 198.113 31.6851 200.4C35.3518 204.467 39.5518 207.867 44.2851 210.6C47.9518 210.2 50.7184 209 52.5851 207C54.4518 205 55.3851 202.467 55.3851 199.4C55.3851 198.133 55.2518 196.967 54.9851 195.9C49.8518 194.167 45.5851 192.367 42.1851 190.5C40.1374 189.312 38.0897 187.898 36.0421 186.258ZM26.3803 162.899C26.3779 162.922 26.3795 162.923 26.3851 162.9C26.1473 164.195 25.9148 165.515 25.6874 166.863C25.5628 167.601 25.4398 168.347 25.3183 169.101C25.1023 170.443 24.8912 171.809 24.6851 173.2C26.139 173.053 27.5193 172.839 28.8259 172.56C32.2522 171.828 35.172 170.641 37.5851 169C40.9851 166.733 42.6851 164.033 42.6851 160.9C42.6851 158.9 41.6851 157.233 39.6851 155.9C37.7518 154.5 35.1184 153.8 31.7851 153.8C30.5851 153.8 29.2851 153.9 27.8851 154.1C27.5472 156.043 27.2662 157.665 27.042 158.966C27.3695 159.022 27.7112 159.125 28.0624 159.288C29.486 159.948 29.9843 161.162 30.0853 161.411C30.3503 162.063 30.3712 162.642 30.3728 162.688L30.3729 162.69C30.3821 162.854 30.379 162.982 30.3773 163.037C30.3735 163.158 30.365 163.25 30.3624 163.277C30.3587 163.317 30.3552 163.347 30.3534 163.362C30.3514 163.379 30.3498 163.391 30.3491 163.397L30.3508 163.386L30.3594 163.33C30.3669 163.282 30.3768 163.22 30.3896 163.142C30.4411 162.825 30.5284 162.304 30.6532 161.572C30.8117 160.642 31.0278 159.387 31.3016 157.806C31.4661 157.802 31.6272 157.8 31.7851 157.8C34.6008 157.8 36.3111 158.395 37.3391 159.14L37.4018 159.185L37.4663 159.228C38.6115 159.992 38.6851 160.52 38.6851 160.9C38.6851 162.298 38.0316 163.895 35.3663 165.672L35.351 165.682L35.3359 165.692C33.7569 166.766 31.8294 167.644 29.5057 168.28C29.7699 166.69 30.0411 165.137 30.3193 163.623L26.398 162.773C26.3886 162.835 26.3827 162.877 26.3803 162.899C26.3804 162.899 26.3803 162.899 26.3803 162.899ZM67.132 185C66.932 185.533 66.4653 186.8 65.732 188.8L63.732 194.8C63.132 196.8 62.832 198.333 62.832 199.4C62.832 200.467 63.532 201.867 64.932 203.6C66.0856 204.973 67.4429 206.234 69.0039 207.381C69.1946 207.521 69.3884 207.659 69.5851 207.796C69.7324 207.898 69.8813 208 70.032 208.1C72.0987 209.367 73.9986 210 75.732 210C79.0653 210 82.032 208.467 84.632 205.4C85.9133 203.926 87.3101 202.03 88.8224 199.709C89.3852 198.846 89.964 197.924 90.5588 196.943C90.5866 196.897 90.6144 196.851 90.6423 196.805C91.1439 195.976 91.6568 195.104 92.181 194.192C92.3088 193.969 92.4372 193.745 92.5664 193.517C92.5762 193.5 92.586 193.483 92.5959 193.465C93.0978 192.581 93.6098 191.659 94.132 190.7L96.632 192.1C96.3331 192.578 95.9003 193.351 95.3335 194.419C95.2681 194.542 95.201 194.669 95.132 194.8L93.432 198.2C92.9653 199.267 92.732 200.167 92.732 200.9C92.732 200.938 92.7339 200.977 92.7379 201.017C92.8098 201.752 93.5411 202.846 94.932 204.3C96.4653 205.767 98.1987 207.1 100.132 208.3C102.065 209.433 103.732 210 105.132 210C107.332 210 109.999 209.433 113.132 208.3C116.265 207.167 118.965 205.767 121.232 204.1C123.499 202.367 124.632 200.7 124.632 199.1C124.632 196.833 123.899 194.833 122.432 193.1C121.032 191.3 118.865 189.9 115.932 188.9C114.199 190.367 112.532 191.6 110.932 192.6C110.918 192.608 110.904 192.617 110.89 192.625C109.367 193.55 107.648 194.441 105.732 195.3C105.913 194.817 106.531 193.023 107.587 189.917C107.697 189.592 107.812 189.253 107.932 188.9C110.065 182.9 111.732 178 112.932 174.2C114.132 170.333 114.765 167.7 114.832 166.3C114.832 165.367 114.099 164.1 112.632 162.5C111.165 160.833 109.365 159.4 107.232 158.2C105.165 156.933 103.265 156.3 101.532 156.3C100.332 156.3 99.2653 157.767 98.332 160.7C97.4653 163.633 96.9653 167.267 96.832 171.6C95.432 175.133 92.9986 179.133 89.532 183.6C87.8199 185.806 85.9939 187.914 84.0541 189.925C82.0663 191.986 79.9589 193.944 77.732 195.8C78.7518 193.142 79.6857 190.477 80.5336 187.805C81.5149 184.713 82.381 181.611 83.132 178.5C84.532 172.7 85.232 167.733 85.232 163.6C85.232 162.733 84.532 161.5 83.132 159.9C81.7987 158.233 80.1987 156.767 78.332 155.5C76.532 154.233 74.932 153.6 73.532 153.6C72.2653 153.6 70.732 154.267 68.932 155.6C67.1987 156.933 65.6653 158.533 64.332 160.4C63.0653 162.267 62.432 163.9 62.432 165.3C62.432 166.033 62.7653 166.733 63.432 167.4C64.1653 168.067 65.2653 168.967 66.732 170.1C67.9986 171.033 68.932 171.833 69.532 172.5C70.1987 173.1 70.532 173.667 70.532 174.2C70.532 174.933 70.1653 176.333 69.432 178.4C68.7653 180.467 67.9986 182.667 67.132 185ZM163.701 203.9C168.767 199.833 172.801 194.867 175.801 189C178.801 183.067 180.301 177.567 180.301 172.5C180.301 169.567 179.434 166.933 177.701 164.6C176.034 162.267 173.734 160.433 170.801 159.1C167.867 157.767 164.567 157.067 160.901 157L153.001 160.2C153.701 158.385 154.32 156.696 154.857 155.133C156.569 150.147 157.45 146.436 157.501 144C157.501 142.733 156.701 141.2 155.101 139.4C153.567 137.533 151.667 135.933 149.401 134.6C147.201 133.2 145.201 132.5 143.401 132.5C142.134 132.5 141.034 133 140.101 134C139.234 134.933 138.767 136.1 138.701 137.5C138.634 140.9 138.067 146.3 137.001 153.7C135.934 161.1 134.767 166.9 133.501 171.1C130.567 181.3 129.101 188.6 129.101 193C129.101 194.867 130.034 197.167 131.901 199.9C133.767 202.633 136.134 205 139.001 207C141.867 209 144.767 210 147.701 210C153.367 210 158.701 207.967 163.701 203.9ZM157.601 168.9C159.267 169.433 160.701 170.1 161.901 170.9C163.101 171.7 163.701 172.467 163.701 173.2C163.701 176 162.867 179.333 161.201 183.2C159.601 187.067 157.534 190.4 155.001 193.2C152.534 196 150.101 197.4 147.701 197.4C146.767 197.4 146.067 196.8 145.601 195.6C145.201 194.333 145.001 192.667 145.001 190.6C145.001 187.933 145.301 184.967 145.901 181.7C146.567 178.433 147.401 175.567 148.401 173.1C149.401 170.567 150.434 169 151.501 168.4C151.967 168.133 152.567 168 153.301 168C154.567 168 156.001 168.3 157.601 168.9ZM149.828 182.461C149.266 185.529 149.001 188.236 149.001 190.6C149.001 191.563 149.051 192.354 149.131 192.992C149.879 192.605 150.835 191.878 151.999 190.556L152.017 190.536L152.035 190.516C154.229 188.091 156.061 185.159 157.505 181.671L157.516 181.644L157.527 181.617C158.836 178.581 159.484 176.134 159.654 174.21C158.825 173.661 157.752 173.148 156.382 172.71L156.288 172.68L156.196 172.645C154.978 172.188 154.069 172.021 153.423 172.002C153.379 172.061 153.326 172.135 153.265 172.227C152.952 172.702 152.561 173.455 152.121 174.569L152.115 174.586L152.108 174.603C151.223 176.784 150.456 179.394 149.828 182.461ZM204.171 204.682C205.203 204.178 206.306 203.584 207.481 202.9C210.818 200.958 214.062 198.811 217.213 196.459C218.267 195.672 219.311 194.862 220.345 194.029C220.357 194.019 220.369 194.01 220.381 194L222.181 196.7C222.181 196.7 222.181 196.7 222.181 196.7C217.474 199.936 213.157 203.003 209.229 205.902C208.218 206.648 207.233 207.382 206.274 208.106C202.513 210.942 199.149 213.607 196.181 216.1C189.515 221.767 186.181 226.067 186.181 229C186.181 231.2 187.181 233.6 189.181 236.2C191.248 238.867 193.781 241.1 196.781 242.9C199.848 244.7 202.715 245.6 205.381 245.6C208.515 245.6 211.748 244.7 215.081 242.9C218.415 241.1 220.815 239 222.281 236.6C223.281 235 224.915 228.967 227.181 218.5C229.448 208.1 231.615 197.267 233.681 186C235.748 174.667 236.781 168.3 236.781 166.9C236.781 165.967 235.948 164.667 234.281 163C232.681 161.267 230.848 159.733 228.781 158.4C226.781 157 225.281 156.3 224.281 156.3C222.815 156.3 221.681 158.467 220.881 162.8C220.081 167.067 219.248 173.467 218.381 182C214.721 184.982 211.061 187.597 207.401 189.844C205.661 190.913 203.921 191.898 202.181 192.8C202.855 190.918 203.472 189.053 204.032 187.203C205.08 183.746 205.93 180.344 206.581 177C207.648 171.8 208.181 167.333 208.181 163.6C208.181 162.733 207.481 161.5 206.081 159.9C204.748 158.233 203.148 156.767 201.281 155.5C199.481 154.233 197.881 153.6 196.481 153.6C195.215 153.6 193.681 154.267 191.881 155.6C190.148 156.933 188.615 158.533 187.281 160.4C186.015 162.267 185.381 163.9 185.381 165.3C185.381 166.033 185.715 166.733 186.381 167.4C187.115 168.067 188.215 168.967 189.681 170.1C190.948 171.033 191.881 171.833 192.481 172.5C193.148 173.1 193.481 173.667 193.481 174.2C193.481 175.467 192.548 178.7 190.681 183.9C189.415 187.567 188.481 190.367 187.881 192.3C187.348 194.233 187.081 195.8 187.081 197C187.081 198.267 187.681 199.667 188.881 201.2C190.148 202.733 191.581 204.067 193.181 205.2C194.848 206.267 196.181 206.8 197.181 206.8C198.95 206.8 201.28 206.094 204.171 204.682ZM209.984 223.373L210.001 223.333C210.041 223.238 210.082 223.143 210.122 223.046C209.544 223.623 209.013 224.175 208.53 224.703C207.17 226.187 206.27 227.38 205.731 228.299C205.382 228.894 205.254 229.255 205.208 229.419C205.277 229.509 205.417 229.666 205.68 229.877C205.913 230.063 206.178 230.239 206.481 230.4C207.818 228.209 208.981 225.881 209.967 223.414L209.984 223.373ZM208.181 235.1C206.181 234.767 204.515 234.067 203.181 233C201.848 231.933 201.181 230.767 201.181 229.5C201.181 226.535 205.162 221.67 213.123 214.905C214.827 213.457 216.713 211.922 218.781 210.3C218.012 212.829 217.27 215.143 216.557 217.241C215.541 220.231 214.582 222.784 213.681 224.9C212.215 228.567 210.381 231.967 208.181 235.1ZM244.16 198.724L248.605 198.602C252.47 198.495 256.765 198.367 261.371 198.22C262.39 195.878 263.375 193.431 264.273 191H244.415V169.5H245.677C243.892 166.423 240.992 162.408 238.74 160.082L234.676 155.882L240.063 153.613C256.421 146.726 271.383 133.158 278.141 122.551L279.32 120.7H298.951L300.149 122.346C309.996 135.875 323.671 145.667 338.215 150.775V137.1H343.015V123.4H377.215V129.3H381.741L379.417 125.814L397.163 119.665L398.915 122C400.443 124.038 402.225 126.757 403.533 129.3H409.628C410.696 127.168 411.68 124.971 412.195 123.314L413.293 119.775L435.476 124.841L432.275 129.3H438.015V146.8H434.815V152.1H440.115V170.3H435.464C436.737 171.597 437.864 172.905 438.708 174.129L440.961 177.396L439.915 178.13V195.2H438.858L436.3 198.882C436.011 199.298 435.714 199.711 435.41 200.12C436.738 200.933 438.188 201.65 439.526 202.239L442.352 203.482L441.865 206.532C441.024 211.788 439.566 216.169 436.852 219.246C433.945 222.542 430.099 223.8 425.815 223.8C420.71 223.8 416.456 221.993 413.11 218.724C410.868 219.934 408.626 220.998 406.438 221.899L403.406 223.147L401.587 220.419C401.305 219.996 400.928 219.491 400.492 218.944C399.467 220.037 398.214 220.882 396.778 221.538L396.734 221.558L396.69 221.577C392.288 223.464 386.888 223.5 381.015 223.5H377.626L377.069 220.158C376.971 219.567 376.821 218.904 376.633 218.2H361.215V222H342.015V179.3H342.415V156.828L341.382 157.889C338.386 160.968 335.598 165.334 333.113 169.5H335.715V191H320.904C326.844 197.135 332.233 203.77 335.537 209.229L337.612 212.657L316.95 225.115L314.975 221.363C314.389 220.249 313.67 219.036 312.842 217.753C290.555 219 267.328 220.065 250.791 220.796L247.135 220.958L244.16 198.724ZM310.187 213.894C311.762 213.807 313.334 213.719 314.9 213.63C315.467 214.455 316.001 215.262 316.498 216.045C316.81 216.538 317.107 217.022 317.388 217.495C317.8 218.188 318.177 218.857 318.515 219.5L332.115 211.3C331.468 210.232 330.733 209.111 329.922 207.951C328.093 205.335 325.879 202.523 323.433 199.688C322.391 198.48 321.307 197.268 320.193 196.065C318.599 194.345 316.944 192.644 315.261 191C313.847 189.618 312.414 188.277 310.982 187H331.715V173.5H248.415V187H269.88C269.464 188.311 269.01 189.65 268.529 191C267.685 193.362 266.754 195.755 265.781 198.077C265.201 199.463 264.605 200.823 264.004 202.137C262.478 202.187 260.983 202.235 259.521 202.28C257.165 202.354 254.897 202.423 252.735 202.486C251.35 202.526 250.008 202.564 248.715 202.6L250.615 216.8C256.925 216.521 264.208 216.194 272.039 215.826C272.234 215.817 272.429 215.808 272.625 215.798C273.851 215.741 275.09 215.682 276.341 215.622C287.113 215.109 298.738 214.526 310.187 213.894ZM307.304 187H287.864C287.269 188.177 286.666 189.361 286.058 190.542C285.979 190.695 285.901 190.847 285.822 191C284.691 193.194 283.544 195.379 282.401 197.506C281.655 198.896 280.91 200.261 280.172 201.588C281.712 201.533 283.265 201.478 284.83 201.421C289.605 201.249 294.482 201.069 299.372 200.884C301.116 200.818 302.861 200.751 304.605 200.684C303.428 199.365 302.231 198.07 301.033 196.818C300.592 196.356 300.15 195.901 299.71 195.452C298.704 194.429 297.703 193.441 296.715 192.5L307.304 187ZM290.925 191H290.318C290.245 191.143 290.172 191.286 290.099 191.429L290.925 191ZM289.998 191.627C289.02 193.535 288.024 195.45 287.024 197.339C289.867 197.236 292.742 197.13 295.629 197.022C295.069 196.467 294.511 195.925 293.956 195.397L289.998 191.627ZM259.034 169.5H262.615V167.435C261.434 168.143 260.239 168.832 259.034 169.5ZM262.615 162.742C263.971 161.89 265.306 161.014 266.615 160.117V167.5H313.015V159.328C314.335 160.207 315.67 161.061 317.015 161.887C321.035 164.357 325.133 166.571 329.115 168.4C331.015 165.185 333.235 161.542 335.698 158.37C336.511 157.322 337.351 156.326 338.215 155.413C338.314 155.307 338.414 155.203 338.515 155.1C338.415 155.067 338.315 155.034 338.215 155.001C336.944 154.58 335.679 154.125 334.421 153.636C320.058 148.057 306.692 138.132 296.915 124.7H281.515C274.857 135.148 261.019 147.99 245.453 155.559C244.184 156.175 242.904 156.757 241.615 157.3C242.476 158.19 243.411 159.285 244.347 160.478C246.672 163.442 249.003 167.005 250.215 169.5C251.356 168.971 252.491 168.42 253.617 167.847C253.682 167.815 253.746 167.782 253.811 167.749C256.817 166.214 259.764 164.532 262.615 162.742ZM274.529 154.2H305.852C304.152 152.891 302.508 151.554 300.937 150.2C297.732 147.437 294.836 144.606 292.407 141.811C291.47 140.733 290.603 139.661 289.815 138.6C289.026 139.671 288.172 140.754 287.256 141.844C284.926 144.616 282.202 147.431 279.169 150.2C277.692 151.548 276.142 152.885 274.529 154.2ZM284.972 150.2H294.961C293.119 148.465 291.406 146.713 289.853 144.964C288.361 146.707 286.728 148.459 284.972 150.2ZM346.415 166.2H373.515V155.4H346.415V166.2ZM376.015 152.4V141.1H342.215V152.4H376.015ZM375.715 156.1V166.3H436.115V156.1H412.715V153.7H430.815V145H412.715V142.8H434.015V133.3H424.411C424.975 132.545 425.561 131.75 426.167 130.921C426.552 130.394 426.945 129.853 427.345 129.3C427.793 128.682 428.25 128.048 428.715 127.4L416.015 124.5C415.573 125.922 414.868 127.608 414.074 129.3C413.857 129.763 413.633 130.227 413.406 130.686C413.22 131.062 413.033 131.434 412.845 131.8C412.802 131.885 412.758 131.969 412.715 132.053C412.494 132.48 412.274 132.897 412.059 133.3H400.969C400.788 132.831 400.567 132.327 400.312 131.8C400.042 131.242 399.736 130.658 399.404 130.063C399.263 129.81 399.117 129.556 398.968 129.3C397.969 127.594 396.802 125.85 395.715 124.4L385.615 127.9C385.913 128.347 386.213 128.816 386.511 129.3C386.928 129.979 387.341 130.686 387.734 131.399C388.083 132.033 388.418 132.672 388.727 133.3H378.615V142.8H398.815V145H381.715V153.7H398.815V156.1H375.715ZM373.215 127.4H347.015V138.2H373.215V127.4ZM417.85 172.503C417.851 172.42 417.851 172.337 417.852 172.254C417.852 172.236 417.852 172.218 417.852 172.2C417.856 171.573 417.864 170.94 417.873 170.3C417.884 169.608 417.898 168.908 417.915 168.2H405.915C405.922 168.903 405.931 169.603 405.942 170.3C405.947 170.574 405.951 170.847 405.956 171.12C405.963 171.481 405.97 171.841 405.977 172.2C405.985 172.59 405.994 172.979 406.004 173.367L400.215 166.6C397.825 167.317 394.833 167.954 391.567 168.5C390.127 168.741 388.633 168.963 387.115 169.167C385.794 169.344 384.455 169.507 383.115 169.655C382.154 169.761 381.194 169.859 380.24 169.949C379.323 170.036 378.413 170.115 377.515 170.187C377.458 170.191 377.402 170.196 377.345 170.2C376.898 170.235 376.455 170.269 376.015 170.3C376.511 171.337 377.047 172.659 377.515 174.009C377.536 174.07 377.557 174.132 377.578 174.194C377.893 175.116 378.172 176.045 378.382 176.9C378.533 177.515 378.648 178.092 378.715 178.6C380.138 178.553 381.611 178.484 383.115 178.393C384.428 178.313 385.766 178.216 387.115 178.102V180.9H375.515V191.2H387.115V194.382C385.747 194.479 384.411 194.571 383.115 194.659C381.587 194.762 380.116 194.859 378.711 194.949C378.238 194.98 377.772 195.01 377.315 195.038C376.7 195.077 376.099 195.115 375.515 195.151C375.245 195.168 374.978 195.184 374.715 195.2L375.915 206.099C376.375 206.057 376.842 206.015 377.315 205.972C377.491 205.956 377.669 205.939 377.847 205.923C379.093 205.808 380.377 205.687 381.692 205.562C382.162 205.518 382.637 205.472 383.115 205.427C384.423 205.301 385.758 205.172 387.115 205.04V208.1C387.115 208.544 387.05 208.857 386.893 209.08C386.662 209.41 386.231 209.54 385.515 209.6C384.988 209.6 383.659 209.6 382.08 209.571C382 209.569 381.92 209.568 381.84 209.566C380.478 209.539 378.956 209.489 377.615 209.4C377.699 209.575 377.784 209.754 377.869 209.938C378.367 211.016 378.869 212.239 379.327 213.494C380.086 215.573 380.722 217.742 381.015 219.5C387.115 219.5 391.615 219.4 395.115 217.9C396.283 217.366 397.173 216.721 397.84 215.904C398.459 215.147 398.886 214.242 399.166 213.142C399.271 212.727 399.356 212.285 399.422 211.812C400.036 212.409 400.679 213.075 401.309 213.761C401.78 214.273 402.243 214.797 402.681 215.313C403.58 216.369 404.374 217.389 404.915 218.2C406.745 217.446 408.611 216.574 410.478 215.594C411.65 214.979 412.822 214.322 413.987 213.626C414.823 214.777 415.741 215.782 416.751 216.629C419.198 218.68 422.182 219.8 425.815 219.8C432.715 219.8 436.315 215.9 437.915 205.9C436.605 205.324 435.076 204.583 433.586 203.692C433.349 203.55 433.113 203.404 432.879 203.255C431.776 202.551 430.718 201.764 429.815 200.9C429.701 202.79 429.502 204.366 429.217 205.595C428.98 206.619 428.683 207.402 428.327 207.925C428.103 208.254 427.856 208.481 427.585 208.6C427.436 208.667 427.279 208.7 427.115 208.7C425.805 208.7 424.621 208.047 423.571 206.794C424.09 206.353 424.602 205.905 425.106 205.45C425.593 205.01 426.072 204.563 426.542 204.11C427.623 203.068 428.657 201.993 429.633 200.889C429.941 200.541 430.244 200.189 430.54 199.835C431.131 199.128 431.698 198.41 432.238 197.682C432.503 197.324 432.762 196.963 433.015 196.6L423.415 191.8C423.273 192.016 423.129 192.231 422.981 192.445C422.332 193.385 421.626 194.304 420.868 195.2C420.471 195.67 420.06 196.134 419.636 196.591C419.545 196.139 419.457 195.675 419.373 195.2C419.161 194.002 418.97 192.732 418.801 191.392C418.793 191.328 418.785 191.264 418.778 191.2H435.915V180.9H428.997L435.415 176.4C435.372 176.337 435.328 176.274 435.282 176.211C434.639 175.309 433.795 174.327 432.83 173.327C431.85 172.313 430.746 171.282 429.602 170.3C428.282 169.167 426.91 168.099 425.615 167.2L417.85 172.503ZM422.029 176.9C421.977 176.848 421.923 176.796 421.87 176.744C421.44 176.324 421 175.907 420.556 175.499C419.654 174.671 418.736 173.875 417.848 173.15C417.847 173.244 417.847 173.339 417.847 173.433C417.846 174.613 417.854 175.769 417.872 176.9C417.881 177.438 417.892 177.969 417.905 178.495C417.925 179.311 417.951 180.113 417.981 180.9H425.626C425.518 180.758 425.406 180.614 425.291 180.469C424.376 179.32 423.245 178.097 422.029 176.9ZM406.111 176.9C406.1 176.587 406.089 176.273 406.078 175.958C406.07 175.712 406.062 175.465 406.055 175.218C405.261 175.411 404.446 175.595 403.615 175.771C403.384 175.82 403.153 175.868 402.92 175.915C402.641 175.972 402.361 176.028 402.08 176.083C401.271 176.241 400.448 176.391 399.615 176.534V180.9H406.29C406.262 180.367 406.235 179.831 406.21 179.292C406.174 178.501 406.141 177.704 406.111 176.9ZM399.615 191.2V193.441C400.447 193.374 401.283 193.306 402.121 193.237C402.53 193.203 402.94 193.169 403.351 193.135C403.439 193.127 403.527 193.12 403.615 193.112C404.447 193.043 405.281 192.972 406.115 192.9L406.315 203.1C405.951 203.138 405.587 203.175 405.223 203.213C404.98 203.238 404.738 203.263 404.496 203.288C404.202 203.319 403.909 203.349 403.615 203.379C402.283 203.517 400.948 203.654 399.615 203.79V208.5C399.615 208.698 399.613 208.893 399.61 209.084C399.605 209.453 399.593 209.809 399.575 210.151C400.459 209.782 401.346 209.387 402.233 208.967C402.555 208.815 402.877 208.659 403.199 208.5C403.337 208.431 403.476 208.362 403.615 208.293C404.321 207.938 405.025 207.568 405.725 207.183C405.913 207.079 406.1 206.975 406.288 206.869C406.42 206.795 406.551 206.721 406.683 206.645C407.737 206.042 408.781 205.406 409.805 204.738C409.634 204.185 409.471 203.619 409.314 203.041C409.103 202.267 408.905 201.471 408.719 200.654C408.324 198.925 407.981 197.103 407.685 195.2C407.566 194.438 407.455 193.663 407.35 192.876C407.277 192.323 407.207 191.765 407.141 191.2H399.615ZM373.315 183.3H346.015V218H357.215V214.2H373.315V183.3ZM357.215 194.5V203H361.815V194.5H357.215ZM373.515 180V169.2H346.415V180H373.515ZM317.015 166.555V169.5H322.301C320.542 168.577 318.775 167.592 317.015 166.555ZM275.6 8.7V22.6H363.9V8.7H275.6Z" fill="white"/>
<path d="M407.673 241.66C406.239 244.098 405.019 246.033 404.013 247.465C402.99 248.832 402.091 249.616 401.317 249.817C400.349 250.068 399.004 249.797 397.284 249.003C395.61 248.129 394.048 247.019 392.597 245.673C391.147 244.328 390.262 243.042 389.944 241.816C389.626 240.59 390.674 238.389 393.088 235.215C395.566 232.024 398.385 228.951 401.545 225.997C404.704 223.043 407.026 221.373 408.51 220.988C409.995 220.603 411.879 220.7 414.164 221.278C416.449 221.856 418.511 222.768 420.349 224.013C422.17 225.194 423.248 226.429 423.583 227.72C423.968 229.204 424.098 233.027 423.975 239.189C423.875 246.24 423.978 251.551 424.284 255.122C424.487 258.03 425.121 262.997 426.185 270.021C426.991 275.253 427.461 279.057 427.595 281.433C427.729 283.809 427.376 285.105 426.537 285.323C424.924 285.741 422.959 285.734 420.643 285.302C418.327 284.869 416.251 284.168 414.416 283.198C412.58 282.227 411.528 281.226 411.261 280.194C410.909 278.838 410.558 275.624 410.206 270.549C409.919 265.459 409.791 260.051 409.821 254.327C409.9 248.521 410.326 243.658 411.1 239.738L409.275 239.075L407.673 241.66Z" fill="white"/>
<path d="M458.901 276.93C453.997 278.202 449.592 276.486 445.686 271.783C441.845 267.062 438.886 260.701 436.811 252.699C435.339 247.02 434.512 241.312 434.333 235.573C434.136 229.77 434.658 224.745 435.899 220.497C437.203 216.233 439.249 213.499 442.036 212.294C443.341 211.749 444.703 211.292 446.123 210.924C450.705 209.736 455.563 209.613 460.697 210.554C465.831 211.495 470.251 213.138 473.958 215.483C477.666 217.827 479.854 220.29 480.523 222.871C482.431 230.228 482.748 237.825 481.475 245.662C480.266 253.483 477.658 260.289 473.65 266.08C469.625 271.807 464.709 275.424 458.901 276.93ZM456.298 264.898C461.18 261.153 464.552 255.698 466.414 248.535C468.275 241.372 468.624 234.084 467.459 226.673C465.459 225.332 463.147 224.519 460.525 224.235C457.968 223.934 454.629 223.939 450.508 224.25C448.547 232.886 448.804 241.979 451.281 251.53C452.503 256.24 454.175 260.697 456.298 264.898Z" fill="white"/>
<path fill-rule="evenodd" clip-rule="evenodd" d="M393.088 235.215C395.566 232.024 398.385 228.951 401.545 225.997C404.704 223.043 407.026 221.373 408.511 220.988C409.995 220.603 411.879 220.7 414.164 221.278C416.449 221.856 418.511 222.768 420.349 224.013C422.17 225.194 423.248 226.429 423.583 227.72C423.968 229.204 424.098 233.027 423.975 239.189C423.875 246.24 423.978 251.551 424.284 255.122C424.487 258.03 425.121 262.997 426.185 270.021C426.991 275.253 427.461 279.057 427.595 281.433C427.729 283.809 427.376 285.105 426.537 285.323C424.924 285.741 422.959 285.734 420.643 285.302C418.327 284.869 416.251 284.168 414.416 283.198C412.58 282.227 411.528 281.226 411.261 280.194C410.909 278.838 410.558 275.624 410.206 270.549C409.919 265.459 409.791 260.051 409.821 254.327C409.868 250.898 410.035 247.799 410.324 245.028C410.382 244.479 410.444 243.942 410.51 243.419C410.514 243.391 410.517 243.363 410.521 243.335C410.665 242.216 410.832 241.157 411.02 240.157C411.046 240.016 411.073 239.877 411.1 239.738L409.275 239.075L407.673 241.66C407.245 242.389 406.835 243.072 406.445 243.71C405.529 245.209 404.718 246.461 404.013 247.465C402.99 248.832 402.091 249.616 401.317 249.817C400.349 250.068 399.005 249.797 397.284 249.003C395.61 248.129 394.048 247.019 392.598 245.673C391.147 244.328 390.262 243.042 389.944 241.816C389.626 240.59 390.674 238.389 393.088 235.215ZM405.889 251.436C405.666 251.667 405.437 251.887 405.201 252.092C404.495 252.709 403.532 253.375 402.321 253.689C399.951 254.304 397.517 253.516 395.609 252.636L395.519 252.594L395.43 252.548C393.428 251.501 391.576 250.181 389.878 248.606C388.156 247.009 386.662 245.092 386.072 242.82C385.54 240.767 386.275 238.797 386.88 237.526C387.573 236.072 388.622 234.48 389.904 232.794L389.916 232.778L389.929 232.762C392.546 229.392 395.51 226.164 398.813 223.075C400.461 221.534 401.97 220.253 403.321 219.282C404.597 218.364 406.034 217.498 407.506 217.116C409.9 216.496 412.529 216.738 415.146 217.4C417.84 218.082 420.322 219.169 422.559 220.679C424.71 222.08 426.756 224.019 427.455 226.716C427.771 227.934 427.902 229.666 427.967 231.564C428.036 233.575 428.036 236.148 427.974 239.258C427.875 246.27 427.981 251.416 428.269 254.78L428.272 254.811L428.274 254.843C428.465 257.573 429.075 262.395 430.139 269.418C430.946 274.659 431.443 278.625 431.588 281.208C431.664 282.548 431.635 283.971 431.291 285.236C430.961 286.451 430.012 288.554 427.541 289.195C425.176 289.808 422.58 289.732 419.909 289.234C417.249 288.737 414.783 287.916 412.547 286.734C410.556 285.682 408.111 283.983 407.389 281.198C406.925 279.409 406.559 275.786 406.216 270.826L406.214 270.8L406.212 270.775C405.92 265.592 405.79 260.102 405.821 254.305L405.821 254.289L405.822 254.273C405.835 253.305 405.857 252.36 405.889 251.436ZM442.596 274.323L442.583 274.307C438.274 269.012 435.11 262.073 432.939 253.703C431.394 247.745 430.525 241.744 430.335 235.704C430.129 229.603 430.67 224.135 432.059 219.376L432.066 219.352L432.074 219.327C433.557 214.479 436.159 210.477 440.449 208.622L440.471 208.613L440.494 208.603C441.98 207.982 443.523 207.466 445.119 207.052C450.32 205.704 455.771 205.584 461.418 206.62C466.962 207.636 471.883 209.438 476.096 212.102C480.141 214.66 483.35 217.834 484.395 221.867C486.447 229.78 486.781 237.934 485.426 246.288C484.135 254.626 481.329 262.013 476.939 268.357L476.931 268.368L476.923 268.38C472.448 274.747 466.781 279.019 459.905 280.802C456.701 281.633 453.51 281.51 450.467 280.324C447.473 279.158 444.871 277.063 442.609 274.338L442.596 274.323ZM481.475 245.662C482.748 237.825 482.431 230.228 480.523 222.871C479.854 220.29 477.666 217.827 473.959 215.483C470.251 213.138 465.831 211.495 460.697 210.554C455.563 209.613 450.705 209.736 446.123 210.924C444.703 211.292 443.341 211.749 442.036 212.294C439.249 213.499 437.203 216.233 435.899 220.497C434.658 224.745 434.137 229.77 434.333 235.573C434.513 241.312 435.339 247.02 436.811 252.699C438.886 260.701 441.845 267.062 445.686 271.783C449.592 276.486 453.997 278.202 458.901 276.93C464.709 275.424 469.625 271.807 473.65 266.08C477.658 260.289 480.266 253.483 481.475 245.662ZM460.076 228.21L460.058 228.208C458.453 228.019 456.392 227.961 453.84 228.062C452.688 235.145 453.103 242.619 455.153 250.526C455.824 253.114 456.638 255.616 457.594 258.032C459.763 255.278 461.43 251.811 462.542 247.529C464.106 241.511 464.517 235.404 463.77 229.181C462.69 228.691 461.474 228.361 460.094 228.212L460.076 228.21ZM467.459 226.673C468.624 234.084 468.275 241.372 466.414 248.535C464.973 254.08 462.627 258.601 459.376 262.098C458.427 263.119 457.401 264.052 456.298 264.898C455.68 263.676 455.101 262.432 454.559 261.166C453.24 258.082 452.147 254.87 451.281 251.53C448.804 241.979 448.547 232.886 450.508 224.25C454.629 223.939 457.968 223.934 460.525 224.235C463.147 224.519 465.459 225.332 467.459 226.673Z" fill="#007938"/>
</svg>
