<svg width="125" height="74" viewBox="0 0 125 74" fill="none" xmlns="http://www.w3.org/2000/svg">
<ellipse cx="10.5" cy="8" rx="9.5" ry="8" fill="#1E1E1E"/>
<ellipse cx="43.9999" cy="11" rx="10" ry="8" transform="rotate(-20.082 43.9999 11)" fill="#1E1E1E"/>
<mask id="path-3-inside-1_71_151" fill="white">
<path fill-rule="evenodd" clip-rule="evenodd" d="M30.6767 47.8347C29.1559 47.9467 27.5902 48 25.9926 48C11.7116 48 0 43.743 0 31.3166C0 18.8902 5.72881 3 25.9926 3C44.0309 4.03872 51.289 17.4887 51.9498 29.4959H104.454C116.55 29.4959 124.5 43.4045 124.5 55.5C124.5 67.5955 116.55 73.2976 104.454 73.2976H49.0826C36.9871 73.2976 29.5 68.5955 29.5 56.5C29.5 53.6893 29.9043 50.7268 30.6767 47.8347Z"/>
</mask>
<path fill-rule="evenodd" clip-rule="evenodd" d="M30.6767 47.8347C29.1559 47.9467 27.5902 48 25.9926 48C11.7116 48 0 43.743 0 31.3166C0 18.8902 5.72881 3 25.9926 3C44.0309 4.03872 51.289 17.4887 51.9498 29.4959H104.454C116.55 29.4959 124.5 43.4045 124.5 55.5C124.5 67.5955 116.55 73.2976 104.454 73.2976H49.0826C36.9871 73.2976 29.5 68.5955 29.5 56.5C29.5 53.6893 29.9043 50.7268 30.6767 47.8347Z" fill="white"/>
<path d="M30.6767 47.8347L31.6429 48.0927L32.0057 46.7341L30.6033 46.8374L30.6767 47.8347ZM25.9926 3L26.05 2.00165L26.0213 2H25.9926V3ZM51.9498 29.4959L50.9513 29.5509L51.0033 30.4959H51.9498V29.4959ZM30.6033 46.8374C29.1092 46.9475 27.5681 47 25.9926 47V49C27.6122 49 29.2025 48.946 30.7502 48.832L30.6033 46.8374ZM25.9926 47C18.9217 47 12.6227 45.9412 8.12645 43.444C3.70374 40.9877 1 37.1365 1 31.3166H-1C-1 37.9231 2.15206 42.4136 7.15539 45.1924C12.0851 47.9303 18.7825 49 25.9926 49V47ZM1 31.3166C1 25.2317 2.40656 18.3817 6.20985 13.0814C9.97616 7.83269 16.1635 4 25.9926 4V2C15.5579 2 8.74894 6.11242 4.5849 11.9154C0.45785 17.6669 -1 24.9751 -1 31.3166H1ZM25.9351 3.99835C34.6899 4.50249 40.7518 8.00327 44.7188 12.7741C48.7057 17.5689 50.6301 23.7139 50.9513 29.5509L52.9483 29.441C52.6087 23.2707 50.5736 16.6871 46.2567 11.4954C41.9198 6.27979 35.3335 2.53624 26.05 2.00165L25.9351 3.99835ZM51.9498 30.4959H104.454V28.4959H51.9498V30.4959ZM104.454 30.4959C110.08 30.4959 114.819 33.7246 118.194 38.5364C121.572 43.3523 123.5 49.6516 123.5 55.5H125.5C125.5 49.2529 123.453 42.5502 119.832 37.3879C116.208 32.2216 110.924 28.4959 104.454 28.4959V30.4959ZM123.5 55.5C123.5 61.3142 121.6 65.4577 118.37 68.1687C115.112 70.9036 110.362 72.2976 104.454 72.2976V74.2976C110.643 74.2976 115.915 72.8406 119.656 69.7005C123.425 66.5366 125.5 61.7813 125.5 55.5H123.5ZM104.454 72.2976H49.0826V74.2976H104.454V72.2976ZM49.0826 72.2976C43.1362 72.2976 38.5067 71.1369 35.3774 68.6515C32.2933 66.202 30.5 62.3297 30.5 56.5H28.5C28.5 62.7658 30.4503 67.2923 34.1335 70.2177C37.7717 73.1072 42.9335 74.2976 49.0826 74.2976V72.2976ZM30.5 56.5C30.5 53.7826 30.8913 50.9068 31.6429 48.0927L29.7106 47.5766C28.9173 50.5468 28.5 53.5961 28.5 56.5H30.5Z" fill="black" mask="url(#path-3-inside-1_71_151)"/>
<circle cx="119.5" cy="37.5" r="4.5" fill="#1E1E1E"/>
<rect x="63.1775" y="29.996" width="32.0579" height="42.8017" fill="#CB1111" stroke="black"/>
<path d="M74.2484 44.3721L76.3145 48.5043L79.2071 44.3721L82.5129 48.5043L84.1658 44.3721" stroke="white" stroke-linejoin="round"/>
<path d="M76.314 48.5043L79.2065 57.182L82.5123 48.5043" stroke="white" stroke-linejoin="round"/>
<path d="M84.1654 44.3721H74.2481L70.5291 48.5044H87.8844L84.1654 44.3721Z" stroke="white" stroke-linejoin="round"/>
<path d="M79.2067 57.182L70.5291 48.5043H87.8844L79.2067 57.182Z" stroke="white" stroke-linejoin="round"/>
<path d="M6.39682 28.2591C8.16874 30.461 10.9615 31.1462 13.8315 27.6102C16.7015 24.0741 19.3934 18.689 16.7901 15.4541C14.1868 12.2191 9.835 15.153 6.96498 18.689C4.09495 22.2251 4.6249 26.0572 6.39682 28.2591Z" fill="#1E1E1E"/>
<path d="M36.9334 28.7263C35.1615 30.9282 32.3687 31.6133 29.4987 28.0773C26.6287 24.5413 23.9368 19.1562 26.5401 15.9212C29.1434 12.6862 33.4952 15.6202 36.3652 19.1562C39.2352 22.6922 38.7053 26.5244 36.9334 28.7263Z" fill="#1E1E1E"/>
<ellipse cx="21.3847" cy="29.0086" rx="2.40329" ry="1.69926" fill="#1E1E1E"/>
</svg>
