<svg width="172" height="55" viewBox="0 0 172 55" fill="none" xmlns="http://www.w3.org/2000/svg">
<mask id="path-1-outside-1_242_237" maskUnits="userSpaceOnUse" x="115.825" y="0.178192" width="56" height="55" fill="black">
<rect fill="white" x="115.825" y="0.178192" width="56" height="55"/>
<path d="M125.735 19.2736L130.059 17.4806L130.006 14.6857C128.776 14.6857 127.58 14.3517 126.42 13.6838C126.28 15.6525 126.051 17.5158 125.735 19.2736ZM136.123 15.6877C137.916 15.1252 139.621 14.7736 141.239 14.633L142.452 10.8361C139.287 11.6799 136.37 12.6994 133.698 13.8947C134.295 13.8244 134.823 13.965 135.28 14.3166C135.737 14.633 136.018 15.09 136.123 15.6877ZM136.703 22.4904C137.477 22.0685 138.303 21.9279 139.182 22.0685C141.467 22.5959 143.453 23.6857 145.141 25.3381C145.352 25.5139 145.457 25.7424 145.457 26.0236C145.457 26.3049 145.317 26.551 145.036 26.7619L144.455 27.131C143.541 27.4826 142.662 27.4123 141.819 26.9201C140.975 26.4631 140.096 26.3576 139.182 26.6037L137.125 27.2365L137.284 29.3459L139.604 28.4494C140.307 28.2736 141.028 28.2209 141.766 28.2912C144.614 28.8185 146.934 30.1721 148.727 32.3517C149.184 27.1135 149.184 21.84 148.727 16.5314C147.707 17.5158 146.442 18.008 144.93 18.008L144.614 19.9592C144.508 20.5217 144.174 20.7678 143.612 20.6974C142.311 20.6271 141.116 20.3635 140.026 19.9064L136.598 20.9084L136.703 22.4904ZM126.42 39.1545C130.358 37.8185 134.172 36.7287 137.864 35.8849L139.709 33.2482C134.049 33.4943 128.741 34.8478 123.784 37.3088C124.838 37.7306 125.717 38.3459 126.42 39.1545ZM128.424 48.1193C130.991 47.381 133.328 46.8713 135.438 46.59C135.789 44.551 136.282 42.7228 136.914 41.1056C134.102 41.2111 131.254 41.756 128.371 42.7404C128.231 44.3576 128.248 46.1506 128.424 48.1193ZM140.659 33.3537C143.577 35.4982 145.897 38.1349 147.62 41.2639C147.971 42.1428 147.778 42.8459 147.039 43.3732L145.457 44.7971C145.246 45.4299 145.141 46.1681 145.141 47.0119C149.957 47.1525 154.879 47.4865 159.907 48.0139L160.118 6.6701L155.319 10.0978C156.198 18.7463 156.479 27.5705 156.162 36.5705C156.268 38.9963 155.459 41.0178 153.737 42.6349C152.928 43.1271 152.137 43.092 151.364 42.5295L149.202 40.7365C148.393 39.8928 148.041 38.8556 148.147 37.6252L148.621 33.9865C147.426 34.3732 146.266 34.4084 145.141 34.092C143.735 33.7404 142.241 33.4943 140.659 33.3537ZM117.825 23.2814C118.985 19.6603 120.022 15.6701 120.936 11.3107C120.162 10.5021 119.811 9.58807 119.881 8.56854C119.881 8.04119 120.057 7.54901 120.409 7.09198L121.094 6.45916C121.375 6.14276 121.692 6.03729 122.043 6.14276C123.871 7.09198 125.155 8.53338 125.893 10.467C128.213 8.49823 130.077 6.19549 131.483 3.55877C131.166 3.27752 130.991 2.92596 130.955 2.50408C130.92 2.04705 131.043 1.64276 131.325 1.29119C133.047 1.29119 134.647 1.73065 136.123 2.60955C137.635 3.4533 138.813 4.63104 139.657 6.14276L141.871 5.03534C143.137 4.75409 144.35 4.85955 145.51 5.35174C146.67 5.84393 147.584 6.65252 148.252 7.77752L147.567 4.08612L148.147 3.40057C148.463 3.08416 148.797 3.04901 149.149 3.2951C150.871 4.03338 152.471 5.12323 153.948 6.56463L160.118 2.60955L161.225 1.55487C161.682 1.2033 162.209 1.09783 162.807 1.23846C165.866 2.46893 168.203 4.47284 169.821 7.25018C170.453 8.30487 170.453 9.3244 169.821 10.3088L168.555 12.5764V29.0295C168.555 34.3029 168.696 39.4533 168.977 44.4806C169.153 47.2931 168.291 49.7365 166.393 51.8107C165.83 52.4084 165.11 52.883 164.231 53.2346C162.86 53.7267 161.471 53.7092 160.065 53.1818C155.284 51.0021 150.274 49.2795 145.036 48.0139C144.965 49.2443 144.965 50.4748 145.036 51.7053C145.036 52.2326 144.842 52.6896 144.455 53.0764L144.139 53.4455C141.959 53.3752 139.955 52.7775 138.127 51.6525C134.471 51.3361 130.991 51.881 127.686 53.2873C126.737 53.7443 125.911 53.6037 125.207 52.8654C123.52 49.8771 122.729 46.6603 122.834 43.215L121.2 39.5764C120.953 38.592 121.252 37.801 122.096 37.2033C120.901 36.8166 119.776 36.2717 118.721 35.5685C118.475 35.3224 118.352 35.0588 118.352 34.7775L119.248 33.7756C120.479 33.9865 121.692 33.9865 122.887 33.7756C124.996 33.3185 127.422 32.6857 130.164 31.8771V29.2404C128.688 29.6623 127.334 30.1721 126.104 30.7697C125.155 31.0158 124.241 31.051 123.362 30.8752C122.412 30.6642 121.674 30.1896 121.147 29.4514C121.041 29.3459 121.024 29.1877 121.094 28.9767C121.129 28.801 121.252 28.6779 121.463 28.6076C122.237 28.5373 122.975 28.3967 123.678 28.1857C126.139 27.342 128.284 26.3576 130.112 25.2326V22.7541C128.495 23.4572 126.86 23.4924 125.207 22.8596C125.102 24.0549 124.662 25.0392 123.889 25.8127C123.467 26.2346 122.993 26.4631 122.465 26.4982L117.825 23.2814Z"/>
</mask>
<path d="M125.735 19.2736L130.059 17.4806L130.006 14.6857C128.776 14.6857 127.58 14.3517 126.42 13.6838C126.28 15.6525 126.051 17.5158 125.735 19.2736ZM136.123 15.6877C137.916 15.1252 139.621 14.7736 141.239 14.633L142.452 10.8361C139.287 11.6799 136.37 12.6994 133.698 13.8947C134.295 13.8244 134.823 13.965 135.28 14.3166C135.737 14.633 136.018 15.09 136.123 15.6877ZM136.703 22.4904C137.477 22.0685 138.303 21.9279 139.182 22.0685C141.467 22.5959 143.453 23.6857 145.141 25.3381C145.352 25.5139 145.457 25.7424 145.457 26.0236C145.457 26.3049 145.317 26.551 145.036 26.7619L144.455 27.131C143.541 27.4826 142.662 27.4123 141.819 26.9201C140.975 26.4631 140.096 26.3576 139.182 26.6037L137.125 27.2365L137.284 29.3459L139.604 28.4494C140.307 28.2736 141.028 28.2209 141.766 28.2912C144.614 28.8185 146.934 30.1721 148.727 32.3517C149.184 27.1135 149.184 21.84 148.727 16.5314C147.707 17.5158 146.442 18.008 144.93 18.008L144.614 19.9592C144.508 20.5217 144.174 20.7678 143.612 20.6974C142.311 20.6271 141.116 20.3635 140.026 19.9064L136.598 20.9084L136.703 22.4904ZM126.42 39.1545C130.358 37.8185 134.172 36.7287 137.864 35.8849L139.709 33.2482C134.049 33.4943 128.741 34.8478 123.784 37.3088C124.838 37.7306 125.717 38.3459 126.42 39.1545ZM128.424 48.1193C130.991 47.381 133.328 46.8713 135.438 46.59C135.789 44.551 136.282 42.7228 136.914 41.1056C134.102 41.2111 131.254 41.756 128.371 42.7404C128.231 44.3576 128.248 46.1506 128.424 48.1193ZM140.659 33.3537C143.577 35.4982 145.897 38.1349 147.62 41.2639C147.971 42.1428 147.778 42.8459 147.039 43.3732L145.457 44.7971C145.246 45.4299 145.141 46.1681 145.141 47.0119C149.957 47.1525 154.879 47.4865 159.907 48.0139L160.118 6.6701L155.319 10.0978C156.198 18.7463 156.479 27.5705 156.162 36.5705C156.268 38.9963 155.459 41.0178 153.737 42.6349C152.928 43.1271 152.137 43.092 151.364 42.5295L149.202 40.7365C148.393 39.8928 148.041 38.8556 148.147 37.6252L148.621 33.9865C147.426 34.3732 146.266 34.4084 145.141 34.092C143.735 33.7404 142.241 33.4943 140.659 33.3537ZM117.825 23.2814C118.985 19.6603 120.022 15.6701 120.936 11.3107C120.162 10.5021 119.811 9.58807 119.881 8.56854C119.881 8.04119 120.057 7.54901 120.409 7.09198L121.094 6.45916C121.375 6.14276 121.692 6.03729 122.043 6.14276C123.871 7.09198 125.155 8.53338 125.893 10.467C128.213 8.49823 130.077 6.19549 131.483 3.55877C131.166 3.27752 130.991 2.92596 130.955 2.50408C130.92 2.04705 131.043 1.64276 131.325 1.29119C133.047 1.29119 134.647 1.73065 136.123 2.60955C137.635 3.4533 138.813 4.63104 139.657 6.14276L141.871 5.03534C143.137 4.75409 144.35 4.85955 145.51 5.35174C146.67 5.84393 147.584 6.65252 148.252 7.77752L147.567 4.08612L148.147 3.40057C148.463 3.08416 148.797 3.04901 149.149 3.2951C150.871 4.03338 152.471 5.12323 153.948 6.56463L160.118 2.60955L161.225 1.55487C161.682 1.2033 162.209 1.09783 162.807 1.23846C165.866 2.46893 168.203 4.47284 169.821 7.25018C170.453 8.30487 170.453 9.3244 169.821 10.3088L168.555 12.5764V29.0295C168.555 34.3029 168.696 39.4533 168.977 44.4806C169.153 47.2931 168.291 49.7365 166.393 51.8107C165.83 52.4084 165.11 52.883 164.231 53.2346C162.86 53.7267 161.471 53.7092 160.065 53.1818C155.284 51.0021 150.274 49.2795 145.036 48.0139C144.965 49.2443 144.965 50.4748 145.036 51.7053C145.036 52.2326 144.842 52.6896 144.455 53.0764L144.139 53.4455C141.959 53.3752 139.955 52.7775 138.127 51.6525C134.471 51.3361 130.991 51.881 127.686 53.2873C126.737 53.7443 125.911 53.6037 125.207 52.8654C123.52 49.8771 122.729 46.6603 122.834 43.215L121.2 39.5764C120.953 38.592 121.252 37.801 122.096 37.2033C120.901 36.8166 119.776 36.2717 118.721 35.5685C118.475 35.3224 118.352 35.0588 118.352 34.7775L119.248 33.7756C120.479 33.9865 121.692 33.9865 122.887 33.7756C124.996 33.3185 127.422 32.6857 130.164 31.8771V29.2404C128.688 29.6623 127.334 30.1721 126.104 30.7697C125.155 31.0158 124.241 31.051 123.362 30.8752C122.412 30.6642 121.674 30.1896 121.147 29.4514C121.041 29.3459 121.024 29.1877 121.094 28.9767C121.129 28.801 121.252 28.6779 121.463 28.6076C122.237 28.5373 122.975 28.3967 123.678 28.1857C126.139 27.342 128.284 26.3576 130.112 25.2326V22.7541C128.495 23.4572 126.86 23.4924 125.207 22.8596C125.102 24.0549 124.662 25.0392 123.889 25.8127C123.467 26.2346 122.993 26.4631 122.465 26.4982L117.825 23.2814Z" fill="#00AB4F"/>
<path d="M125.735 19.2736L130.059 17.4806L130.006 14.6857C128.776 14.6857 127.58 14.3517 126.42 13.6838C126.28 15.6525 126.051 17.5158 125.735 19.2736ZM136.123 15.6877C137.916 15.1252 139.621 14.7736 141.239 14.633L142.452 10.8361C139.287 11.6799 136.37 12.6994 133.698 13.8947C134.295 13.8244 134.823 13.965 135.28 14.3166C135.737 14.633 136.018 15.09 136.123 15.6877ZM136.703 22.4904C137.477 22.0685 138.303 21.9279 139.182 22.0685C141.467 22.5959 143.453 23.6857 145.141 25.3381C145.352 25.5139 145.457 25.7424 145.457 26.0236C145.457 26.3049 145.317 26.551 145.036 26.7619L144.455 27.131C143.541 27.4826 142.662 27.4123 141.819 26.9201C140.975 26.4631 140.096 26.3576 139.182 26.6037L137.125 27.2365L137.284 29.3459L139.604 28.4494C140.307 28.2736 141.028 28.2209 141.766 28.2912C144.614 28.8185 146.934 30.1721 148.727 32.3517C149.184 27.1135 149.184 21.84 148.727 16.5314C147.707 17.5158 146.442 18.008 144.93 18.008L144.614 19.9592C144.508 20.5217 144.174 20.7678 143.612 20.6974C142.311 20.6271 141.116 20.3635 140.026 19.9064L136.598 20.9084L136.703 22.4904ZM126.42 39.1545C130.358 37.8185 134.172 36.7287 137.864 35.8849L139.709 33.2482C134.049 33.4943 128.741 34.8478 123.784 37.3088C124.838 37.7306 125.717 38.3459 126.42 39.1545ZM128.424 48.1193C130.991 47.381 133.328 46.8713 135.438 46.59C135.789 44.551 136.282 42.7228 136.914 41.1056C134.102 41.2111 131.254 41.756 128.371 42.7404C128.231 44.3576 128.248 46.1506 128.424 48.1193ZM140.659 33.3537C143.577 35.4982 145.897 38.1349 147.62 41.2639C147.971 42.1428 147.778 42.8459 147.039 43.3732L145.457 44.7971C145.246 45.4299 145.141 46.1681 145.141 47.0119C149.957 47.1525 154.879 47.4865 159.907 48.0139L160.118 6.6701L155.319 10.0978C156.198 18.7463 156.479 27.5705 156.162 36.5705C156.268 38.9963 155.459 41.0178 153.737 42.6349C152.928 43.1271 152.137 43.092 151.364 42.5295L149.202 40.7365C148.393 39.8928 148.041 38.8556 148.147 37.6252L148.621 33.9865C147.426 34.3732 146.266 34.4084 145.141 34.092C143.735 33.7404 142.241 33.4943 140.659 33.3537ZM117.825 23.2814C118.985 19.6603 120.022 15.6701 120.936 11.3107C120.162 10.5021 119.811 9.58807 119.881 8.56854C119.881 8.04119 120.057 7.54901 120.409 7.09198L121.094 6.45916C121.375 6.14276 121.692 6.03729 122.043 6.14276C123.871 7.09198 125.155 8.53338 125.893 10.467C128.213 8.49823 130.077 6.19549 131.483 3.55877C131.166 3.27752 130.991 2.92596 130.955 2.50408C130.92 2.04705 131.043 1.64276 131.325 1.29119C133.047 1.29119 134.647 1.73065 136.123 2.60955C137.635 3.4533 138.813 4.63104 139.657 6.14276L141.871 5.03534C143.137 4.75409 144.35 4.85955 145.51 5.35174C146.67 5.84393 147.584 6.65252 148.252 7.77752L147.567 4.08612L148.147 3.40057C148.463 3.08416 148.797 3.04901 149.149 3.2951C150.871 4.03338 152.471 5.12323 153.948 6.56463L160.118 2.60955L161.225 1.55487C161.682 1.2033 162.209 1.09783 162.807 1.23846C165.866 2.46893 168.203 4.47284 169.821 7.25018C170.453 8.30487 170.453 9.3244 169.821 10.3088L168.555 12.5764V29.0295C168.555 34.3029 168.696 39.4533 168.977 44.4806C169.153 47.2931 168.291 49.7365 166.393 51.8107C165.83 52.4084 165.11 52.883 164.231 53.2346C162.86 53.7267 161.471 53.7092 160.065 53.1818C155.284 51.0021 150.274 49.2795 145.036 48.0139C144.965 49.2443 144.965 50.4748 145.036 51.7053C145.036 52.2326 144.842 52.6896 144.455 53.0764L144.139 53.4455C141.959 53.3752 139.955 52.7775 138.127 51.6525C134.471 51.3361 130.991 51.881 127.686 53.2873C126.737 53.7443 125.911 53.6037 125.207 52.8654C123.52 49.8771 122.729 46.6603 122.834 43.215L121.2 39.5764C120.953 38.592 121.252 37.801 122.096 37.2033C120.901 36.8166 119.776 36.2717 118.721 35.5685C118.475 35.3224 118.352 35.0588 118.352 34.7775L119.248 33.7756C120.479 33.9865 121.692 33.9865 122.887 33.7756C124.996 33.3185 127.422 32.6857 130.164 31.8771V29.2404C128.688 29.6623 127.334 30.1721 126.104 30.7697C125.155 31.0158 124.241 31.051 123.362 30.8752C122.412 30.6642 121.674 30.1896 121.147 29.4514C121.041 29.3459 121.024 29.1877 121.094 28.9767C121.129 28.801 121.252 28.6779 121.463 28.6076C122.237 28.5373 122.975 28.3967 123.678 28.1857C126.139 27.342 128.284 26.3576 130.112 25.2326V22.7541C128.495 23.4572 126.86 23.4924 125.207 22.8596C125.102 24.0549 124.662 25.0392 123.889 25.8127C123.467 26.2346 122.993 26.4631 122.465 26.4982L117.825 23.2814Z" stroke="#007938" stroke-width="2" mask="url(#path-1-outside-1_242_237)"/>
<path d="M80.6511 29.4767H80.6827L80.7142 29.4727C82.4647 29.2499 84.2685 28.8716 86.1253 28.3389L85.977 31.0812C83.4906 31.2083 81.1586 31.6172 78.9831 32.3105L78.6966 29.1234C79.3132 29.359 79.9657 29.4767 80.6511 29.4767ZM92.9613 21.2465C95.0578 20.7274 97.1821 20.449 99.3349 20.4109L98.7664 45.6295H98.7663V45.6408C98.7663 45.8261 98.6876 46.0397 98.4381 46.2892C98.2297 46.4977 98.0206 46.561 97.7665 46.5187L97.7665 46.5187L97.7609 46.5178L95.7319 46.2029C96.6081 45.2305 97.0099 44.0397 96.9175 42.6544L96.9164 42.6373L96.9141 42.6203C96.428 39.0441 96.4459 35.577 96.9655 32.2172L96.966 32.2141C97.0926 31.3594 97.4388 30.6027 98.0112 29.9349L98.0112 29.935L98.0156 29.9296C98.3245 29.559 98.5304 29.1527 98.6 28.7119C98.6692 28.2736 98.5978 27.8373 98.41 27.414C97.3473 24.6467 95.4339 22.6957 92.6997 21.578L92.9613 21.2465ZM72.5757 45.0124L69.2728 45.1225C69.7961 37.9392 69.9961 30.8521 69.8728 23.8614C71.8174 23.2907 73.7742 23.0009 75.7445 22.9907L77.3856 23.7366L77.4131 23.7491L77.4419 23.7582C78.2079 24.0001 78.9496 23.9882 79.6386 23.6868L79.6709 23.6726L79.7009 23.6541L81.4939 22.5467L81.5184 22.5315L81.541 22.5137C82.307 21.9089 82.7763 21.1125 82.9372 20.1468L82.9418 20.1196L82.9433 20.092L83.3652 12.3928L83.3652 12.3928L83.3654 12.3867C83.4305 10.8583 83.9944 9.57101 85.0652 8.50021C85.2893 8.27607 85.4753 7.98486 85.4753 7.63249C85.4753 7.28819 85.2984 7.01032 85.0762 6.80084C83.1317 4.43343 80.7359 2.72243 77.8954 1.67483C77.5207 1.49223 77.1313 1.40524 76.7394 1.45423C76.3375 1.50446 75.9813 1.69171 75.6738 1.97616C75.0429 2.54088 74.4426 3.13637 73.8732 3.76258C71.4034 3.97637 68.9652 4.44049 66.5593 5.15457C65.2878 3.88291 63.7589 2.95242 61.9804 2.36264C61.7893 2.25417 61.5775 2.18865 61.3503 2.18865C61.1174 2.18865 60.9009 2.25743 60.7061 2.3707C60.2927 2.54133 60.0159 2.86941 59.874 3.29518L59.8611 3.33395L59.8546 3.3743L59.6465 4.67487C59.4757 5.40806 59.4811 6.10634 59.6872 6.75546C59.8934 7.405 60.2901 7.97262 60.8509 8.45994C61.7043 9.31871 62.1159 10.2973 62.1159 11.4162H62.1158L62.116 11.4277C62.3965 23.6274 61.5204 35.7569 59.4876 47.8166C59.3518 48.4827 59.3723 49.1165 59.5716 49.7038C59.7716 50.2931 60.141 50.8048 60.6549 51.2405C61.5017 51.9811 62.4668 52.7364 63.5492 53.5063C63.7337 53.7006 63.9545 53.847 64.2125 53.9244C64.4697 54.0016 64.7353 54.0015 64.9979 53.9445C65.5089 53.9276 65.9348 53.7001 66.2284 53.2781C67.766 51.5268 68.7259 49.4696 69.1086 47.1189C80.5768 47.8848 91.8409 50.1511 102.902 53.9188L102.902 53.9188L102.908 53.9208C104.679 54.4984 106.328 54.2254 107.796 53.1047L107.798 53.1035C109.282 51.9618 110.049 50.4839 110.05 48.6994L110.049 48.6917L109.522 14.3127C109.523 12.9972 110.012 11.8928 111.014 10.9717C111.575 10.6103 111.902 10.0694 111.993 9.39538C112.157 8.6687 112.005 8.00198 111.516 7.45772C109.252 4.47987 106.375 2.23549 102.896 0.72825C102.487 0.544986 102.072 0.457142 101.668 0.520324C101.262 0.583767 100.919 0.791367 100.645 1.10279L99.8413 1.86213C97.3234 2.07997 94.8689 2.64477 92.4789 3.55572C90.6255 1.78654 88.407 1.05258 85.8616 1.37523L85.8129 1.3814L85.7664 1.39692C85.4255 1.51056 85.1304 1.70095 84.9244 1.98934C84.7187 2.27721 84.6335 2.61853 84.6335 2.97869V3.01301L84.6382 3.047L84.8491 4.5763L84.8494 4.57869C84.9667 5.39923 85.2789 6.17393 85.7755 6.8997L85.7984 6.93322L85.8265 6.96259C86.4575 7.6237 86.728 8.40471 86.6415 9.3456C86.1479 12.1704 85.8475 14.8754 85.7413 17.4601L85.7413 17.461C85.703 18.4364 85.8941 19.3154 86.3355 20.0778C86.6404 20.6044 87.0558 21.0601 87.5718 21.4481C84.3217 23.134 80.7638 24.4456 76.896 25.3813C75.8828 24.7173 74.8671 24.1473 73.8488 23.6721L73.8276 23.6622L73.8056 23.6543C73.4969 23.5441 73.1813 23.5009 72.8696 23.5529C72.5703 23.6028 72.3034 23.7357 72.0725 23.9335L71.263 24.4395L71.2568 24.4433L71.2507 24.4474C71.0134 24.6056 70.822 24.8307 70.7513 25.1313C70.6851 25.4123 70.7411 25.6897 70.8493 25.9386C71.1748 26.9444 71.6075 27.8819 72.1479 28.7498C72.5641 29.556 72.7673 30.3663 72.7682 31.1857C72.6983 34.0734 72.4026 37.1037 71.8799 40.2769C71.5323 41.9934 71.7636 43.5797 72.5757 45.0124ZM68.703 10.057C70.5374 9.39692 72.4068 9.09526 74.3143 9.15022L74.1739 11.081C72.4051 11.1313 70.6744 11.4686 68.9837 12.0916L68.703 10.057ZM73.9523 15.1307L73.8435 17.4512C72.3754 17.6231 70.9416 17.9346 69.5428 18.3858L69.37 16.4857C70.8874 15.8795 72.4148 15.4282 73.9523 15.1307ZM93.5852 7.24557C95.5413 6.60892 97.5084 6.19524 99.4873 6.00367L99.4143 8.33911C97.4543 8.3949 95.487 8.78874 93.5143 9.51609L93.5852 7.24557ZM99.389 14.3123C97.3029 14.429 95.2795 14.9052 93.3209 15.7389L93.4209 13.7714C95.3617 13.0537 97.3392 12.7123 99.3564 12.7451L99.389 14.3123ZM85.9136 35.6623L85.9893 38.31C83.5887 38.2067 81.2505 38.4281 78.9761 38.9752L79.1238 36.5019C81.2887 36.031 83.5518 35.7509 85.9136 35.6623ZM87.3989 45.2524C84.3071 45.018 81.2877 44.8933 78.3407 44.8786L78.5523 43.6084C80.6044 43.3473 82.7526 43.3448 84.9981 43.6033C85.7023 43.7606 86.2903 44.0802 86.7751 44.5618L87.3989 45.2524Z" fill="#00AB4F" stroke="#007938"/>
<mask id="path-3-outside-2_242_237" maskUnits="userSpaceOnUse" x="0.704712" y="0.132996" width="54" height="55" fill="black">
<rect fill="white" x="0.704712" y="0.132996" width="54" height="55"/>
<path d="M5.03417 39.5236C4.26073 40.0861 3.71581 40.8244 3.3994 41.7385C3.11815 42.6174 3.13573 43.4963 3.45214 44.3752L6.82714 42.7404C5.73729 41.9318 5.13964 40.8596 5.03417 39.5236ZM10.3603 16.215V23.4396L13.6299 22.2267L13.8408 15.0549L10.3603 16.215ZM28.6064 26.2346C30.2588 26.7619 31.3662 27.8342 31.9287 29.4514C33.5459 28.9592 35.374 28.4846 37.4131 28.0275L37.0967 26.6037C36.7099 25.9006 36.4463 25.215 36.3057 24.5471C33.5635 25.0744 30.9971 25.6369 28.6064 26.2346ZM21.751 24.758L21.5928 32.8791C21.6279 32.8791 22.0674 32.7209 22.9111 32.4045C23.7549 32.0881 24.5459 31.7892 25.2842 31.508C26.0576 31.2267 26.5146 31.051 26.6553 30.9807C26.4795 29.7502 26.1807 28.3791 25.7588 26.8674C24.1767 26.551 22.8408 25.8478 21.751 24.758ZM10.4131 31.1389V40.842L13.1025 39.4709L13.4189 29.5568L10.4131 31.1389ZM21.751 21.6467L28.8174 19.2209L29.8193 15.5295L27.4463 15.7932C26.9189 15.8283 26.3213 15.7228 25.6533 15.4767C24.7041 14.9846 23.7549 14.299 22.8057 13.4201L21.8564 14.1584L21.751 21.6467ZM21.6455 35.2521L21.54 44.5861C26.4971 46.4142 31.4892 47.0998 36.5166 46.6428C37.6767 42.9865 38.2568 39.2248 38.2568 35.3576L33.458 36.3596L33.8271 39.2599C33.9326 39.8576 33.8623 40.4904 33.6162 41.1584C33.1943 42.4943 32.5967 43.6721 31.8232 44.6916C31.542 44.9025 31.1728 44.9728 30.7158 44.9025C30.083 44.6916 29.4326 44.3049 28.7646 43.7424C28.3076 43.3908 28.0439 43.0217 27.9736 42.6349C27.5869 40.9826 27.3584 39.3478 27.2881 37.7307C25.0029 37.9416 23.1221 37.1154 21.6455 35.2521ZM13.1553 47.6974L8.83104 49.9123C8.51464 50.6857 8.21581 51.4943 7.93456 52.3381C7.75878 52.6896 7.53026 52.9357 7.24901 53.0764C6.86229 53.1818 6.52831 53.1467 6.24706 52.9709C4.84081 52.092 3.82128 50.8791 3.18847 49.3322C2.45018 47.5744 1.97557 45.799 1.76464 44.006C1.58886 42.7053 1.79979 41.4748 2.39745 40.3146C3.03026 39.1545 3.90917 38.258 5.03417 37.6252L5.66698 16.2678C5.66698 15.5295 5.47362 14.8264 5.0869 14.1584C4.38378 12.9279 3.78612 11.592 3.29393 10.1506C2.97753 9.44745 2.90722 8.67401 3.083 7.83026C3.18847 7.33807 3.38182 6.93378 3.66307 6.61737C3.97948 6.37128 4.24315 6.3537 4.45409 6.56464C5.96581 7.75995 7.1787 8.83221 8.09276 9.78143L12.5752 8.0412C12.9267 7.33807 13.3662 6.70526 13.8935 6.14276C14.4209 5.5451 15.0537 5.3869 15.792 5.66815C18.499 6.82831 20.749 8.51581 22.542 10.7307C25.1084 10.3088 27.9912 9.7287 31.1904 8.99042L31.665 6.03729C31.7002 5.47479 31.6474 4.91229 31.5068 4.34979C31.2607 3.82245 31.0849 3.18964 30.9795 2.45135C31.5068 1.64276 32.2978 1.20331 33.3525 1.133C34.0908 1.133 34.7588 1.2912 35.3564 1.6076C37.4307 2.69745 38.6963 4.4201 39.1533 6.77557L41.79 5.93182C42.5283 4.70135 43.6006 4.22675 45.0068 4.508C46.7646 5.00018 48.2236 5.96698 49.3838 7.40839C50.5439 8.84979 51.1592 10.4846 51.2295 12.3127C51.2295 12.6994 51.0889 13.0158 50.8076 13.2619C50.5967 13.4728 50.2978 13.5783 49.9111 13.5783C48.1885 13.5783 46.5713 13.2971 45.0596 12.7346C44.2158 12.5588 43.3896 12.5588 42.581 12.7346L39.417 13.631L38.9951 16.5842L42.7392 15.8986C43.6182 14.9846 44.708 14.5803 46.0088 14.6857C46.6064 14.7209 47.1514 14.9318 47.6435 15.3185C50.1748 16.9357 51.9502 19.1506 52.9697 21.9631C53.1455 22.5256 53.1103 23.0353 52.8642 23.4924C52.583 23.9846 52.1787 24.301 51.6514 24.4416C49.0498 24.6525 46.4131 24.4064 43.7412 23.7033L44.7432 26.7619C46.1494 25.9533 47.4853 25.9533 48.751 26.7619C50.7197 28.5549 51.7392 30.84 51.8096 33.6174C51.8096 34.0041 51.6689 34.3381 51.3877 34.6193C51.1064 34.9006 50.79 35.0588 50.4385 35.0939C49.0674 35.0939 47.6963 34.883 46.3252 34.4611C47.0283 39.0666 47.1514 43.7424 46.6943 48.4885C46.5185 49.7189 46.0264 50.8615 45.2178 51.9162C44.4092 52.6545 43.5303 53.1467 42.581 53.3928C41.7021 53.6389 40.8057 53.6564 39.8916 53.4455C38.4853 53.1642 37.2549 52.5666 36.2002 51.6525C35.3564 50.8791 34.3369 50.3166 33.1416 49.965C29.1689 49.1213 25.2666 47.8205 21.4346 46.0627C21.1182 47.6447 20.4326 48.9807 19.3779 50.0705C18.499 50.633 17.5849 50.756 16.6357 50.4396C15.2646 49.8068 14.1045 48.8928 13.1553 47.6974Z"/>
</mask>
<path d="M5.03417 39.5236C4.26073 40.0861 3.71581 40.8244 3.3994 41.7385C3.11815 42.6174 3.13573 43.4963 3.45214 44.3752L6.82714 42.7404C5.73729 41.9318 5.13964 40.8596 5.03417 39.5236ZM10.3603 16.215V23.4396L13.6299 22.2267L13.8408 15.0549L10.3603 16.215ZM28.6064 26.2346C30.2588 26.7619 31.3662 27.8342 31.9287 29.4514C33.5459 28.9592 35.374 28.4846 37.4131 28.0275L37.0967 26.6037C36.7099 25.9006 36.4463 25.215 36.3057 24.5471C33.5635 25.0744 30.9971 25.6369 28.6064 26.2346ZM21.751 24.758L21.5928 32.8791C21.6279 32.8791 22.0674 32.7209 22.9111 32.4045C23.7549 32.0881 24.5459 31.7892 25.2842 31.508C26.0576 31.2267 26.5146 31.051 26.6553 30.9807C26.4795 29.7502 26.1807 28.3791 25.7588 26.8674C24.1767 26.551 22.8408 25.8478 21.751 24.758ZM10.4131 31.1389V40.842L13.1025 39.4709L13.4189 29.5568L10.4131 31.1389ZM21.751 21.6467L28.8174 19.2209L29.8193 15.5295L27.4463 15.7932C26.9189 15.8283 26.3213 15.7228 25.6533 15.4767C24.7041 14.9846 23.7549 14.299 22.8057 13.4201L21.8564 14.1584L21.751 21.6467ZM21.6455 35.2521L21.54 44.5861C26.4971 46.4142 31.4892 47.0998 36.5166 46.6428C37.6767 42.9865 38.2568 39.2248 38.2568 35.3576L33.458 36.3596L33.8271 39.2599C33.9326 39.8576 33.8623 40.4904 33.6162 41.1584C33.1943 42.4943 32.5967 43.6721 31.8232 44.6916C31.542 44.9025 31.1728 44.9728 30.7158 44.9025C30.083 44.6916 29.4326 44.3049 28.7646 43.7424C28.3076 43.3908 28.0439 43.0217 27.9736 42.6349C27.5869 40.9826 27.3584 39.3478 27.2881 37.7307C25.0029 37.9416 23.1221 37.1154 21.6455 35.2521ZM13.1553 47.6974L8.83104 49.9123C8.51464 50.6857 8.21581 51.4943 7.93456 52.3381C7.75878 52.6896 7.53026 52.9357 7.24901 53.0764C6.86229 53.1818 6.52831 53.1467 6.24706 52.9709C4.84081 52.092 3.82128 50.8791 3.18847 49.3322C2.45018 47.5744 1.97557 45.799 1.76464 44.006C1.58886 42.7053 1.79979 41.4748 2.39745 40.3146C3.03026 39.1545 3.90917 38.258 5.03417 37.6252L5.66698 16.2678C5.66698 15.5295 5.47362 14.8264 5.0869 14.1584C4.38378 12.9279 3.78612 11.592 3.29393 10.1506C2.97753 9.44745 2.90722 8.67401 3.083 7.83026C3.18847 7.33807 3.38182 6.93378 3.66307 6.61737C3.97948 6.37128 4.24315 6.3537 4.45409 6.56464C5.96581 7.75995 7.1787 8.83221 8.09276 9.78143L12.5752 8.0412C12.9267 7.33807 13.3662 6.70526 13.8935 6.14276C14.4209 5.5451 15.0537 5.3869 15.792 5.66815C18.499 6.82831 20.749 8.51581 22.542 10.7307C25.1084 10.3088 27.9912 9.7287 31.1904 8.99042L31.665 6.03729C31.7002 5.47479 31.6474 4.91229 31.5068 4.34979C31.2607 3.82245 31.0849 3.18964 30.9795 2.45135C31.5068 1.64276 32.2978 1.20331 33.3525 1.133C34.0908 1.133 34.7588 1.2912 35.3564 1.6076C37.4307 2.69745 38.6963 4.4201 39.1533 6.77557L41.79 5.93182C42.5283 4.70135 43.6006 4.22675 45.0068 4.508C46.7646 5.00018 48.2236 5.96698 49.3838 7.40839C50.5439 8.84979 51.1592 10.4846 51.2295 12.3127C51.2295 12.6994 51.0889 13.0158 50.8076 13.2619C50.5967 13.4728 50.2978 13.5783 49.9111 13.5783C48.1885 13.5783 46.5713 13.2971 45.0596 12.7346C44.2158 12.5588 43.3896 12.5588 42.581 12.7346L39.417 13.631L38.9951 16.5842L42.7392 15.8986C43.6182 14.9846 44.708 14.5803 46.0088 14.6857C46.6064 14.7209 47.1514 14.9318 47.6435 15.3185C50.1748 16.9357 51.9502 19.1506 52.9697 21.9631C53.1455 22.5256 53.1103 23.0353 52.8642 23.4924C52.583 23.9846 52.1787 24.301 51.6514 24.4416C49.0498 24.6525 46.4131 24.4064 43.7412 23.7033L44.7432 26.7619C46.1494 25.9533 47.4853 25.9533 48.751 26.7619C50.7197 28.5549 51.7392 30.84 51.8096 33.6174C51.8096 34.0041 51.6689 34.3381 51.3877 34.6193C51.1064 34.9006 50.79 35.0588 50.4385 35.0939C49.0674 35.0939 47.6963 34.883 46.3252 34.4611C47.0283 39.0666 47.1514 43.7424 46.6943 48.4885C46.5185 49.7189 46.0264 50.8615 45.2178 51.9162C44.4092 52.6545 43.5303 53.1467 42.581 53.3928C41.7021 53.6389 40.8057 53.6564 39.8916 53.4455C38.4853 53.1642 37.2549 52.5666 36.2002 51.6525C35.3564 50.8791 34.3369 50.3166 33.1416 49.965C29.1689 49.1213 25.2666 47.8205 21.4346 46.0627C21.1182 47.6447 20.4326 48.9807 19.3779 50.0705C18.499 50.633 17.5849 50.756 16.6357 50.4396C15.2646 49.8068 14.1045 48.8928 13.1553 47.6974Z" fill="#00AB4F"/>
<path d="M5.03417 39.5236C4.26073 40.0861 3.71581 40.8244 3.3994 41.7385C3.11815 42.6174 3.13573 43.4963 3.45214 44.3752L6.82714 42.7404C5.73729 41.9318 5.13964 40.8596 5.03417 39.5236ZM10.3603 16.215V23.4396L13.6299 22.2267L13.8408 15.0549L10.3603 16.215ZM28.6064 26.2346C30.2588 26.7619 31.3662 27.8342 31.9287 29.4514C33.5459 28.9592 35.374 28.4846 37.4131 28.0275L37.0967 26.6037C36.7099 25.9006 36.4463 25.215 36.3057 24.5471C33.5635 25.0744 30.9971 25.6369 28.6064 26.2346ZM21.751 24.758L21.5928 32.8791C21.6279 32.8791 22.0674 32.7209 22.9111 32.4045C23.7549 32.0881 24.5459 31.7892 25.2842 31.508C26.0576 31.2267 26.5146 31.051 26.6553 30.9807C26.4795 29.7502 26.1807 28.3791 25.7588 26.8674C24.1767 26.551 22.8408 25.8478 21.751 24.758ZM10.4131 31.1389V40.842L13.1025 39.4709L13.4189 29.5568L10.4131 31.1389ZM21.751 21.6467L28.8174 19.2209L29.8193 15.5295L27.4463 15.7932C26.9189 15.8283 26.3213 15.7228 25.6533 15.4767C24.7041 14.9846 23.7549 14.299 22.8057 13.4201L21.8564 14.1584L21.751 21.6467ZM21.6455 35.2521L21.54 44.5861C26.4971 46.4142 31.4892 47.0998 36.5166 46.6428C37.6767 42.9865 38.2568 39.2248 38.2568 35.3576L33.458 36.3596L33.8271 39.2599C33.9326 39.8576 33.8623 40.4904 33.6162 41.1584C33.1943 42.4943 32.5967 43.6721 31.8232 44.6916C31.542 44.9025 31.1728 44.9728 30.7158 44.9025C30.083 44.6916 29.4326 44.3049 28.7646 43.7424C28.3076 43.3908 28.0439 43.0217 27.9736 42.6349C27.5869 40.9826 27.3584 39.3478 27.2881 37.7307C25.0029 37.9416 23.1221 37.1154 21.6455 35.2521ZM13.1553 47.6974L8.83104 49.9123C8.51464 50.6857 8.21581 51.4943 7.93456 52.3381C7.75878 52.6896 7.53026 52.9357 7.24901 53.0764C6.86229 53.1818 6.52831 53.1467 6.24706 52.9709C4.84081 52.092 3.82128 50.8791 3.18847 49.3322C2.45018 47.5744 1.97557 45.799 1.76464 44.006C1.58886 42.7053 1.79979 41.4748 2.39745 40.3146C3.03026 39.1545 3.90917 38.258 5.03417 37.6252L5.66698 16.2678C5.66698 15.5295 5.47362 14.8264 5.0869 14.1584C4.38378 12.9279 3.78612 11.592 3.29393 10.1506C2.97753 9.44745 2.90722 8.67401 3.083 7.83026C3.18847 7.33807 3.38182 6.93378 3.66307 6.61737C3.97948 6.37128 4.24315 6.3537 4.45409 6.56464C5.96581 7.75995 7.1787 8.83221 8.09276 9.78143L12.5752 8.0412C12.9267 7.33807 13.3662 6.70526 13.8935 6.14276C14.4209 5.5451 15.0537 5.3869 15.792 5.66815C18.499 6.82831 20.749 8.51581 22.542 10.7307C25.1084 10.3088 27.9912 9.7287 31.1904 8.99042L31.665 6.03729C31.7002 5.47479 31.6474 4.91229 31.5068 4.34979C31.2607 3.82245 31.0849 3.18964 30.9795 2.45135C31.5068 1.64276 32.2978 1.20331 33.3525 1.133C34.0908 1.133 34.7588 1.2912 35.3564 1.6076C37.4307 2.69745 38.6963 4.4201 39.1533 6.77557L41.79 5.93182C42.5283 4.70135 43.6006 4.22675 45.0068 4.508C46.7646 5.00018 48.2236 5.96698 49.3838 7.40839C50.5439 8.84979 51.1592 10.4846 51.2295 12.3127C51.2295 12.6994 51.0889 13.0158 50.8076 13.2619C50.5967 13.4728 50.2978 13.5783 49.9111 13.5783C48.1885 13.5783 46.5713 13.2971 45.0596 12.7346C44.2158 12.5588 43.3896 12.5588 42.581 12.7346L39.417 13.631L38.9951 16.5842L42.7392 15.8986C43.6182 14.9846 44.708 14.5803 46.0088 14.6857C46.6064 14.7209 47.1514 14.9318 47.6435 15.3185C50.1748 16.9357 51.9502 19.1506 52.9697 21.9631C53.1455 22.5256 53.1103 23.0353 52.8642 23.4924C52.583 23.9846 52.1787 24.301 51.6514 24.4416C49.0498 24.6525 46.4131 24.4064 43.7412 23.7033L44.7432 26.7619C46.1494 25.9533 47.4853 25.9533 48.751 26.7619C50.7197 28.5549 51.7392 30.84 51.8096 33.6174C51.8096 34.0041 51.6689 34.3381 51.3877 34.6193C51.1064 34.9006 50.79 35.0588 50.4385 35.0939C49.0674 35.0939 47.6963 34.883 46.3252 34.4611C47.0283 39.0666 47.1514 43.7424 46.6943 48.4885C46.5185 49.7189 46.0264 50.8615 45.2178 51.9162C44.4092 52.6545 43.5303 53.1467 42.581 53.3928C41.7021 53.6389 40.8057 53.6564 39.8916 53.4455C38.4853 53.1642 37.2549 52.5666 36.2002 51.6525C35.3564 50.8791 34.3369 50.3166 33.1416 49.965C29.1689 49.1213 25.2666 47.8205 21.4346 46.0627C21.1182 47.6447 20.4326 48.9807 19.3779 50.0705C18.499 50.633 17.5849 50.756 16.6357 50.4396C15.2646 49.8068 14.1045 48.8928 13.1553 47.6974Z" stroke="#007938" stroke-width="2" mask="url(#path-3-outside-2_242_237)"/>
</svg>
