<svg width="282" height="46" viewBox="0 0 282 46" fill="none" xmlns="http://www.w3.org/2000/svg">
<mask id="path-1-outside-1_66_122" maskUnits="userSpaceOnUse" x="0.79541" y="0" width="281" height="46" fill="black">
<rect fill="white" x="0.79541" width="281" height="46"/>
<path d="M30.4114 5.592C31.1207 6.00267 31.6434 6.58134 31.9794 7.328C32.3527 8.03734 32.5394 8.82134 32.5394 9.68C32.5394 10.4267 32.3901 11.1733 32.0914 11.92C31.7927 12.6667 31.4007 13.2827 30.9154 13.768C30.3554 13.7307 29.5154 13.712 28.3954 13.712C27.6861 13.712 26.3981 13.7493 24.5314 13.824L21.5634 13.88C21.7501 12.7973 21.3021 15.3173 20.2194 21.44L19.0994 27.824C18.7261 30.0267 18.3341 32.92 17.9234 36.504C17.5501 39.5653 17.2141 41.712 16.9154 42.944C16.6541 44.176 16.2247 44.792 15.6274 44.792C14.7687 44.792 13.7421 44.4933 12.5474 43.896C11.3901 43.2613 10.3634 42.5147 9.46741 41.656C8.60874 40.7973 8.17941 40.088 8.17941 39.528C8.14208 38.6693 8.59008 36.1307 9.52341 31.912C10.2327 28.3653 10.7367 25.7333 11.0354 24.016C11.0354 24.0907 11.3341 22.5413 11.9314 19.368C12.4541 16.5307 12.7714 14.7947 12.8834 14.16L4.14741 15.224C3.43808 14.8507 2.85941 14.3093 2.41141 13.6C2.00074 12.8533 1.79541 12.0507 1.79541 11.192C1.79541 9.69867 2.37408 8.37334 3.53141 7.216C5.65941 6.91734 8.31008 6.73067 11.4834 6.656C14.6941 6.544 16.5981 6.46934 17.1954 6.432C21.1154 6.32 23.9714 6.22667 25.7634 6.152C27.5927 6.04 29.1421 5.85334 30.4114 5.592Z"/>
<path d="M42.4728 11.584C41.7635 11.584 40.9048 11.304 39.8968 10.744C38.9262 10.1467 38.0862 9.456 37.3768 8.672C36.6675 7.85067 36.3128 7.12267 36.3128 6.488C36.3128 5.48 36.5742 4.472 37.0968 3.464C37.6195 2.456 38.2728 1.728 39.0568 1.28C39.4302 1.09333 40.0275 1 40.8488 1C42.1928 1 43.5368 1.29867 44.8808 1.896C46.2622 2.49333 47.1022 3.24 47.4008 4.136C47.4755 4.32267 47.5128 4.60267 47.5128 4.976C47.5128 5.83467 47.2515 6.78667 46.7288 7.832C46.2062 8.87734 45.5528 9.77333 44.7688 10.52C43.9848 11.2293 43.2195 11.584 42.4728 11.584ZM38.6648 44.792C37.6942 44.792 36.5928 44.4747 35.3608 43.84C34.1662 43.168 33.1208 42.4027 32.2248 41.544C31.3662 40.648 30.9368 39.9013 30.9368 39.304C30.9368 38.632 31.1795 37.6427 31.6648 36.336C32.1502 35.0293 32.8782 33.2373 33.8488 30.96C34.5955 29.2053 35.1555 27.8427 35.5288 26.872C35.9022 25.864 36.0888 25.1547 36.0888 24.744C36.0888 24.4453 35.9022 24.128 35.5288 23.792C35.1928 23.4187 34.6702 22.9707 33.9608 22.448C33.1395 21.8133 32.5235 21.3093 32.1128 20.936C31.7395 20.5627 31.5528 20.1707 31.5528 19.76C31.5528 18.976 31.9075 18.0613 32.6168 17.016C33.3635 15.9707 34.2222 15.0747 35.1928 14.328C36.2008 13.5813 37.0595 13.208 37.7688 13.208C38.6275 13.208 39.5608 13.5813 40.5688 14.328C41.6142 15.0747 42.4915 15.9707 43.2008 17.016C43.9475 18.024 44.3208 18.8453 44.3208 19.48C44.3208 21.1227 43.8915 23.4747 43.0328 26.536C42.2115 29.56 41.1475 32.8267 39.8408 36.336C40.7368 35.9253 41.5208 35.496 42.1928 35.048C42.8648 34.6 43.7982 33.9093 44.9928 32.976C46.6728 33.536 47.9049 34.3387 48.6889 35.384C49.4729 36.392 49.8648 37.4933 49.8648 38.688C49.8648 39.6587 49.2302 40.6107 47.9608 41.544C46.7288 42.4773 45.2168 43.2613 43.4248 43.896C41.6328 44.4933 40.0462 44.792 38.6648 44.792Z"/>
<path d="M64.7477 25.976C67.6971 22.0933 69.9744 19.256 71.5797 17.464C73.1851 15.6347 74.4917 14.72 75.4997 14.72C76.2091 14.72 77.0304 15.0187 77.9637 15.616C78.9344 16.2133 79.7557 16.904 80.4277 17.688C81.1371 18.4347 81.4731 19.032 81.4357 19.48C81.3984 20.4133 81.2677 21.4213 81.0437 22.504C80.8197 23.5867 80.5024 24.912 80.0917 26.48C83.1904 22.5227 85.6171 19.5733 87.3717 17.632C89.1637 15.6907 90.5637 14.72 91.5717 14.72C92.2811 14.72 93.1397 15.0747 94.1477 15.784C95.1557 16.4933 96.0144 17.3147 96.7237 18.248C97.4704 19.144 97.8437 19.8347 97.8437 20.32C97.8064 20.9547 97.5451 22.0373 97.0597 23.568C96.5744 25.0987 95.8837 27.1333 94.9877 29.672C93.7931 32.9573 93.0277 35.1787 92.6917 36.336C93.8864 35.7013 94.8011 35.1787 95.4357 34.768C96.1077 34.32 96.8917 33.7227 97.7877 32.976C99.4304 33.536 100.662 34.32 101.484 35.328C102.305 36.2987 102.716 37.4187 102.716 38.688C102.716 39.584 102.062 40.5173 100.756 41.488C99.4864 42.4213 97.9744 43.2053 96.2197 43.84C94.4651 44.4747 92.9717 44.792 91.7397 44.792C90.9184 44.792 89.9477 44.456 88.8277 43.784C87.7077 43.112 86.7371 42.3467 85.9157 41.488C85.0944 40.592 84.6837 39.9013 84.6837 39.416C84.6837 39.1173 84.8704 38.408 85.2437 37.288C85.6171 36.1307 85.8597 35.3467 85.9717 34.936C86.6811 32.696 87.2037 30.9227 87.5397 29.616C87.9131 28.272 88.0997 27.2827 88.0997 26.648C88.0997 26.2 88.0064 25.976 87.8197 25.976C86.2517 25.976 83.4704 28.5893 79.4757 33.816C79.1771 34.8987 78.8971 36.2613 78.6357 37.904C78.1877 40.2933 77.7957 42.048 77.4597 43.168C77.1237 44.2507 76.6757 44.792 76.1157 44.792C75.3317 44.792 74.3611 44.456 73.2037 43.784C72.0464 43.112 71.0384 42.3467 70.1797 41.488C69.3211 40.592 68.8917 39.864 68.8917 39.304C68.8917 38.9307 69.3024 37.4747 70.1237 34.936C70.7957 32.808 71.3184 31.072 71.6917 29.728C72.0651 28.3467 72.2517 27.32 72.2517 26.648C72.2517 26.2 72.1397 25.976 71.9157 25.976C70.4224 25.976 67.6411 28.5893 63.5717 33.816C63.4224 34.4133 63.2544 35.16 63.0677 36.056C62.9184 36.952 62.8064 37.5867 62.7317 37.96C62.3211 40.1627 61.9291 41.8613 61.5557 43.056C61.2197 44.2133 60.7717 44.792 60.2117 44.792C59.2411 44.792 58.1397 44.4747 56.9077 43.84C55.7131 43.168 54.6677 42.4027 53.7717 41.544C52.9131 40.648 52.4837 39.9013 52.4837 39.304C52.4837 38.632 52.7264 37.6427 53.2117 36.336C53.6971 35.0293 54.4251 33.2373 55.3957 30.96C56.1424 29.2053 56.7024 27.8427 57.0757 26.872C57.4491 25.864 57.6357 25.1547 57.6357 24.744C57.6357 24.4453 57.4491 24.128 57.0757 23.792C56.7397 23.4187 56.2171 22.9707 55.5077 22.448C54.6864 21.8133 54.0704 21.3093 53.6597 20.936C53.2864 20.5627 53.0997 20.1707 53.0997 19.76C53.0997 18.976 53.4544 18.0613 54.1637 17.016C54.9104 15.9707 55.7691 15.0747 56.7397 14.328C57.7477 13.5813 58.6064 13.208 59.3157 13.208C60.0997 13.208 60.9957 13.5627 62.0037 14.272C63.0491 14.9813 63.9451 15.8027 64.6917 16.736C65.4757 17.632 65.8677 18.3227 65.8677 18.808C65.8677 19.704 65.7557 20.8053 65.5317 22.112C65.3451 23.4187 65.0837 24.7067 64.7477 25.976Z"/>
<path d="M117.575 44.792C115.783 44.792 113.916 44.2133 111.975 43.056C110.033 41.8613 108.428 40.4053 107.159 38.688C105.889 36.9707 105.255 35.3467 105.255 33.816C105.255 31.0907 105.889 28.104 107.159 24.856C108.465 21.608 110.257 18.864 112.535 16.624C114.812 14.3467 117.388 13.208 120.263 13.208C122.316 13.208 124.164 13.656 125.807 14.552C127.487 15.448 128.793 16.568 129.727 17.912C130.66 19.256 131.127 20.5627 131.127 21.832C131.127 23.4 130.417 24.9493 128.999 26.48C127.58 27.9733 125.601 29.2987 123.063 30.456C120.524 31.576 117.631 32.3787 114.383 32.864C114.345 33.312 114.327 33.984 114.327 34.88C114.327 36 114.364 36.84 114.439 37.4C116.305 37.2133 118.153 36.7093 119.983 35.888C121.812 35.0667 123.809 33.9093 125.975 32.416C127.431 32.864 128.532 33.5733 129.279 34.544C130.025 35.5147 130.399 36.672 130.399 38.016C130.399 39.136 129.708 40.2373 128.327 41.32C126.983 42.3653 125.303 43.2053 123.287 43.84C121.271 44.4747 119.367 44.792 117.575 44.792ZM115.223 28.664C117.5 27.8427 119.404 26.7973 120.935 25.528C122.465 24.2587 123.231 23.176 123.231 22.28C123.231 21.2347 122.503 20.5253 121.047 20.152C119.628 21.1973 118.415 22.448 117.407 23.904C116.436 25.36 115.708 26.9467 115.223 28.664Z"/>
<path d="M165.708 5.592C166.418 6.00267 166.94 6.58134 167.276 7.328C167.65 8.03734 167.836 8.82134 167.836 9.68C167.836 10.4267 167.687 11.1733 167.388 11.92C167.09 12.6667 166.698 13.2827 166.212 13.768C165.652 13.7307 164.812 13.712 163.692 13.712C162.983 13.712 161.695 13.7493 159.828 13.824L156.86 13.88C157.047 12.7973 156.599 15.3173 155.516 21.44L154.396 27.824C154.023 30.0267 153.631 32.92 153.22 36.504C152.847 39.5653 152.511 41.712 152.212 42.944C151.951 44.176 151.522 44.792 150.924 44.792C150.066 44.792 149.039 44.4933 147.844 43.896C146.687 43.2613 145.66 42.5147 144.764 41.656C143.906 40.7973 143.476 40.088 143.476 39.528C143.439 38.6693 143.887 36.1307 144.82 31.912C145.53 28.3653 146.034 25.7333 146.332 24.016C146.332 24.0907 146.631 22.5413 147.228 19.368C147.751 16.5307 148.068 14.7947 148.18 14.16L139.444 15.224C138.735 14.8507 138.156 14.3093 137.708 13.6C137.298 12.8533 137.092 12.0507 137.092 11.192C137.092 9.69867 137.671 8.37334 138.828 7.216C140.956 6.91734 143.607 6.73067 146.78 6.656C149.991 6.544 151.895 6.46934 152.492 6.432C156.412 6.32 159.268 6.22667 161.06 6.152C162.89 6.04 164.439 5.85334 165.708 5.592Z"/>
<path d="M189.373 36.56C191.65 35.44 193.573 34.2453 195.141 32.976C196.783 33.536 197.997 34.32 198.781 35.328C199.602 36.2987 200.013 37.4187 200.013 38.688C200.013 39.584 199.378 40.5173 198.109 41.488C196.839 42.4213 195.327 43.2053 193.573 43.84C191.818 44.4747 190.325 44.792 189.093 44.792C188.234 44.792 187.245 44.4747 186.125 43.84C185.042 43.2053 184.09 42.4587 183.269 41.6C182.485 40.7413 182.093 40.0693 182.093 39.584C182.093 39.2107 182.242 38.7067 182.541 38.072C182.877 37.4373 183.231 36.784 183.605 36.112C183.978 35.44 184.221 34.992 184.333 34.768L182.933 33.984C180.954 37.232 179.05 39.8453 177.221 41.824C175.429 43.8027 173.655 44.792 171.901 44.792C170.706 44.792 169.437 44.2693 168.093 43.224C166.786 42.1787 165.666 40.9093 164.733 39.416C163.837 37.9227 163.389 36.5973 163.389 35.44C163.389 32.1173 164.079 28.72 165.461 25.248C166.842 21.776 168.765 18.9013 171.229 16.624C173.73 14.3467 176.549 13.208 179.685 13.208C180.805 13.208 181.943 13.712 183.101 14.72C184.258 15.728 185.005 16.7547 185.341 17.8C185.527 16.9787 185.789 16.2693 186.125 15.672C186.498 15.0373 186.89 14.72 187.301 14.72C188.271 14.72 189.335 15.0747 190.493 15.784C191.687 16.456 192.695 17.2587 193.517 18.192C194.338 19.088 194.749 19.7973 194.749 20.32C194.711 21.0293 194.413 22.2053 193.853 23.848C193.33 25.4907 192.471 27.992 191.277 31.352C190.567 33.1813 189.933 34.9173 189.373 36.56ZM172.181 37.008C175.205 35.1413 177.837 32.8453 180.077 30.12C182.317 27.3573 183.847 24.3147 184.669 20.992C183.661 20.544 182.709 20.32 181.813 20.32C180.058 20.32 178.49 21.104 177.109 22.672C175.727 24.24 174.626 26.2933 173.805 28.832C172.983 31.3707 172.442 34.096 172.181 37.008Z"/>
<path d="M220.352 15.112C222.405 15.1493 224.253 15.5413 225.896 16.288C227.538 17.0347 228.826 18.0613 229.76 19.368C230.73 20.6747 231.216 22.1493 231.216 23.792C231.216 26.6293 230.376 29.7093 228.696 33.032C227.016 36.3173 224.757 39.0987 221.92 41.376C219.12 43.6533 216.133 44.792 212.96 44.792C211.317 44.792 209.693 44.232 208.088 43.112C206.482 41.992 205.157 40.6667 204.112 39.136C203.066 37.6053 202.544 36.3173 202.544 35.272C202.544 32.808 203.365 28.72 205.008 23.008C205.717 20.656 206.37 17.408 206.968 13.264C207.565 9.12 207.882 6.096 207.92 4.192C207.957 3.408 208.218 2.75467 208.704 2.232C209.226 1.672 209.842 1.392 210.552 1.392C211.56 1.392 212.68 1.784 213.912 2.568C215.181 3.31467 216.245 4.21067 217.104 5.256C218 6.264 218.448 7.12267 218.448 7.832C218.41 9.624 217.57 12.648 215.928 16.904L220.352 15.112ZM212.96 37.736C214.304 37.736 215.666 36.952 217.048 35.384C218.466 33.816 219.624 31.9493 220.52 29.784C221.453 27.6187 221.92 25.752 221.92 24.184C221.92 23.7733 221.584 23.344 220.912 22.896C220.24 22.448 219.437 22.0747 218.504 21.776C217.608 21.44 216.805 21.272 216.096 21.272C215.685 21.272 215.349 21.3467 215.088 21.496C214.49 21.832 213.912 22.7093 213.352 24.128C212.792 25.5093 212.325 27.1147 211.952 28.944C211.616 30.7733 211.448 32.4347 211.448 33.928C211.448 35.0853 211.56 36.0187 211.784 36.728C212.045 37.4 212.437 37.736 212.96 37.736Z"/>
<path d="M240.906 44.792C239.823 44.792 238.61 44.4747 237.266 43.84C235.959 43.168 234.839 42.4027 233.906 41.544C232.972 40.648 232.506 39.8827 232.506 39.248C232.506 38.6133 232.767 37.0453 233.29 34.544C233.812 32.0427 234.148 30.4373 234.298 29.728C235.418 24.576 236.164 21.0107 236.538 19.032L237.098 15.896C237.882 11.5653 238.591 8.07467 239.226 5.424C239.898 2.77334 240.57 1.448 241.242 1.448C242.026 1.448 243.052 1.784 244.322 2.456C245.628 3.128 246.767 3.912 247.738 4.808C248.708 5.704 249.194 6.488 249.194 7.16C249.194 8.056 249.026 8.93334 248.69 9.792C248.391 10.6133 247.924 11.696 247.29 13.04C246.692 14.1973 246.282 15.0933 246.058 15.728C245.348 17.9307 244.583 20.992 243.762 24.912C242.978 28.832 242.324 32.6213 241.802 36.28C242.996 35.6827 243.93 35.1787 244.602 34.768C245.274 34.32 246.058 33.7227 246.954 32.976C248.596 33.536 249.81 34.32 250.594 35.328C251.415 36.2987 251.826 37.4187 251.826 38.688C251.826 39.584 251.191 40.5173 249.922 41.488C248.652 42.4213 247.14 43.2053 245.386 43.84C243.631 44.4747 242.138 44.792 240.906 44.792Z"/>
<path d="M266.653 44.792C264.861 44.792 262.994 44.2133 261.053 43.056C259.111 41.8613 257.506 40.4053 256.237 38.688C254.967 36.9707 254.333 35.3467 254.333 33.816C254.333 31.0907 254.967 28.104 256.237 24.856C257.543 21.608 259.335 18.864 261.613 16.624C263.89 14.3467 266.466 13.208 269.341 13.208C271.394 13.208 273.242 13.656 274.885 14.552C276.565 15.448 277.871 16.568 278.805 17.912C279.738 19.256 280.205 20.5627 280.205 21.832C280.205 23.4 279.495 24.9493 278.077 26.48C276.658 27.9733 274.679 29.2987 272.141 30.456C269.602 31.576 266.709 32.3787 263.461 32.864C263.423 33.312 263.405 33.984 263.405 34.88C263.405 36 263.442 36.84 263.517 37.4C265.383 37.2133 267.231 36.7093 269.061 35.888C270.89 35.0667 272.887 33.9093 275.053 32.416C276.509 32.864 277.61 33.5733 278.357 34.544C279.103 35.5147 279.477 36.672 279.477 38.016C279.477 39.136 278.786 40.2373 277.405 41.32C276.061 42.3653 274.381 43.2053 272.365 43.84C270.349 44.4747 268.445 44.792 266.653 44.792ZM264.301 28.664C266.578 27.8427 268.482 26.7973 270.013 25.528C271.543 24.2587 272.309 23.176 272.309 22.28C272.309 21.2347 271.581 20.5253 270.125 20.152C268.706 21.1973 267.493 22.448 266.485 23.904C265.514 25.36 264.786 26.9467 264.301 28.664Z"/>
</mask>
<path d="M30.4114 5.592C31.1207 6.00267 31.6434 6.58134 31.9794 7.328C32.3527 8.03734 32.5394 8.82134 32.5394 9.68C32.5394 10.4267 32.3901 11.1733 32.0914 11.92C31.7927 12.6667 31.4007 13.2827 30.9154 13.768C30.3554 13.7307 29.5154 13.712 28.3954 13.712C27.6861 13.712 26.3981 13.7493 24.5314 13.824L21.5634 13.88C21.7501 12.7973 21.3021 15.3173 20.2194 21.44L19.0994 27.824C18.7261 30.0267 18.3341 32.92 17.9234 36.504C17.5501 39.5653 17.2141 41.712 16.9154 42.944C16.6541 44.176 16.2247 44.792 15.6274 44.792C14.7687 44.792 13.7421 44.4933 12.5474 43.896C11.3901 43.2613 10.3634 42.5147 9.46741 41.656C8.60874 40.7973 8.17941 40.088 8.17941 39.528C8.14208 38.6693 8.59008 36.1307 9.52341 31.912C10.2327 28.3653 10.7367 25.7333 11.0354 24.016C11.0354 24.0907 11.3341 22.5413 11.9314 19.368C12.4541 16.5307 12.7714 14.7947 12.8834 14.16L4.14741 15.224C3.43808 14.8507 2.85941 14.3093 2.41141 13.6C2.00074 12.8533 1.79541 12.0507 1.79541 11.192C1.79541 9.69867 2.37408 8.37334 3.53141 7.216C5.65941 6.91734 8.31008 6.73067 11.4834 6.656C14.6941 6.544 16.5981 6.46934 17.1954 6.432C21.1154 6.32 23.9714 6.22667 25.7634 6.152C27.5927 6.04 29.1421 5.85334 30.4114 5.592Z" fill="#00AB4F"/>
<path d="M42.4728 11.584C41.7635 11.584 40.9048 11.304 39.8968 10.744C38.9262 10.1467 38.0862 9.456 37.3768 8.672C36.6675 7.85067 36.3128 7.12267 36.3128 6.488C36.3128 5.48 36.5742 4.472 37.0968 3.464C37.6195 2.456 38.2728 1.728 39.0568 1.28C39.4302 1.09333 40.0275 1 40.8488 1C42.1928 1 43.5368 1.29867 44.8808 1.896C46.2622 2.49333 47.1022 3.24 47.4008 4.136C47.4755 4.32267 47.5128 4.60267 47.5128 4.976C47.5128 5.83467 47.2515 6.78667 46.7288 7.832C46.2062 8.87734 45.5528 9.77333 44.7688 10.52C43.9848 11.2293 43.2195 11.584 42.4728 11.584ZM38.6648 44.792C37.6942 44.792 36.5928 44.4747 35.3608 43.84C34.1662 43.168 33.1208 42.4027 32.2248 41.544C31.3662 40.648 30.9368 39.9013 30.9368 39.304C30.9368 38.632 31.1795 37.6427 31.6648 36.336C32.1502 35.0293 32.8782 33.2373 33.8488 30.96C34.5955 29.2053 35.1555 27.8427 35.5288 26.872C35.9022 25.864 36.0888 25.1547 36.0888 24.744C36.0888 24.4453 35.9022 24.128 35.5288 23.792C35.1928 23.4187 34.6702 22.9707 33.9608 22.448C33.1395 21.8133 32.5235 21.3093 32.1128 20.936C31.7395 20.5627 31.5528 20.1707 31.5528 19.76C31.5528 18.976 31.9075 18.0613 32.6168 17.016C33.3635 15.9707 34.2222 15.0747 35.1928 14.328C36.2008 13.5813 37.0595 13.208 37.7688 13.208C38.6275 13.208 39.5608 13.5813 40.5688 14.328C41.6142 15.0747 42.4915 15.9707 43.2008 17.016C43.9475 18.024 44.3208 18.8453 44.3208 19.48C44.3208 21.1227 43.8915 23.4747 43.0328 26.536C42.2115 29.56 41.1475 32.8267 39.8408 36.336C40.7368 35.9253 41.5208 35.496 42.1928 35.048C42.8648 34.6 43.7982 33.9093 44.9928 32.976C46.6728 33.536 47.9049 34.3387 48.6889 35.384C49.4729 36.392 49.8648 37.4933 49.8648 38.688C49.8648 39.6587 49.2302 40.6107 47.9608 41.544C46.7288 42.4773 45.2168 43.2613 43.4248 43.896C41.6328 44.4933 40.0462 44.792 38.6648 44.792Z" fill="#00AB4F"/>
<path d="M64.7477 25.976C67.6971 22.0933 69.9744 19.256 71.5797 17.464C73.1851 15.6347 74.4917 14.72 75.4997 14.72C76.2091 14.72 77.0304 15.0187 77.9637 15.616C78.9344 16.2133 79.7557 16.904 80.4277 17.688C81.1371 18.4347 81.4731 19.032 81.4357 19.48C81.3984 20.4133 81.2677 21.4213 81.0437 22.504C80.8197 23.5867 80.5024 24.912 80.0917 26.48C83.1904 22.5227 85.6171 19.5733 87.3717 17.632C89.1637 15.6907 90.5637 14.72 91.5717 14.72C92.2811 14.72 93.1397 15.0747 94.1477 15.784C95.1557 16.4933 96.0144 17.3147 96.7237 18.248C97.4704 19.144 97.8437 19.8347 97.8437 20.32C97.8064 20.9547 97.5451 22.0373 97.0597 23.568C96.5744 25.0987 95.8837 27.1333 94.9877 29.672C93.7931 32.9573 93.0277 35.1787 92.6917 36.336C93.8864 35.7013 94.8011 35.1787 95.4357 34.768C96.1077 34.32 96.8917 33.7227 97.7877 32.976C99.4304 33.536 100.662 34.32 101.484 35.328C102.305 36.2987 102.716 37.4187 102.716 38.688C102.716 39.584 102.062 40.5173 100.756 41.488C99.4864 42.4213 97.9744 43.2053 96.2197 43.84C94.4651 44.4747 92.9717 44.792 91.7397 44.792C90.9184 44.792 89.9477 44.456 88.8277 43.784C87.7077 43.112 86.7371 42.3467 85.9157 41.488C85.0944 40.592 84.6837 39.9013 84.6837 39.416C84.6837 39.1173 84.8704 38.408 85.2437 37.288C85.6171 36.1307 85.8597 35.3467 85.9717 34.936C86.6811 32.696 87.2037 30.9227 87.5397 29.616C87.9131 28.272 88.0997 27.2827 88.0997 26.648C88.0997 26.2 88.0064 25.976 87.8197 25.976C86.2517 25.976 83.4704 28.5893 79.4757 33.816C79.1771 34.8987 78.8971 36.2613 78.6357 37.904C78.1877 40.2933 77.7957 42.048 77.4597 43.168C77.1237 44.2507 76.6757 44.792 76.1157 44.792C75.3317 44.792 74.3611 44.456 73.2037 43.784C72.0464 43.112 71.0384 42.3467 70.1797 41.488C69.3211 40.592 68.8917 39.864 68.8917 39.304C68.8917 38.9307 69.3024 37.4747 70.1237 34.936C70.7957 32.808 71.3184 31.072 71.6917 29.728C72.0651 28.3467 72.2517 27.32 72.2517 26.648C72.2517 26.2 72.1397 25.976 71.9157 25.976C70.4224 25.976 67.6411 28.5893 63.5717 33.816C63.4224 34.4133 63.2544 35.16 63.0677 36.056C62.9184 36.952 62.8064 37.5867 62.7317 37.96C62.3211 40.1627 61.9291 41.8613 61.5557 43.056C61.2197 44.2133 60.7717 44.792 60.2117 44.792C59.2411 44.792 58.1397 44.4747 56.9077 43.84C55.7131 43.168 54.6677 42.4027 53.7717 41.544C52.9131 40.648 52.4837 39.9013 52.4837 39.304C52.4837 38.632 52.7264 37.6427 53.2117 36.336C53.6971 35.0293 54.4251 33.2373 55.3957 30.96C56.1424 29.2053 56.7024 27.8427 57.0757 26.872C57.4491 25.864 57.6357 25.1547 57.6357 24.744C57.6357 24.4453 57.4491 24.128 57.0757 23.792C56.7397 23.4187 56.2171 22.9707 55.5077 22.448C54.6864 21.8133 54.0704 21.3093 53.6597 20.936C53.2864 20.5627 53.0997 20.1707 53.0997 19.76C53.0997 18.976 53.4544 18.0613 54.1637 17.016C54.9104 15.9707 55.7691 15.0747 56.7397 14.328C57.7477 13.5813 58.6064 13.208 59.3157 13.208C60.0997 13.208 60.9957 13.5627 62.0037 14.272C63.0491 14.9813 63.9451 15.8027 64.6917 16.736C65.4757 17.632 65.8677 18.3227 65.8677 18.808C65.8677 19.704 65.7557 20.8053 65.5317 22.112C65.3451 23.4187 65.0837 24.7067 64.7477 25.976Z" fill="#00AB4F"/>
<path d="M117.575 44.792C115.783 44.792 113.916 44.2133 111.975 43.056C110.033 41.8613 108.428 40.4053 107.159 38.688C105.889 36.9707 105.255 35.3467 105.255 33.816C105.255 31.0907 105.889 28.104 107.159 24.856C108.465 21.608 110.257 18.864 112.535 16.624C114.812 14.3467 117.388 13.208 120.263 13.208C122.316 13.208 124.164 13.656 125.807 14.552C127.487 15.448 128.793 16.568 129.727 17.912C130.66 19.256 131.127 20.5627 131.127 21.832C131.127 23.4 130.417 24.9493 128.999 26.48C127.58 27.9733 125.601 29.2987 123.063 30.456C120.524 31.576 117.631 32.3787 114.383 32.864C114.345 33.312 114.327 33.984 114.327 34.88C114.327 36 114.364 36.84 114.439 37.4C116.305 37.2133 118.153 36.7093 119.983 35.888C121.812 35.0667 123.809 33.9093 125.975 32.416C127.431 32.864 128.532 33.5733 129.279 34.544C130.025 35.5147 130.399 36.672 130.399 38.016C130.399 39.136 129.708 40.2373 128.327 41.32C126.983 42.3653 125.303 43.2053 123.287 43.84C121.271 44.4747 119.367 44.792 117.575 44.792ZM115.223 28.664C117.5 27.8427 119.404 26.7973 120.935 25.528C122.465 24.2587 123.231 23.176 123.231 22.28C123.231 21.2347 122.503 20.5253 121.047 20.152C119.628 21.1973 118.415 22.448 117.407 23.904C116.436 25.36 115.708 26.9467 115.223 28.664Z" fill="#00AB4F"/>
<path d="M165.708 5.592C166.418 6.00267 166.94 6.58134 167.276 7.328C167.65 8.03734 167.836 8.82134 167.836 9.68C167.836 10.4267 167.687 11.1733 167.388 11.92C167.09 12.6667 166.698 13.2827 166.212 13.768C165.652 13.7307 164.812 13.712 163.692 13.712C162.983 13.712 161.695 13.7493 159.828 13.824L156.86 13.88C157.047 12.7973 156.599 15.3173 155.516 21.44L154.396 27.824C154.023 30.0267 153.631 32.92 153.22 36.504C152.847 39.5653 152.511 41.712 152.212 42.944C151.951 44.176 151.522 44.792 150.924 44.792C150.066 44.792 149.039 44.4933 147.844 43.896C146.687 43.2613 145.66 42.5147 144.764 41.656C143.906 40.7973 143.476 40.088 143.476 39.528C143.439 38.6693 143.887 36.1307 144.82 31.912C145.53 28.3653 146.034 25.7333 146.332 24.016C146.332 24.0907 146.631 22.5413 147.228 19.368C147.751 16.5307 148.068 14.7947 148.18 14.16L139.444 15.224C138.735 14.8507 138.156 14.3093 137.708 13.6C137.298 12.8533 137.092 12.0507 137.092 11.192C137.092 9.69867 137.671 8.37334 138.828 7.216C140.956 6.91734 143.607 6.73067 146.78 6.656C149.991 6.544 151.895 6.46934 152.492 6.432C156.412 6.32 159.268 6.22667 161.06 6.152C162.89 6.04 164.439 5.85334 165.708 5.592Z" fill="#00AB4F"/>
<path d="M189.373 36.56C191.65 35.44 193.573 34.2453 195.141 32.976C196.783 33.536 197.997 34.32 198.781 35.328C199.602 36.2987 200.013 37.4187 200.013 38.688C200.013 39.584 199.378 40.5173 198.109 41.488C196.839 42.4213 195.327 43.2053 193.573 43.84C191.818 44.4747 190.325 44.792 189.093 44.792C188.234 44.792 187.245 44.4747 186.125 43.84C185.042 43.2053 184.09 42.4587 183.269 41.6C182.485 40.7413 182.093 40.0693 182.093 39.584C182.093 39.2107 182.242 38.7067 182.541 38.072C182.877 37.4373 183.231 36.784 183.605 36.112C183.978 35.44 184.221 34.992 184.333 34.768L182.933 33.984C180.954 37.232 179.05 39.8453 177.221 41.824C175.429 43.8027 173.655 44.792 171.901 44.792C170.706 44.792 169.437 44.2693 168.093 43.224C166.786 42.1787 165.666 40.9093 164.733 39.416C163.837 37.9227 163.389 36.5973 163.389 35.44C163.389 32.1173 164.079 28.72 165.461 25.248C166.842 21.776 168.765 18.9013 171.229 16.624C173.73 14.3467 176.549 13.208 179.685 13.208C180.805 13.208 181.943 13.712 183.101 14.72C184.258 15.728 185.005 16.7547 185.341 17.8C185.527 16.9787 185.789 16.2693 186.125 15.672C186.498 15.0373 186.89 14.72 187.301 14.72C188.271 14.72 189.335 15.0747 190.493 15.784C191.687 16.456 192.695 17.2587 193.517 18.192C194.338 19.088 194.749 19.7973 194.749 20.32C194.711 21.0293 194.413 22.2053 193.853 23.848C193.33 25.4907 192.471 27.992 191.277 31.352C190.567 33.1813 189.933 34.9173 189.373 36.56ZM172.181 37.008C175.205 35.1413 177.837 32.8453 180.077 30.12C182.317 27.3573 183.847 24.3147 184.669 20.992C183.661 20.544 182.709 20.32 181.813 20.32C180.058 20.32 178.49 21.104 177.109 22.672C175.727 24.24 174.626 26.2933 173.805 28.832C172.983 31.3707 172.442 34.096 172.181 37.008Z" fill="#00AB4F"/>
<path d="M220.352 15.112C222.405 15.1493 224.253 15.5413 225.896 16.288C227.538 17.0347 228.826 18.0613 229.76 19.368C230.73 20.6747 231.216 22.1493 231.216 23.792C231.216 26.6293 230.376 29.7093 228.696 33.032C227.016 36.3173 224.757 39.0987 221.92 41.376C219.12 43.6533 216.133 44.792 212.96 44.792C211.317 44.792 209.693 44.232 208.088 43.112C206.482 41.992 205.157 40.6667 204.112 39.136C203.066 37.6053 202.544 36.3173 202.544 35.272C202.544 32.808 203.365 28.72 205.008 23.008C205.717 20.656 206.37 17.408 206.968 13.264C207.565 9.12 207.882 6.096 207.92 4.192C207.957 3.408 208.218 2.75467 208.704 2.232C209.226 1.672 209.842 1.392 210.552 1.392C211.56 1.392 212.68 1.784 213.912 2.568C215.181 3.31467 216.245 4.21067 217.104 5.256C218 6.264 218.448 7.12267 218.448 7.832C218.41 9.624 217.57 12.648 215.928 16.904L220.352 15.112ZM212.96 37.736C214.304 37.736 215.666 36.952 217.048 35.384C218.466 33.816 219.624 31.9493 220.52 29.784C221.453 27.6187 221.92 25.752 221.92 24.184C221.92 23.7733 221.584 23.344 220.912 22.896C220.24 22.448 219.437 22.0747 218.504 21.776C217.608 21.44 216.805 21.272 216.096 21.272C215.685 21.272 215.349 21.3467 215.088 21.496C214.49 21.832 213.912 22.7093 213.352 24.128C212.792 25.5093 212.325 27.1147 211.952 28.944C211.616 30.7733 211.448 32.4347 211.448 33.928C211.448 35.0853 211.56 36.0187 211.784 36.728C212.045 37.4 212.437 37.736 212.96 37.736Z" fill="#00AB4F"/>
<path d="M240.906 44.792C239.823 44.792 238.61 44.4747 237.266 43.84C235.959 43.168 234.839 42.4027 233.906 41.544C232.972 40.648 232.506 39.8827 232.506 39.248C232.506 38.6133 232.767 37.0453 233.29 34.544C233.812 32.0427 234.148 30.4373 234.298 29.728C235.418 24.576 236.164 21.0107 236.538 19.032L237.098 15.896C237.882 11.5653 238.591 8.07467 239.226 5.424C239.898 2.77334 240.57 1.448 241.242 1.448C242.026 1.448 243.052 1.784 244.322 2.456C245.628 3.128 246.767 3.912 247.738 4.808C248.708 5.704 249.194 6.488 249.194 7.16C249.194 8.056 249.026 8.93334 248.69 9.792C248.391 10.6133 247.924 11.696 247.29 13.04C246.692 14.1973 246.282 15.0933 246.058 15.728C245.348 17.9307 244.583 20.992 243.762 24.912C242.978 28.832 242.324 32.6213 241.802 36.28C242.996 35.6827 243.93 35.1787 244.602 34.768C245.274 34.32 246.058 33.7227 246.954 32.976C248.596 33.536 249.81 34.32 250.594 35.328C251.415 36.2987 251.826 37.4187 251.826 38.688C251.826 39.584 251.191 40.5173 249.922 41.488C248.652 42.4213 247.14 43.2053 245.386 43.84C243.631 44.4747 242.138 44.792 240.906 44.792Z" fill="#00AB4F"/>
<path d="M266.653 44.792C264.861 44.792 262.994 44.2133 261.053 43.056C259.111 41.8613 257.506 40.4053 256.237 38.688C254.967 36.9707 254.333 35.3467 254.333 33.816C254.333 31.0907 254.967 28.104 256.237 24.856C257.543 21.608 259.335 18.864 261.613 16.624C263.89 14.3467 266.466 13.208 269.341 13.208C271.394 13.208 273.242 13.656 274.885 14.552C276.565 15.448 277.871 16.568 278.805 17.912C279.738 19.256 280.205 20.5627 280.205 21.832C280.205 23.4 279.495 24.9493 278.077 26.48C276.658 27.9733 274.679 29.2987 272.141 30.456C269.602 31.576 266.709 32.3787 263.461 32.864C263.423 33.312 263.405 33.984 263.405 34.88C263.405 36 263.442 36.84 263.517 37.4C265.383 37.2133 267.231 36.7093 269.061 35.888C270.89 35.0667 272.887 33.9093 275.053 32.416C276.509 32.864 277.61 33.5733 278.357 34.544C279.103 35.5147 279.477 36.672 279.477 38.016C279.477 39.136 278.786 40.2373 277.405 41.32C276.061 42.3653 274.381 43.2053 272.365 43.84C270.349 44.4747 268.445 44.792 266.653 44.792ZM264.301 28.664C266.578 27.8427 268.482 26.7973 270.013 25.528C271.543 24.2587 272.309 23.176 272.309 22.28C272.309 21.2347 271.581 20.5253 270.125 20.152C268.706 21.1973 267.493 22.448 266.485 23.904C265.514 25.36 264.786 26.9467 264.301 28.664Z" fill="#00AB4F"/>
<path d="M30.4114 5.592C31.1207 6.00267 31.6434 6.58134 31.9794 7.328C32.3527 8.03734 32.5394 8.82134 32.5394 9.68C32.5394 10.4267 32.3901 11.1733 32.0914 11.92C31.7927 12.6667 31.4007 13.2827 30.9154 13.768C30.3554 13.7307 29.5154 13.712 28.3954 13.712C27.6861 13.712 26.3981 13.7493 24.5314 13.824L21.5634 13.88C21.7501 12.7973 21.3021 15.3173 20.2194 21.44L19.0994 27.824C18.7261 30.0267 18.3341 32.92 17.9234 36.504C17.5501 39.5653 17.2141 41.712 16.9154 42.944C16.6541 44.176 16.2247 44.792 15.6274 44.792C14.7687 44.792 13.7421 44.4933 12.5474 43.896C11.3901 43.2613 10.3634 42.5147 9.46741 41.656C8.60874 40.7973 8.17941 40.088 8.17941 39.528C8.14208 38.6693 8.59008 36.1307 9.52341 31.912C10.2327 28.3653 10.7367 25.7333 11.0354 24.016C11.0354 24.0907 11.3341 22.5413 11.9314 19.368C12.4541 16.5307 12.7714 14.7947 12.8834 14.16L4.14741 15.224C3.43808 14.8507 2.85941 14.3093 2.41141 13.6C2.00074 12.8533 1.79541 12.0507 1.79541 11.192C1.79541 9.69867 2.37408 8.37334 3.53141 7.216C5.65941 6.91734 8.31008 6.73067 11.4834 6.656C14.6941 6.544 16.5981 6.46934 17.1954 6.432C21.1154 6.32 23.9714 6.22667 25.7634 6.152C27.5927 6.04 29.1421 5.85334 30.4114 5.592Z" stroke="#007938" stroke-width="2" mask="url(#path-1-outside-1_66_122)"/>
<path d="M42.4728 11.584C41.7635 11.584 40.9048 11.304 39.8968 10.744C38.9262 10.1467 38.0862 9.456 37.3768 8.672C36.6675 7.85067 36.3128 7.12267 36.3128 6.488C36.3128 5.48 36.5742 4.472 37.0968 3.464C37.6195 2.456 38.2728 1.728 39.0568 1.28C39.4302 1.09333 40.0275 1 40.8488 1C42.1928 1 43.5368 1.29867 44.8808 1.896C46.2622 2.49333 47.1022 3.24 47.4008 4.136C47.4755 4.32267 47.5128 4.60267 47.5128 4.976C47.5128 5.83467 47.2515 6.78667 46.7288 7.832C46.2062 8.87734 45.5528 9.77333 44.7688 10.52C43.9848 11.2293 43.2195 11.584 42.4728 11.584ZM38.6648 44.792C37.6942 44.792 36.5928 44.4747 35.3608 43.84C34.1662 43.168 33.1208 42.4027 32.2248 41.544C31.3662 40.648 30.9368 39.9013 30.9368 39.304C30.9368 38.632 31.1795 37.6427 31.6648 36.336C32.1502 35.0293 32.8782 33.2373 33.8488 30.96C34.5955 29.2053 35.1555 27.8427 35.5288 26.872C35.9022 25.864 36.0888 25.1547 36.0888 24.744C36.0888 24.4453 35.9022 24.128 35.5288 23.792C35.1928 23.4187 34.6702 22.9707 33.9608 22.448C33.1395 21.8133 32.5235 21.3093 32.1128 20.936C31.7395 20.5627 31.5528 20.1707 31.5528 19.76C31.5528 18.976 31.9075 18.0613 32.6168 17.016C33.3635 15.9707 34.2222 15.0747 35.1928 14.328C36.2008 13.5813 37.0595 13.208 37.7688 13.208C38.6275 13.208 39.5608 13.5813 40.5688 14.328C41.6142 15.0747 42.4915 15.9707 43.2008 17.016C43.9475 18.024 44.3208 18.8453 44.3208 19.48C44.3208 21.1227 43.8915 23.4747 43.0328 26.536C42.2115 29.56 41.1475 32.8267 39.8408 36.336C40.7368 35.9253 41.5208 35.496 42.1928 35.048C42.8648 34.6 43.7982 33.9093 44.9928 32.976C46.6728 33.536 47.9049 34.3387 48.6889 35.384C49.4729 36.392 49.8648 37.4933 49.8648 38.688C49.8648 39.6587 49.2302 40.6107 47.9608 41.544C46.7288 42.4773 45.2168 43.2613 43.4248 43.896C41.6328 44.4933 40.0462 44.792 38.6648 44.792Z" stroke="#007938" stroke-width="2" mask="url(#path-1-outside-1_66_122)"/>
<path d="M64.7477 25.976C67.6971 22.0933 69.9744 19.256 71.5797 17.464C73.1851 15.6347 74.4917 14.72 75.4997 14.72C76.2091 14.72 77.0304 15.0187 77.9637 15.616C78.9344 16.2133 79.7557 16.904 80.4277 17.688C81.1371 18.4347 81.4731 19.032 81.4357 19.48C81.3984 20.4133 81.2677 21.4213 81.0437 22.504C80.8197 23.5867 80.5024 24.912 80.0917 26.48C83.1904 22.5227 85.6171 19.5733 87.3717 17.632C89.1637 15.6907 90.5637 14.72 91.5717 14.72C92.2811 14.72 93.1397 15.0747 94.1477 15.784C95.1557 16.4933 96.0144 17.3147 96.7237 18.248C97.4704 19.144 97.8437 19.8347 97.8437 20.32C97.8064 20.9547 97.5451 22.0373 97.0597 23.568C96.5744 25.0987 95.8837 27.1333 94.9877 29.672C93.7931 32.9573 93.0277 35.1787 92.6917 36.336C93.8864 35.7013 94.8011 35.1787 95.4357 34.768C96.1077 34.32 96.8917 33.7227 97.7877 32.976C99.4304 33.536 100.662 34.32 101.484 35.328C102.305 36.2987 102.716 37.4187 102.716 38.688C102.716 39.584 102.062 40.5173 100.756 41.488C99.4864 42.4213 97.9744 43.2053 96.2197 43.84C94.4651 44.4747 92.9717 44.792 91.7397 44.792C90.9184 44.792 89.9477 44.456 88.8277 43.784C87.7077 43.112 86.7371 42.3467 85.9157 41.488C85.0944 40.592 84.6837 39.9013 84.6837 39.416C84.6837 39.1173 84.8704 38.408 85.2437 37.288C85.6171 36.1307 85.8597 35.3467 85.9717 34.936C86.6811 32.696 87.2037 30.9227 87.5397 29.616C87.9131 28.272 88.0997 27.2827 88.0997 26.648C88.0997 26.2 88.0064 25.976 87.8197 25.976C86.2517 25.976 83.4704 28.5893 79.4757 33.816C79.1771 34.8987 78.8971 36.2613 78.6357 37.904C78.1877 40.2933 77.7957 42.048 77.4597 43.168C77.1237 44.2507 76.6757 44.792 76.1157 44.792C75.3317 44.792 74.3611 44.456 73.2037 43.784C72.0464 43.112 71.0384 42.3467 70.1797 41.488C69.3211 40.592 68.8917 39.864 68.8917 39.304C68.8917 38.9307 69.3024 37.4747 70.1237 34.936C70.7957 32.808 71.3184 31.072 71.6917 29.728C72.0651 28.3467 72.2517 27.32 72.2517 26.648C72.2517 26.2 72.1397 25.976 71.9157 25.976C70.4224 25.976 67.6411 28.5893 63.5717 33.816C63.4224 34.4133 63.2544 35.16 63.0677 36.056C62.9184 36.952 62.8064 37.5867 62.7317 37.96C62.3211 40.1627 61.9291 41.8613 61.5557 43.056C61.2197 44.2133 60.7717 44.792 60.2117 44.792C59.2411 44.792 58.1397 44.4747 56.9077 43.84C55.7131 43.168 54.6677 42.4027 53.7717 41.544C52.9131 40.648 52.4837 39.9013 52.4837 39.304C52.4837 38.632 52.7264 37.6427 53.2117 36.336C53.6971 35.0293 54.4251 33.2373 55.3957 30.96C56.1424 29.2053 56.7024 27.8427 57.0757 26.872C57.4491 25.864 57.6357 25.1547 57.6357 24.744C57.6357 24.4453 57.4491 24.128 57.0757 23.792C56.7397 23.4187 56.2171 22.9707 55.5077 22.448C54.6864 21.8133 54.0704 21.3093 53.6597 20.936C53.2864 20.5627 53.0997 20.1707 53.0997 19.76C53.0997 18.976 53.4544 18.0613 54.1637 17.016C54.9104 15.9707 55.7691 15.0747 56.7397 14.328C57.7477 13.5813 58.6064 13.208 59.3157 13.208C60.0997 13.208 60.9957 13.5627 62.0037 14.272C63.0491 14.9813 63.9451 15.8027 64.6917 16.736C65.4757 17.632 65.8677 18.3227 65.8677 18.808C65.8677 19.704 65.7557 20.8053 65.5317 22.112C65.3451 23.4187 65.0837 24.7067 64.7477 25.976Z" stroke="#007938" stroke-width="2" mask="url(#path-1-outside-1_66_122)"/>
<path d="M117.575 44.792C115.783 44.792 113.916 44.2133 111.975 43.056C110.033 41.8613 108.428 40.4053 107.159 38.688C105.889 36.9707 105.255 35.3467 105.255 33.816C105.255 31.0907 105.889 28.104 107.159 24.856C108.465 21.608 110.257 18.864 112.535 16.624C114.812 14.3467 117.388 13.208 120.263 13.208C122.316 13.208 124.164 13.656 125.807 14.552C127.487 15.448 128.793 16.568 129.727 17.912C130.66 19.256 131.127 20.5627 131.127 21.832C131.127 23.4 130.417 24.9493 128.999 26.48C127.58 27.9733 125.601 29.2987 123.063 30.456C120.524 31.576 117.631 32.3787 114.383 32.864C114.345 33.312 114.327 33.984 114.327 34.88C114.327 36 114.364 36.84 114.439 37.4C116.305 37.2133 118.153 36.7093 119.983 35.888C121.812 35.0667 123.809 33.9093 125.975 32.416C127.431 32.864 128.532 33.5733 129.279 34.544C130.025 35.5147 130.399 36.672 130.399 38.016C130.399 39.136 129.708 40.2373 128.327 41.32C126.983 42.3653 125.303 43.2053 123.287 43.84C121.271 44.4747 119.367 44.792 117.575 44.792ZM115.223 28.664C117.5 27.8427 119.404 26.7973 120.935 25.528C122.465 24.2587 123.231 23.176 123.231 22.28C123.231 21.2347 122.503 20.5253 121.047 20.152C119.628 21.1973 118.415 22.448 117.407 23.904C116.436 25.36 115.708 26.9467 115.223 28.664Z" stroke="#007938" stroke-width="2" mask="url(#path-1-outside-1_66_122)"/>
<path d="M165.708 5.592C166.418 6.00267 166.94 6.58134 167.276 7.328C167.65 8.03734 167.836 8.82134 167.836 9.68C167.836 10.4267 167.687 11.1733 167.388 11.92C167.09 12.6667 166.698 13.2827 166.212 13.768C165.652 13.7307 164.812 13.712 163.692 13.712C162.983 13.712 161.695 13.7493 159.828 13.824L156.86 13.88C157.047 12.7973 156.599 15.3173 155.516 21.44L154.396 27.824C154.023 30.0267 153.631 32.92 153.22 36.504C152.847 39.5653 152.511 41.712 152.212 42.944C151.951 44.176 151.522 44.792 150.924 44.792C150.066 44.792 149.039 44.4933 147.844 43.896C146.687 43.2613 145.66 42.5147 144.764 41.656C143.906 40.7973 143.476 40.088 143.476 39.528C143.439 38.6693 143.887 36.1307 144.82 31.912C145.53 28.3653 146.034 25.7333 146.332 24.016C146.332 24.0907 146.631 22.5413 147.228 19.368C147.751 16.5307 148.068 14.7947 148.18 14.16L139.444 15.224C138.735 14.8507 138.156 14.3093 137.708 13.6C137.298 12.8533 137.092 12.0507 137.092 11.192C137.092 9.69867 137.671 8.37334 138.828 7.216C140.956 6.91734 143.607 6.73067 146.78 6.656C149.991 6.544 151.895 6.46934 152.492 6.432C156.412 6.32 159.268 6.22667 161.06 6.152C162.89 6.04 164.439 5.85334 165.708 5.592Z" stroke="#007938" stroke-width="2" mask="url(#path-1-outside-1_66_122)"/>
<path d="M189.373 36.56C191.65 35.44 193.573 34.2453 195.141 32.976C196.783 33.536 197.997 34.32 198.781 35.328C199.602 36.2987 200.013 37.4187 200.013 38.688C200.013 39.584 199.378 40.5173 198.109 41.488C196.839 42.4213 195.327 43.2053 193.573 43.84C191.818 44.4747 190.325 44.792 189.093 44.792C188.234 44.792 187.245 44.4747 186.125 43.84C185.042 43.2053 184.09 42.4587 183.269 41.6C182.485 40.7413 182.093 40.0693 182.093 39.584C182.093 39.2107 182.242 38.7067 182.541 38.072C182.877 37.4373 183.231 36.784 183.605 36.112C183.978 35.44 184.221 34.992 184.333 34.768L182.933 33.984C180.954 37.232 179.05 39.8453 177.221 41.824C175.429 43.8027 173.655 44.792 171.901 44.792C170.706 44.792 169.437 44.2693 168.093 43.224C166.786 42.1787 165.666 40.9093 164.733 39.416C163.837 37.9227 163.389 36.5973 163.389 35.44C163.389 32.1173 164.079 28.72 165.461 25.248C166.842 21.776 168.765 18.9013 171.229 16.624C173.73 14.3467 176.549 13.208 179.685 13.208C180.805 13.208 181.943 13.712 183.101 14.72C184.258 15.728 185.005 16.7547 185.341 17.8C185.527 16.9787 185.789 16.2693 186.125 15.672C186.498 15.0373 186.89 14.72 187.301 14.72C188.271 14.72 189.335 15.0747 190.493 15.784C191.687 16.456 192.695 17.2587 193.517 18.192C194.338 19.088 194.749 19.7973 194.749 20.32C194.711 21.0293 194.413 22.2053 193.853 23.848C193.33 25.4907 192.471 27.992 191.277 31.352C190.567 33.1813 189.933 34.9173 189.373 36.56ZM172.181 37.008C175.205 35.1413 177.837 32.8453 180.077 30.12C182.317 27.3573 183.847 24.3147 184.669 20.992C183.661 20.544 182.709 20.32 181.813 20.32C180.058 20.32 178.49 21.104 177.109 22.672C175.727 24.24 174.626 26.2933 173.805 28.832C172.983 31.3707 172.442 34.096 172.181 37.008Z" stroke="#007938" stroke-width="2" mask="url(#path-1-outside-1_66_122)"/>
<path d="M220.352 15.112C222.405 15.1493 224.253 15.5413 225.896 16.288C227.538 17.0347 228.826 18.0613 229.76 19.368C230.73 20.6747 231.216 22.1493 231.216 23.792C231.216 26.6293 230.376 29.7093 228.696 33.032C227.016 36.3173 224.757 39.0987 221.92 41.376C219.12 43.6533 216.133 44.792 212.96 44.792C211.317 44.792 209.693 44.232 208.088 43.112C206.482 41.992 205.157 40.6667 204.112 39.136C203.066 37.6053 202.544 36.3173 202.544 35.272C202.544 32.808 203.365 28.72 205.008 23.008C205.717 20.656 206.37 17.408 206.968 13.264C207.565 9.12 207.882 6.096 207.92 4.192C207.957 3.408 208.218 2.75467 208.704 2.232C209.226 1.672 209.842 1.392 210.552 1.392C211.56 1.392 212.68 1.784 213.912 2.568C215.181 3.31467 216.245 4.21067 217.104 5.256C218 6.264 218.448 7.12267 218.448 7.832C218.41 9.624 217.57 12.648 215.928 16.904L220.352 15.112ZM212.96 37.736C214.304 37.736 215.666 36.952 217.048 35.384C218.466 33.816 219.624 31.9493 220.52 29.784C221.453 27.6187 221.92 25.752 221.92 24.184C221.92 23.7733 221.584 23.344 220.912 22.896C220.24 22.448 219.437 22.0747 218.504 21.776C217.608 21.44 216.805 21.272 216.096 21.272C215.685 21.272 215.349 21.3467 215.088 21.496C214.49 21.832 213.912 22.7093 213.352 24.128C212.792 25.5093 212.325 27.1147 211.952 28.944C211.616 30.7733 211.448 32.4347 211.448 33.928C211.448 35.0853 211.56 36.0187 211.784 36.728C212.045 37.4 212.437 37.736 212.96 37.736Z" stroke="#007938" stroke-width="2" mask="url(#path-1-outside-1_66_122)"/>
<path d="M240.906 44.792C239.823 44.792 238.61 44.4747 237.266 43.84C235.959 43.168 234.839 42.4027 233.906 41.544C232.972 40.648 232.506 39.8827 232.506 39.248C232.506 38.6133 232.767 37.0453 233.29 34.544C233.812 32.0427 234.148 30.4373 234.298 29.728C235.418 24.576 236.164 21.0107 236.538 19.032L237.098 15.896C237.882 11.5653 238.591 8.07467 239.226 5.424C239.898 2.77334 240.57 1.448 241.242 1.448C242.026 1.448 243.052 1.784 244.322 2.456C245.628 3.128 246.767 3.912 247.738 4.808C248.708 5.704 249.194 6.488 249.194 7.16C249.194 8.056 249.026 8.93334 248.69 9.792C248.391 10.6133 247.924 11.696 247.29 13.04C246.692 14.1973 246.282 15.0933 246.058 15.728C245.348 17.9307 244.583 20.992 243.762 24.912C242.978 28.832 242.324 32.6213 241.802 36.28C242.996 35.6827 243.93 35.1787 244.602 34.768C245.274 34.32 246.058 33.7227 246.954 32.976C248.596 33.536 249.81 34.32 250.594 35.328C251.415 36.2987 251.826 37.4187 251.826 38.688C251.826 39.584 251.191 40.5173 249.922 41.488C248.652 42.4213 247.14 43.2053 245.386 43.84C243.631 44.4747 242.138 44.792 240.906 44.792Z" stroke="#007938" stroke-width="2" mask="url(#path-1-outside-1_66_122)"/>
<path d="M266.653 44.792C264.861 44.792 262.994 44.2133 261.053 43.056C259.111 41.8613 257.506 40.4053 256.237 38.688C254.967 36.9707 254.333 35.3467 254.333 33.816C254.333 31.0907 254.967 28.104 256.237 24.856C257.543 21.608 259.335 18.864 261.613 16.624C263.89 14.3467 266.466 13.208 269.341 13.208C271.394 13.208 273.242 13.656 274.885 14.552C276.565 15.448 277.871 16.568 278.805 17.912C279.738 19.256 280.205 20.5627 280.205 21.832C280.205 23.4 279.495 24.9493 278.077 26.48C276.658 27.9733 274.679 29.2987 272.141 30.456C269.602 31.576 266.709 32.3787 263.461 32.864C263.423 33.312 263.405 33.984 263.405 34.88C263.405 36 263.442 36.84 263.517 37.4C265.383 37.2133 267.231 36.7093 269.061 35.888C270.89 35.0667 272.887 33.9093 275.053 32.416C276.509 32.864 277.61 33.5733 278.357 34.544C279.103 35.5147 279.477 36.672 279.477 38.016C279.477 39.136 278.786 40.2373 277.405 41.32C276.061 42.3653 274.381 43.2053 272.365 43.84C270.349 44.4747 268.445 44.792 266.653 44.792ZM264.301 28.664C266.578 27.8427 268.482 26.7973 270.013 25.528C271.543 24.2587 272.309 23.176 272.309 22.28C272.309 21.2347 271.581 20.5253 270.125 20.152C268.706 21.1973 267.493 22.448 266.485 23.904C265.514 25.36 264.786 26.9467 264.301 28.664Z" stroke="#007938" stroke-width="2" mask="url(#path-1-outside-1_66_122)"/>
</svg>
