<svg width="188" height="430" viewBox="0 0 188 430" fill="none" xmlns="http://www.w3.org/2000/svg">
<path d="M84.8811 101.563L88.9143 102.906C86.931 106.73 83.7732 110.474 80.8699 112.739C80.1582 111.94 78.536 110.478 77.5981 109.787C80.4927 107.942 83.3025 104.779 84.8811 101.563ZM91.587 102.317L95.6181 102.4L95.3642 114.718C95.3377 116.006 95.4747 116.148 96.5945 116.172C97.0984 116.182 98.946 116.22 99.4779 116.231C100.542 116.253 100.751 115.613 100.989 112.229C101.843 112.919 103.536 113.626 104.623 113.901C104.078 118.622 102.984 120.056 99.7925 119.99C98.9807 119.974 96.7131 119.927 95.9573 119.911C92.2061 119.834 91.2511 118.61 91.3331 114.635L91.587 102.317ZM100.847 104.161L103.834 107.331C100.944 108.952 97.3858 110.391 94.2834 111.447C94.0493 110.574 93.4332 109.217 92.946 108.395C95.7965 107.333 98.8282 105.631 100.847 104.161ZM79.0664 95.6179L104.149 96.135L104.069 100.026L78.9862 99.5091L79.0664 95.6179ZM85.0479 93.4727L89.079 93.5558L88.9024 102.122L84.8713 102.039L85.0479 93.4727ZM94.3419 93.6643L98.401 93.748L98.2244 102.314L94.1653 102.231L94.3419 93.6643ZM82.85 107.71L86.9642 103.762L86.9636 103.79L86.6272 120.111L82.5961 120.028L82.85 107.71Z" fill="#007938"/>
<path d="M91.0873 134.71C90.1837 133.711 88.2645 131.711 87.2174 130.877L90.3972 128.786C91.4162 129.62 93.4503 131.482 94.3539 132.481L91.0873 134.71ZM84.2694 131.237C84.5098 131.802 85.0991 133.102 85.3961 133.64C86.5251 135.932 87.6723 138.7 88.5779 140.96C89.724 143.784 91.9713 150.243 92.8293 153.454L88.1301 154.533C87.3373 150.876 85.926 145.974 84.6481 142.755C83.6905 140.299 82.8169 137.844 81.6033 135.579C81.171 134.814 80.4388 133.65 79.8391 132.854L84.2694 131.237ZM77.4372 139.33C78.7032 139.048 80.0568 138.599 80.5087 138.413C86.3228 136.236 91.5349 133.375 95.9579 133.466C100.521 133.56 103.233 136.501 103.164 139.86C103.075 144.171 99.9721 146.6 95.745 146.512C94.2333 146.481 92.4218 146.052 91.3661 145.638L91.5658 141.385C92.898 141.973 94.2896 142.394 95.3534 142.416C96.921 142.448 98.618 141.643 98.6595 139.627C98.6861 138.339 97.502 137.363 95.7663 137.327C91.3153 137.235 82.756 142.156 79.3084 143.653L77.4372 139.33Z" fill="#007938"/>
<path d="M87.0733 165.042C86.8502 166.353 86.647 168.058 86.5657 169.288C86.3651 172.225 86.0445 178.267 85.981 181.347C85.9256 184.034 87.448 184.906 89.3516 184.945C93.6906 185.034 96.6825 182.547 98.7907 179.454L101.792 183.297C100.001 185.949 95.7504 189.726 89.2278 189.591C84.3288 189.49 81.3231 187.216 81.424 182.317C81.4968 178.79 81.9034 171.292 81.9466 169.193C81.9778 167.681 81.8696 166.139 81.6156 164.873L87.0733 165.042Z" fill="#007938"/>
<path d="M79.7918 201.719C83.9811 202.282 87.2547 202.433 90.2821 202.3C92.973 202.187 95.3057 201.787 97.7848 201.082L98.237 204.956C96.0974 205.5 93.6246 205.897 91.0737 206.013C88.1583 206.149 84.3225 206.098 79.9361 205.587L79.7918 201.719ZM79.1936 207.644C84.3907 208.228 88.7869 208.262 92.2085 208.025C95.405 207.838 97.4321 207.32 99.1496 206.879L99.7389 210.896C97.9666 211.28 95.9436 211.602 93.6988 211.808C90.1081 212.098 84.5081 212.039 79.3356 211.624L79.1936 207.644ZM88.4965 203.327C88.2123 202.173 87.8714 201.046 87.4495 199.777L91.9943 199.394C92.2994 202.257 92.8405 204.537 93.5496 206.82C94.128 208.652 95.5219 211.678 96.6876 213.55C97.0948 214.175 97.4775 214.631 98.0264 215.174L95.9759 218.184C94.414 217.872 91.1468 217.413 89.0519 217.146L89.4541 213.933C90.4322 214.037 91.8016 214.178 92.5843 214.25C91.1811 211.672 90.2766 209.357 89.672 207.44C89.0417 205.411 88.8328 204.678 88.4965 203.327ZM85.1566 214.545C84.4663 215.427 83.8302 216.394 83.806 217.57C83.7662 219.501 85.6559 220.212 88.9872 220.281C91.6467 220.336 94.2267 220.165 96.2224 219.814L95.8816 224.12C93.9156 224.387 91.1396 224.554 88.9001 224.508C83.2453 224.391 79.5847 222.636 79.5873 218.435C79.5711 216.502 80.2735 215.032 80.9737 213.674L85.1566 214.545Z" fill="#007938"/>
<path d="M146.429 177.662L150 184.7L155 177.662L160.714 184.7L163.571 177.662" stroke="#007938" stroke-width="2" stroke-linejoin="round"/>
<path d="M150 184.7L155 199.48L160.714 184.7" stroke="#007938" stroke-width="2" stroke-linejoin="round"/>
<path d="M163.571 177.662H146.429L140 184.7H170L163.571 177.662Z" stroke="#007938" stroke-width="2" stroke-linejoin="round"/>
<path d="M155 199.48L140 184.7H170L155 199.48Z" stroke="#007938" stroke-width="2" stroke-linejoin="round"/>
<path d="M163.429 152.26L167 159.298L172 152.26L177.714 159.298L180.571 152.26" stroke="#007938" stroke-width="2" stroke-linejoin="round"/>
<path d="M167 159.298L172 174.078L177.714 159.298" stroke="#007938" stroke-width="2" stroke-linejoin="round"/>
<path d="M180.571 152.26H163.429L157 159.298H187L180.571 152.26Z" stroke="#007938" stroke-width="2" stroke-linejoin="round"/>
<path d="M172 174.078L157 159.298H187L172 174.078Z" stroke="#007938" stroke-width="2" stroke-linejoin="round"/>
<path d="M7.42847 152.26L10.9999 159.298L15.9999 152.26L21.7142 159.298L24.5713 152.26" stroke="#007938" stroke-width="2" stroke-linejoin="round"/>
<path d="M11 159.298L16 174.078L21.7143 159.298" stroke="#007938" stroke-width="2" stroke-linejoin="round"/>
<path d="M24.5714 152.26H7.42857L1 159.298H31L24.5714 152.26Z" stroke="#007938" stroke-width="2" stroke-linejoin="round"/>
<path d="M16 174.078L1 159.298H31L16 174.078Z" stroke="#007938" stroke-width="2" stroke-linejoin="round"/>
<path d="M24.4286 178.26L28 185.298L33 178.26L38.7143 185.298L41.5714 178.26" stroke="#007938" stroke-width="2" stroke-linejoin="round"/>
<path d="M28 185.298L33 200.078L38.7143 185.298" stroke="#007938" stroke-width="2" stroke-linejoin="round"/>
<path d="M41.5714 178.26H24.4286L18 185.298H48L41.5714 178.26Z" stroke="#007938" stroke-width="2" stroke-linejoin="round"/>
<path d="M33 200.078L18 185.298H48L33 200.078Z" stroke="#007938" stroke-width="2" stroke-linejoin="round"/>
<path d="M28.4286 125.662L32 132.7L37 125.662L42.7143 132.7L45.5714 125.662" stroke="#007938" stroke-width="2" stroke-linejoin="round"/>
<path d="M32 132.7L37 147.48L42.7143 132.7" stroke="#007938" stroke-width="2" stroke-linejoin="round"/>
<path d="M45.5714 125.662H28.4286L22 132.7H52L45.5714 125.662Z" stroke="#007938" stroke-width="2" stroke-linejoin="round"/>
<path d="M37 147.48L22 132.7H52L37 147.48Z" stroke="#007938" stroke-width="2" stroke-linejoin="round"/>
<path fill-rule="evenodd" clip-rule="evenodd" d="M38.1104 0L94.2501 24.6921L150.39 7.96318e-05L153.61 7.32305L111.693 25.7598L173.5 25.7598V33.7598L114.866 33.7598L158.61 53.0001L155.39 60.323L112 41.2388V50.2598H104.031L123.495 425.052L123.713 429.26H119.5H50H45.604L46.0178 424.883L81.4349 50.2598H74V42.3384L33.1104 60.323L29.8896 53.0001L73.6339 33.7598L15.0001 33.7597L15.0001 25.7598L76.8073 25.7598L34.8896 7.32297L38.1104 0ZM85.8781 88.2598L89.1397 53.7598H96.2024L97.994 88.2598H85.8781ZM85.1217 96.2598L82.4746 124.26H99.8635L98.4094 96.2598H85.1217ZM100.279 132.26H81.7183L79.0711 160.26H101.733L100.279 132.26ZM102.148 168.26H78.3148L75.195 201.26H103.862L102.148 168.26ZM104.278 209.26H74.4386L70.9879 245.76H106.173L104.278 209.26ZM66.5445 292.76L70.2316 253.76H106.589L108.614 292.76H66.5445ZM109.029 300.76H65.7882L60.8721 352.76H111.73L109.029 300.76ZM54.396 421.26L60.1157 360.76H112.145L115.287 421.26H54.396Z" fill="#007938"/>
<path d="M16 32.7598V152.26" stroke="#007938" stroke-width="2"/>
<path d="M172 32.2598V151.76" stroke="#007938" stroke-width="2"/>
<path d="M155 57.6616V177.162" stroke="#007938" stroke-width="2"/>
<path d="M142.429 125.661L146 132.7L151 125.661L156.714 132.7L159.571 125.661" stroke="#007938" stroke-width="2" stroke-linejoin="round"/>
<path d="M146 132.7L151 147.48L156.714 132.7" stroke="#007938" stroke-width="2" stroke-linejoin="round"/>
<path d="M159.571 125.661H142.429L136 132.7H166L159.571 125.661Z" stroke="#007938" stroke-width="2" stroke-linejoin="round"/>
<path d="M151 147.48L136 132.7H166L151 147.48Z" stroke="#007938" stroke-width="2" stroke-linejoin="round"/>
<path d="M151 5.66156V125.162" stroke="#007938" stroke-width="2"/>
<path d="M33 58.2598V177.76" stroke="#007938" stroke-width="2"/>
<path d="M37 5.66156V125.162" stroke="#007938" stroke-width="2"/>
</svg>
