<svg width="31" height="24" viewBox="0 0 31 24" fill="none" xmlns="http://www.w3.org/2000/svg">
<path class="aaa" d="M30.2671 2.82353C29.18 3.31765 28.0083 3.64235 26.7941 3.79765C28.0365 3.04941 28.9965 1.86353 29.4483 0.437647C28.2765 1.14353 26.9777 1.63765 25.6083 1.92C24.493 0.705883 22.9259 0 21.1471 0C17.8294 0 15.1189 2.71059 15.1189 6.05647C15.1189 6.53647 15.1753 7.00235 15.2741 7.44C10.2483 7.18588 5.77297 4.77176 2.79415 1.11529C2.27179 2.00471 1.97532 3.04941 1.97532 4.15059C1.97532 6.25412 3.03415 8.11765 4.67179 9.17647C3.66944 9.17647 2.73768 8.89412 1.91885 8.47059V8.51294C1.91885 11.4494 4.00827 13.9059 6.77532 14.4565C5.88694 14.6996 4.95428 14.7334 4.05062 14.5553C4.43406 15.7588 5.18502 16.8119 6.19794 17.5665C7.21085 18.3211 8.43478 18.7393 9.69768 18.7624C7.55692 20.4571 4.90332 21.3732 2.17297 21.36C1.69297 21.36 1.21297 21.3318 0.732971 21.2753C3.41532 22.9976 6.60591 24 10.0224 24C21.1471 24 27.26 14.7671 27.26 6.76235C27.26 6.49412 27.26 6.24 27.2459 5.97176C28.4318 5.12471 29.4483 4.05176 30.2671 2.82353Z" fill="#00AB4F"/>
</svg>
